<?xml version="1.0" encoding="UTF-8"?>
<svg id="Layer_2" data-name="Layer 2" xmlns="http://www.w3.org/2000/svg" version="1.1" xmlns:xlink="http://www.w3.org/1999/xlink" viewBox="0 0 110.4 110.4">
  <defs>
    <style>
      .cls-1 {
        fill: none;
      }

      .cls-1, .cls-2 {
        stroke-width: 0px;
      }

      .cls-3 {
        clip-path: url(#clippath);
      }

      .cls-2 {
        fill: #eff0f1;
      }
    </style>
    <clipPath id="clippath">
      <rect class="cls-1" width="110.4" height="110.4" rx="12" ry="12"/>
    </clipPath>
  </defs>
  <g class="cls-3">
    <image width="2176" height="616" transform="translate(-181.6 -32.2) scale(.2)" xlink:href="pause-1.png"/>
  </g>
  <g>
    <path class="cls-2" d="M98.7,50.4c-.5-.9-6,0-6.5-.5s-.5-4.5-2-8.4c-3.5-9.3-7.2-6-.5-13.1-1.1-.8-7-7.6-7.6-7.6-1.1-.1-4,4.2-5,4-.4-.1-3.7-3.1-7.7-4.6-4.2-1.7-8.5-2-8.8-2.3-.4-.4,0-6.5-.8-6.9-.4-.1-7.8-.1-8.2,0-2.8.7-.3,5.7-1.7,6.9-.4.3-4.8.8-8.5,2.3-4.5,1.9-7.4,4.9-8,4.9s-4.1-4.5-5-4.2c-.5.1-7.2,7-7.2,7.6-.1,1.2,4.1,4,4,5.2-.1.4-2.8,3.3-4.5,8.1-1.2,3.2-1.7,8-2,8.4-2.4,2.1-8.2-5.7-6.8,9.7,1.1,1.6,6,0,6.8,1.2.3.4.3,4.2,2.5,9.4,3.5,8,6.4,4.8,0,11.8q3.6,3.8,7.2,7.6c7.6-6.1,4.1-2.9,12.5.5,4.5,1.9,9,2.3,9.3,2.5.5.8-.4,6.1.5,6.6.4.1,8.9.1,9.3,0,1.1-.5-.3-6.2.8-6.9.4-.3,4.4-.3,9-2.3,8.2-3.5,4.8-6.6,12.2-.5.9-1.1,7.6-7.3,7.6-7.8-6.8-6.4-2.8-4.1.5-12.9,3.2-8.2-1.2-8.2,8.5-8.9,0-2,.4-9.3.1-9.7ZM82.4,77.6c-14.9,18.8-45.3,16.3-56.9-4.5-12.9-23,2.3-51,26.1-53,32.5-2.8,49.4,33.7,30.8,57.5Z"/>
    <path class="cls-2" d="M53.8,28.5c-11.8.7-23,10.9-24.4,22.8-3.1,24,23.9,39.8,42.3,24.8,19.6-16.2,7.6-49-17.9-47.6ZM58.6,59.2c-4.6,3.8-8-2.1-8.5-2.3-2-.7-14.1,1.2-14.6-1.1-1.2-4.8,11.8-1.6,14.6-2.8.8-.4,1.7-2.9,4.2-3.2,5-.4,8.4,6,4.2,9.3Z"/>
  </g>
</svg>