<?xml version="1.0" encoding="UTF-8"?>
<svg id="Layer_1" data-name="Layer 1" xmlns="http://www.w3.org/2000/svg" version="1.1" viewBox="0 0 457 153.1">
  <defs>
    <style>
      .cls-1 {
        fill: #a67c52;
      }

      .cls-1, .cls-2 {
        stroke-width: 0px;
      }

      .cls-3 {
        opacity: .7;
      }

      .cls-3, .cls-4 {
        isolation: isolate;
      }

      .cls-5 {
        fill: #e2a349;
        stroke: #a67c52;
        stroke-miterlimit: 10;
        stroke-width: 5px;
      }

      .cls-2 {
        fill: #fff1e8;
      }

      .cls-6 {
        opacity: .4;
      }

      .cls-4 {
        opacity: .5;
      }
    </style>
  </defs>
  <polygon class="cls-5" points="5.4 80.8 17.5 13.1 179.6 13.1 179.6 4 356.2 9.3 356.2 4 369.1 4 376.8 12.3 446.8 10.8 451.3 72.5 419.4 73.2 451.3 80.8 451.3 132.6 327.3 132.6 328.8 141.7 160.6 146.3 161.4 137.2 5.4 146.3 5.4 85.4 47.2 81.6 5.4 80.8"/>
  <g class="cls-3">
    <rect class="cls-1" x="8.2" y="47.2" width="441.2" height="3" transform="translate(-.5 2.5) rotate(-.6)"/>
  </g>
  <g class="cls-3">
    <rect class="cls-1" x="8.2" y="107.2" width="441.2" height="3" transform="translate(-1.2 2.5) rotate(-.6)"/>
  </g>
  <path class="cls-1" d="M68.7,69.7c5.5-.4,11.1-.8,16.6-1.2,5.5-.4,11.1-.7,16.6-1,11.1-.6,22.2-1.2,33.3-1.7l-.6,1.7-7.6-6.7-2.2-1.9,3,.2,17.4,1.3,17.4,1.4,17.4,1.5c5.8.6,11.6,1,17.3,1.7-5.8-.2-11.6-.5-17.4-.7l-17.4-.9-17.4-1-17.4-1.1.7-1.7,7.6,6.7,1.8,1.6h-2.5c-11.1.6-22.2,1-33.3,1.3-5.6.2-11.1.3-16.7.4h-16.6Z"/>
  <path class="cls-1" d="M403.7,80.1c-7.6-.2-15.3-.5-22.9-.7l-22.8-.8-11.4-.4-11.4-.5-22.9-1.1h-2.2l1.5-1.6c2.1-2.1,4.1-4.1,6.2-6.2l.8,1.7-14.2,1c-4.7.3-9.4.7-14.2.9l-14.2.8c-4.7.2-9.5.5-14.2.6,4.7-.6,9.4-1,14.1-1.6l14.1-1.4c4.7-.5,9.4-.9,14.1-1.3l14.1-1.2,2.6-.2-1.9,1.9c-2,2.1-4.1,4.1-6.2,6.1l-.6-1.6,22.8,1.2,11.4.6,11.4.7,22.8,1.4c8,.7,15.6,1.1,23.2,1.7h0Z"/>
  <g class="cls-6">
    <g class="cls-4">
      <path class="cls-2" d="M133.8,70.5c-9.6,0-21.9-.4-38-1.3-9.2-.5-25.1-3.2-39.1-5.6-10.1-1.7-18.9-3.2-22.3-3.3v-2c3.7.2,12.5,1.7,22.6,3.4,14,2.4,29.8,5,38.9,5.5,49.2,2.7,62,.5,75.6-1.9,6.7-1.2,13.6-2.4,25.2-2.9,9-.4,15.1-.7,20.5-.8,11.9-.4,19.1-.7,41.7-2.8,35.4-3.3,59.3,1.1,80.3,4.9,7.4,1.4,14.4,2.6,21.3,3.5l-.2,2c-7-.8-14-2.1-21.4-3.5-20.9-3.8-44.6-8.2-79.8-4.9-22.7,2.1-29.9,2.3-41.9,2.8-5.4.2-11.5.4-20.5.8-11.5.6-18.3,1.8-25,2.9-9.2,1.6-18.1,3.1-38,3.1Z"/>
    </g>
    <g class="cls-4">
      <path class="cls-2" d="M256.9,29.7c-5.4,0-10.9-.1-16.9-.4-15.6-.8-22.6-2-30.7-3.4-7-1.2-15-2.7-30.2-4.1-37.7-3.4-76.4-2.7-115,1.9l-.2-2c38.8-4.7,77.6-5.3,115.4-1.9,15.3,1.4,23.3,2.8,30.4,4.1,8.1,1.4,15,2.7,30.5,3.4,22.4,1.1,37.9,0,66.1-2.1,15.3-1.1,34.4-2.5,60.4-4,13.3-.8,24.5-1.3,32.6-1.7l4.5-.2v2c0,0-4.4.2-4.4.2-8.2.4-19.4.9-32.6,1.7-26,1.5-45,2.9-60.3,4-20.7,1.5-34.7,2.5-49.5,2.5Z"/>
    </g>
    <g class="cls-4">
      <path class="cls-2" d="M304.3,44.8c-19.9,0-28.8-1.5-38-3.1-6.6-1.2-13.5-2.3-25-2.9-9-.4-15.1-.7-20.5-.8-11.9-.4-19.2-.7-41.8-2.8-35.1-3.2-58.8,1.1-79.8,4.9-7.4,1.4-14.4,2.6-21.4,3.5l-.2-2c6.9-.8,13.9-2.1,21.3-3.5,21-3.8,44.9-8.2,80.3-4.9,22.6,2.1,29.8,2.3,41.7,2.8,5.4.2,11.6.4,20.5.8,11.6.6,18.5,1.8,25.2,2.9,13.6,2.4,26.4,4.6,75.6,1.9,9.1-.5,24.9-3.2,38.9-5.5,10.2-1.7,19-3.2,22.6-3.4v2c-3.3.2-12.1,1.6-22.2,3.3-14,2.4-29.9,5-39.1,5.6-16.1.9-28.4,1.3-38,1.3Z"/>
    </g>
    <g class="cls-4">
      <path class="cls-2" d="M224.1,87.7c-14.8,0-28.7-1-49.5-2.5-15.3-1.1-34.4-2.5-60.3-4-13.3-.8-24.5-1.3-32.6-1.7l-4.5-.2v-2c0,0,4.6.2,4.6.2,8.2.4,19.4.9,32.6,1.7,26,1.5,45,2.9,60.4,4,28.2,2.1,43.8,3.2,66.1,2.1,15.5-.7,22.4-2,30.5-3.4,7.1-1.3,15.1-2.7,30.4-4.1,37.8-3.4,76.6-2.8,115.4,1.9l-.2,2c-38.6-4.6-77.3-5.3-115-1.9-15.2,1.4-23.2,2.8-30.2,4.1-8.1,1.4-15.2,2.7-30.8,3.4-6,.3-11.5.4-16.9.4Z"/>
    </g>
    <g class="cls-4">
      <path class="cls-2" d="M163.3,101c-9.6,0-21.9-.4-38-1.3-9.2-.5-25.1-3.2-39.1-5.6-10.1-1.7-18.9-3.2-22.3-3.3v-2c3.7.2,12.5,1.7,22.6,3.4,14,2.4,29.8,5,38.9,5.5,49.2,2.7,62,.5,75.6-1.9,6.7-1.2,13.6-2.4,25.2-2.9,9-.4,15.1-.7,20.5-.8,11.9-.4,19.1-.7,41.7-2.8,35.4-3.3,59.3,1.1,80.3,4.9,7.4,1.4,14.4,2.6,21.3,3.5l-.2,2c-7-.8-14-2.1-21.4-3.5-20.9-3.8-44.6-8.2-79.8-4.9-22.7,2.1-29.9,2.3-41.8,2.8-5.4.2-11.5.4-20.5.8-11.5.6-18.3,1.8-25,2.9-9.2,1.6-18.1,3.1-38,3.1Z"/>
    </g>
    <g class="cls-4">
      <path class="cls-2" d="M164.3,127.6c-9.7,0-21.9-.4-38-1.3-9.2-.5-25.1-3.2-39.1-5.6-10.1-1.7-18.9-3.2-22.3-3.3v-2c3.7.2,12.5,1.7,22.7,3.4,14,2.4,29.8,5,38.9,5.5,49.2,2.7,62,.5,75.6-1.9,6.7-1.2,13.6-2.4,25.2-2.9,9-.4,15.1-.7,20.5-.8,11.9-.4,19.1-.7,41.7-2.8,35.4-3.3,59.3,1.1,80.3,4.9,7.4,1.3,14.4,2.6,21.3,3.5l-.2,2c-7-.8-14-2.1-21.4-3.5-20.9-3.8-44.6-8.2-79.8-4.9-22.7,2.1-29.9,2.3-41.8,2.8-5.4.2-11.5.4-20.5.8-11.5.6-18.3,1.8-25,2.9-9.2,1.6-18.1,3.1-38,3.1Z"/>
    </g>
  </g>
  <circle class="cls-1" cx="54.4" cy="24.9" r="3.8"/>
  <circle class="cls-1" cx="410.9" cy="23.5" r="4.3"/>
  <circle class="cls-1" cx="54.4" cy="122" r="3.8"/>
  <circle class="cls-1" cx="410.9" cy="120.6" r="4.3"/>
</svg>