<?xml version="1.0" encoding="utf-8"?>
<!-- Generator: Adobe Illustrator 28.3.0, SVG Export Plug-In . SVG Version: 6.00 Build 0)  -->
<svg version="1.1" id="Layer_1" xmlns="http://www.w3.org/2000/svg" xmlns:xlink="http://www.w3.org/1999/xlink" x="0px" y="0px"
	 viewBox="0 0 1500 1500" style="enable-background:new 0 0 1500 1500;" xml:space="preserve">
<style type="text/css">
	.st0{opacity:0.65;clip-path:url(#SVGID_00000095328253626300390900000002095104651273867425_);}
	.st1{fill:#5BA7C8;}
	.st2{fill:#B2CEEB;}
	.st3{fill:url(#SVGID_00000049912478693707274090000014542775019346785924_);}
	.st4{fill:#0080C3;}
	.st5{fill:#0080CC;}
	.st6{fill:#296F9D;}
	.st7{fill:#006AA5;}
	.st8{fill:#276C80;}
	.st9{fill:#0074AC;}
	.st10{fill:#FEFEFE;}
	.st11{fill:#2C8083;}
	.st12{fill:#9675A2;}
	.st13{fill:#8FAED6;}
	.st14{fill:#97C4DC;}
	.st15{fill:#734153;}
	.st16{fill:#2A3855;}
	.st17{fill:#9784BA;}
	.st18{fill:#93B9B5;}
	.st19{fill:#7F9FC2;}
	.st20{fill:#708C9E;}
	.st21{fill:#377AB4;}
	.st22{fill:#498DC1;}
	.st23{fill:#667D72;}
	.st24{fill:#47719F;}
	.st25{fill:#465696;}
	.st26{fill:#3F73A3;}
	.st27{fill:#3C94C7;}
	.st28{fill:#71818E;}
	.st29{fill:#499AC1;}
	.st30{fill:#7395A1;}
	.st31{fill:#A2BDD6;}
	.st32{fill:#A0A5AC;}
	.st33{fill:#96B0B5;}
	.st34{fill:#4493C2;}
	.st35{fill:#82AAC7;}
	.st36{opacity:0.73;fill:#66C5E0;}
	.st37{opacity:0.21;fill:#66C5E0;}
	.st38{clip-path:url(#SVGID_00000095328253626300390900000002095104651273867425_);}
	.st39{fill:#942B2A;}
	.st40{display:none;}
	.st41{display:inline;fill:#FBFBFB;}
	.st42{fill:#F53F21;}
	.st43{fill:url(#SVGID_00000148655764956718636820000015321829433777797276_);}
	.st44{fill:#3A2C2E;}
	.st45{fill:#E42B2A;}
	.st46{fill:#F9753A;}
	.st47{fill:#4D2F2D;}
	.st48{fill:#AF2C28;}
	.st49{fill:url(#SVGID_00000171678855403819900420000012704427960968047791_);}
	.st50{fill:#5F2E2D;}
	.st51{fill:#3E1B1A;}
	.st52{fill:#FDECC5;}
	.st53{fill:#FDBE65;}
	.st54{fill:#FA8939;}
	.st55{fill:#FCA445;}
	.st56{fill:url(#SVGID_00000067195790666432934860000004855882426802669498_);}
	.st57{fill:#751E26;}
	.st58{fill:#FC5B1F;}
	.st59{fill:url(#SVGID_00000049213723957923979830000000607571664896948153_);}
	.st60{fill:#CC2825;}
	.st61{fill:#D5533F;}
	.st62{fill:#388DB5;}
	.st63{fill:#4EA3C8;}
	.st64{fill:url(#SVGID_00000108296595139807633960000014821809172732003746_);}
	.st65{fill:#FBFBFB;}
	.st66{fill:#7CC7E0;}
	.st67{fill:#ABE1EE;}
	.st68{fill:#CDE7F1;}
	.st69{fill:#66B4D4;}
	.st70{fill:#EAF6F9;}
	.st71{fill:#D0DCE1;}
	.st72{fill:#97B175;}
	.st73{fill:#2D5938;}
	.st74{fill:#588853;}
	.st75{fill:#53844A;}
	.st76{fill:#659857;}
	.st77{fill:#2C4C3D;}
	.st78{fill:#3A512F;}
	.st79{fill:#3D673D;}
	.st80{fill:#99B581;}
	.st81{fill:#7DB06D;}
	.st82{fill:#8CAB56;}
	.st83{fill:#6F8C58;}
	.st84{fill:#8CBC90;}
	.st85{fill:#C8D2A3;}
	.st86{fill:#BA8D54;}
	.st87{fill:#87745A;}
	.st88{fill:#798056;}
	.st89{fill:#A9C766;}
	.st90{fill:#CFDFDD;}
	.st91{fill:#427130;}
	.st92{fill:#A6C465;}
	.st93{fill:#EBF6F4;}
	.st94{fill:#30614E;}
	.st95{fill:#367353;}
	.st96{fill:#78987B;}
	.st97{fill:#C6CAC6;}
	.st98{fill:#A4C5BF;}
	.st99{fill:#E1E4DA;}
	.st100{fill:#306957;}
	.st101{fill:#54928E;}
	.st102{fill:#336F6B;}
	.st103{fill:#B3D1AD;}
	.st104{fill:#E8C059;}
	.st105{fill:#E9BE5C;}
	.st106{fill:#FBE9CE;}
	.st107{fill:#ABB9B3;}
	.st108{fill:#8FA497;}
	.st109{fill:#6CA898;}
	.st110{fill:#F2D89D;}
	.st111{fill:#6B777E;}
	.st112{display:inline;fill:#ECEDEC;}
	.st113{fill:#ECEDEC;}
	.st114{display:inline;fill:#EFF0F1;}
	.st115{display:inline;fill:#D8DADD;}
	.st116{fill:#EFF0F1;}
	.st117{fill:#58646C;}
	.st118{fill:#E5E9EA;}
	.st119{clip-path:url(#SVGID_00000095328253626300390900000002095104651273867425_);fill:none;}
	.st120{opacity:0.5;}
	.st121{fill:url(#SVGID_00000049224051382186287100000000203898685192203439_);}
	.st122{fill:url(#SVGID_00000008140169453923500380000015739436406340706235_);}
	.st123{fill:url(#SVGID_00000003090021138463342050000010306439170254071743_);}
	.st124{fill:url(#SVGID_00000029018526034675738790000012681407905829516676_);}
	.st125{fill:url(#SVGID_00000144301735132195186360000002040345810672351663_);}
	.st126{fill:url(#SVGID_00000026843863943706589790000005182885853740722102_);}
</style>
<g>
	<defs>
		<rect id="SVGID_1_" x="-1521" y="-4" width="1504" height="1504"/>
	</defs>
	<clipPath id="SVGID_00000060727823956055430050000007382133869486353569_">
		<use xlink:href="#SVGID_1_"  style="overflow:visible;"/>
	</clipPath>
	<g style="opacity:0.65;clip-path:url(#SVGID_00000060727823956055430050000007382133869486353569_);">
		<g>
			<g id="Background_00000072968546873740491500000003628509296461745042_">
				<rect x="-1555.08" y="-288.69" class="st1" width="1595.4" height="1853.4"/>
				<path class="st1" d="M-1098.45-288.46c68.74,52.33,142.75,97.61,218.08,135.72c81.64,41.31,159.95,70.64,246.12,95.91
					c67.98,19.94,125.32,33.17,194.72,45.24C-384.19-1.96-328.56,6-272.84,11.94c100.38,10.7,201.35,17.58,302.2,14.48
					c-0.17,0.07,0.59,3.11-0.78,3.62c-12.19,4.57-48,9.31-44.4,29.86c28.04,0.45,28.04,0.45,56.08,0.9
					c0.01,10.25-0.01,20.51,0,30.76c-89.94,4.1-179.5,6.41-269.49,3.62c-80.16-2.49-160.48-11.17-240.67-12.67
					c-2.07,9.42-11.25,3.85-17.14,5.43c-2.47,0.66,1.58,5.1,0,5.43c-18.3,3.76-34-5.28-35.83-5.43c-21.6-1.79-46.74-0.48-68.54-1.81
					c-18.48-1.13-54.46-14.41-73.21,0c-51.24-5.4-102.89,11.01-152.66-7.24c-4.18,7.16-2.6-2.14-12.46-3.62
					c-14.19-2.13-17.42,2.7-23.37,1.81c-0.71-0.11-2.4-3.51-3.12-3.62c-58.28-8.78-115.75-17.74-173.69-28.95
					c-17.02-20.41,55.89,4.39,81.78,5.43c-7.72-25.17,40.74-6.61,44.4-20.81c0.89-3.45-12.18-9.83,16.36-4.52c0-2.71,0-2.71,0-5.43
					c-4.78,7.66-3.72-1.63-6.23-1.81c-2.68-0.19-3.62,5.25-10.9,3.62c-7.2-1.61-5.16-6.87-6.23-7.24
					c-26.49-9.11-31.67,0.25-25.7-43.43c95.4,31.32,177.68,50.54,275.72,66.96c72.78,12.19,145.65,20.91,218.86,28.95
					c21.68-0.7,63.39-20.13,46.73-30.76c-87.29-7.59-173.55-24.16-259.36-43.43c-53.45-12.01-104.83-24.5-157.33-41.62
					c-4.19-19.16-36.05-22.06-52.18-28.95c-25.66-10.97-51.78-22.45-77.11-34.38c-92.2-43.45-197.21-100.75-272.61-175.54
					C-1175.3-288.51-1136.87-288.42-1098.45-288.46z"/>
				<path class="st1" d="M40.26,1325.75c-59.02,83.7-125.75,159.06-188.49,238.87c-89.31,0.23-178.62-0.08-267.93,0
					c157.22-155.42,322.93-302.45,456.42-486.8C40.21,1160.47,40.43,1243.11,40.26,1325.75z"/>
				<path class="st1" d="M-814.94-288.46C-572.49-98.94-245.38-56.47,40.26-62.25c0.03,16.89-0.03,33.78,0,50.67
					c-13.9,2.03-77.67-0.14-83.34,1.81C-44.03-9.45-54.33,4.31-57.1,6.51c-0.53,0.42-9.1,0.93-12.46,3.62
					c-2.23,1.78,2.71,7.75-7.01,8.14c58.42,2.26,58.42,2.26,116.83,4.52c0,0.6,0,1.21,0,1.81c-3.74-0.45-7.42,0.38-10.9,1.81
					c-100.85,3.11-201.82-3.78-302.2-14.48c0.15-1.59-0.63-4.7,0.78-5.43c10.34-5.34,73.82-10.63,62.31-27.14
					c-74.35-3.12-147.57-17.68-220.42-34.38c-65.91-15.12-130.95-33.13-194.72-57.91c-76.24-29.62-152.49-68.54-224.32-110.39
					c-33.91-19.76-67.81-41.15-99.7-65.15C-904.25-288.49-859.59-288.44-814.94-288.46z"/>
				<path class="st2" d="M-1084.43,133.19c36.54,2.62,72.56-1.08,109.04,0c155.18,4.59,310.11,17.08,464.99-1.81
					c275.33,0.9,275.33,0.9,550.66,1.81c0.01,12.67-0.01,25.34,0,38c-526.52-0.9-526.52-0.9-1053.03-1.81
					c-271.05-0.9-271.05-0.9-542.09-1.81c0.01-13.27-0.01-26.54,0-39.81c65.21-0.67,130.33,1.34,195.5,0
					c-0.74-5.42-2.01-4.89,3.12-5.43c8.5-0.89,114.98,11.74,127.73,5.43c1.51-0.75,2.77-3.34,2.34-5.43
					c12.67,1.01,25.28,5.17,38.16,3.62c-8.63-5.58,7.35-4.96,26.48-3.62C-1135.81,124.13-1110.23,131.34-1084.43,133.19z"/>
				<path class="st4" d="M-229.23,95.19c89.99,2.79,179.55,0.48,269.49-3.62c0.01,13.87-0.01,27.75,0,41.62
					c-275.33-0.9-275.33-0.9-550.66-1.81c-154.88,18.89-309.81,6.4-464.99,1.81c-0.1-11.99-33.42-2-33.49-10.86
					c-18.27,7.61-11.63-0.61-14.02-1.81c-1.79-0.9-3.15,5.24-12.46,3.62c-0.39-0.07-5.84-5.4-6.23-5.43
					c-2.37-0.16-48.07,8.93-42.84,14.48c-25.8-1.85-51.38-9.06-77.11-10.86c-19.13-1.34-35.11-1.96-26.48,3.62
					c-12.89,1.55-25.49-2.61-38.16-3.62c-23.58-1.88-46.61-4.02-70.1-7.24c-0.97-6.49,5.7-2.31,10.13-3.62
					c5.69-1.68,12.55-8.05,18.69-9.05c21.12-3.43,64.68,4.2,76.33,1.81c8.45-1.73,12.81-9.21,18.69-10.86
					c10.65-2.98,25.06,0.84,29.6,0c10.61-1.95,24.36-10.43,34.27-10.86c2.83-0.12,37.92,7.84,56.08,3.62
					c2.71-0.63,18.32-13.53,32.71-14.48c15.19-1,85.12,13.91,109.04,16.29c21.09,2.1,42.88,0.02,63.87,1.81
					c11.08,0.95,23.31,6.26,34.27,7.24c31.14,2.77,62.55,3.93,93.46,0c89.21,17.88,177.62,20.16,266.37,30.76
					c-6.55-20.62,15.96-8.99,23.37-9.05c42.31-0.36,138.87,4.53,168.24-3.62C-258.54,114.36-227.67,100.44-229.23,95.19z"/>
				<path class="st8" d="M40.26,1325.75c-0.16,79.62,0.12,159.25,0,238.87c-62.83,0.12-125.66-0.16-188.49,0
					C-85.49,1484.82-18.75,1409.45,40.26,1325.75z"/>
				<path class="st9" d="M40.26-11.58c0.02,11.46-0.01,22.92,0,34.38c-58.42-2.26-58.42-2.26-116.83-4.52
					c9.72-0.39,4.78-6.36,7.01-8.14c3.37-2.69,11.93-3.2,12.46-3.62c2.76-2.21,13.07-15.96,14.02-16.29
					C-37.4-11.73,26.36-9.55,40.26-11.58z"/>
				<path class="st4" d="M40.26,24.61c0.02,12.06-0.02,24.13,0,36.19c-28.04-0.45-28.04-0.45-56.08-0.9
					c-3.6-20.55,32.21-25.29,44.4-29.86c1.37-0.51,0.61-3.55,0.78-3.62C32.85,24.99,36.52,24.16,40.26,24.61z"/>
			</g>
			<g>
				<path class="st8" d="M40.26,980.11c-0.02,32.57,0.02,65.15,0,97.72c-133.49,184.35-299.2,331.38-456.42,486.8
					c-35.31,0.03-70.62-0.02-105.93,0c2.73-4.52,2.73-4.52,5.45-9.05C-320.53,1378.87-114.26,1208.89,40.26,980.11z"/>
				<g>
					<path class="st12" d="M-212.09,426.35c56.8,27.34,112.57,61.39,158.89,108.58c3.12,3.62,3.12,3.62,6.23,7.24
						c3.91,4.23,8.81,8.21,12.46,12.67c1.98,2.41,4.62,5.14,6.23,7.24c45.89,60.01,59.9,126.38,40.5,204.49
						c-45.15,181.73-317.61,416.45-449.41,526.61c-112.74,94.23-230.57,180.15-345.04,271.45c-112.16-0.05-224.32,0.11-336.47,0
						c107.16-77.38,219.52-145.52,327.9-220.78c176.3-122.42,438.71-309.03,574.03-479.56c28.94-21.02,91.83-131.21,98.14-195.44
						c10.09-102.76-50.41-183.79-124.62-229.83c7.57-16.3,8.4-8.25,21.03-9.05C-221.05,429.9-209.43,427.61-212.09,426.35z"/>
					<path class="st15" d="M40.26,980.11c-154.52,228.78-360.79,398.77-556.89,575.47c-2.73,4.52-2.73,4.52-5.45,9.05
						c-53.48,0.03-106.97-0.02-160.45,0c218.1-177.59,632.99-468.97,722.79-761.86C40.24,861.88,40.3,920.99,40.26,980.11z"/>
					<path class="st16" d="M40.26,764.76c0,12.67,0.01,25.34,0,38c-89.8,292.9-504.69,584.27-722.79,761.86
						c-33.23,0.02-66.46,0.02-99.7,0c114.47-91.3,232.3-177.21,345.04-271.45c131.8-110.16,404.26-344.88,449.41-526.61
						C26.24,765.66,26.24,765.66,40.26,764.76z"/>
				</g>
				<g>
					<path class="st5" d="M40.26,205.57c0.01,13.27-0.01,26.54,0,39.81c-13.47,0.35-109.67-1.75-112.16,6.33
						c0.78,7.69,0.78,7.69,1.56,15.38c-23.11-2.03-45.91-7.29-69.32-7.24c-23.38,0.05-49.12,5.98-72.44,7.24
						c6.11-12.93-68.78-8.54-84.9-7.24c-29.2,2.36-32.47,10.66-34.27,10.86c-1.85,0.2-27.51-12.03-33.49,3.62
						c-12.86,0.03-25.46-1.47-38.16-1.81c-1.15-0.03-0.41,3.66-1.56,3.62c-45.09-1.41-90.45-11.45-135.52-14.48
						c-64.55-4.33-129.44-5.59-193.94-10.86c-22.17-1.81-44.21-6.62-66.2-9.05c-12.68-1.4-42.85,4.94-84.12-9.05
						c-14.89-5.05-34.62-18.54-38.94-19.91c-19.48-6.17-54.3-2-50.63-10.86C-635.78,200.83-297.78,205.68,40.26,205.57z"/>
					<path class="st7" d="M40.26,245.39c0.01,10.86-0.01,21.72,0,32.57c-36.99-2.14-73.68-7.62-110.6-10.86
						c-0.78-7.69-0.78-7.69-1.56-15.38C-69.41,243.63,26.79,245.74,40.26,245.39z"/>
				</g>
				<g>
					<path class="st8" d="M40.26,171.19c0.01,11.46-0.01,22.92,0,34.38c-338.04,0.1-676.04-4.75-1014.09-3.62
						c-6.04,0.02-11.21,1.78-17.14,1.81c-1.56-5.43-1.56-5.43-3.12-10.86c7.51-0.36,15.49-0.01,22.59-3.62
						c-21.57-1.02-43.06-1.5-64.65-1.81c-4.15-0.06-8.31,0.01-12.46,0c-0.52,0-1.04,0-1.56,0c8.39-9.45,49.09,7.51,21.81-15.38
						c7.79-1.36,7.79-1.36,15.58-2.71C-486.26,170.29-486.26,170.29,40.26,171.19z"/>
				</g>
				<g>
					<path class="st12" d="M-1126.49,220.05c6.87,2.23,13.31,5.25,20.25,7.24c17.81,14.2,73.22,33.3,90.35,16.29
						c32.48,3.36,65.56,5.92,98.14,1.81c91.91,2.71,91.91,2.71,183.81,5.43c64.5,5.27,129.39,6.52,193.94,10.86
						c45.08,3.03,90.43,13.07,135.52,14.48c1.15,0.04,0.41-3.65,1.56-3.62c12.71,0.34,25.3,1.84,38.16,1.81
						c31.31-0.08,62.22-2.08,93.46-3.62c0.39,1.81,0.39,1.81,0.78,3.62c103.6,9.87,207.41,16.22,310.77,30.76
						c0.01,22.32-0.01,44.64,0,66.96c-18.47-6-37.44-9.4-56.08-14.48c0.1-2.65-2.21-1.68-4.67-1.81c-13.73-0.7-27.18-5.66-40.5-9.05
						c-8.55-2.18-6.44-4.2-17.14-3.62c-0.51,0.03-1.04,0.02-1.56,0c0.1-2.61-2.23-1.74-4.67-1.81c-2.07-0.06-4.16,0.07-6.23,0
						c0.1-2.65-2.21-1.69-4.67-1.81c-16.97-0.86-34.7-7.16-51.41-10.86c-49.49-10.96-100.05-24.96-149.54-34.38
						c-19.95-3.8-53.58-9.27-41.28-1.81c11.66,0.98,23.58,2.99,35.05,5.43c49.96,10.63,99.89,21.98,149.54,34.38
						c64.79,16.18,129.17,34.28,193.16,54.29c0.02,30.16-0.01,60.32,0,90.48c-125.07-64.57-287.29-130.49-423.71-130.3
						c-52.32-10.94-104.58-21.15-157.33-28.95c-12.39-1.83-29.04-5.25-40.5-5.43c0.17-2.66-2.85-1.77-6.23-1.81
						c-19.31-0.25-34.78-5.17-51.41-5.43c0.07-2.98-3.07-1.42-6.23-1.81c-63.38-7.87-189.08-17.32-249.24-14.48
						c-3.1,0.15-6.26-0.24-9.35,0c-20.08-4.16-40.49-4.7-60.75-7.24c-5.17-0.65-10.5-1.08-15.58-1.81
						c-30.26-4.33-116.79-21.16-140.2-36.19c-7.7-4.95-15.13-15.2-14.02-25.34C-1129.49,217.31-1128.01,219.56-1126.49,220.05z"/>
					<path class="st7" d="M-146.67,328.63c16.71,3.7,34.44,10,51.41,10.86c-0.1,2.62,2.24,1.73,4.67,1.81
						c2.07,0.07,4.16-0.06,6.23,0c-0.1,2.63,2.24,1.72,4.67,1.81c0.51,0.02,1.04,0.03,1.56,0c8.57,1.81,8.57,1.81,17.14,3.62
						c13.32,3.39,26.77,8.35,40.5,9.05c-0.03,3.04,2.72,1.28,4.67,1.81c18.64,5.08,37.61,8.48,56.08,14.48c0,4.83,0,9.65,0,14.48
						c-63.99-20.01-128.37-38.1-193.16-54.29C-149.78,330.44-149.78,330.44-146.67,328.63z"/>
					<g>
						<path class="st25" d="M-70.34,267.1c36.92,3.24,73.61,8.72,110.6,10.86c0.01,9.05,0,18.1,0,27.14
							c-103.36-14.54-207.17-20.9-310.77-30.76c-0.39-1.81-0.39-1.81-0.78-3.62c19.8-0.98,39.42-2.56,59.19-3.62
							c23.31-1.25,49.06-7.19,72.44-7.24C-116.25,259.82-93.45,265.08-70.34,267.1z"/>
					</g>
					<g>
						<path class="st5" d="M40.26,477.02c0.01,20.51-0.01,41.02,0,61.53c-35.49-37.41-76.79-64.97-119.95-88.67
							c-5.45-2.71-5.45-2.71-10.9-5.43c-45.4-23.9-92.18-43.73-140.2-59.72c-20.63-6.87-41.39-12.6-62.31-18.1
							c-3.12-0.9-3.12-0.9-6.23-1.81c-28.2-7.25-55.79-12.17-84.12-18.1C-247.03,346.53-84.81,412.45,40.26,477.02z"/>
					</g>
				</g>
				<g>
					<path class="st9" d="M-90.59,444.45c3.56,1.87,7.78,3.71,10.9,5.43c43.16,23.71,84.46,51.26,119.95,88.67
						c0.01,19.3-0.01,38.61,0,57.91c-4.47-8.01-53.69-68.07-57.64-60.62c9.08,15.68-10.17,13.64-10.9,26.24
						c-1.61-2.1-4.25-4.83-6.23-7.24c6.17,2.55,17.54-9.98,15.58-19c-56.36-63.12-136.1-110.89-210.3-138.44
						c-0.78-6.33-0.78-6.33-1.56-12.67C-182.76,400.72-135.99,420.55-90.59,444.45z"/>
					<path class="st8" d="M40.26,596.46c0.02,56.1,0.02,112.2,0,168.3c-14.02,0.9-14.02,0.9-28.04,1.81
						c19.4-78.11,5.38-144.48-40.5-204.49c0.74-12.6,19.98-10.56,10.9-26.24C-13.42,528.39,35.79,588.45,40.26,596.46z"/>
				</g>
			</g>
		</g>
		<rect x="-1561.36" y="-288.29" class="st36" width="1602" height="1853"/>
		<rect x="-1559.36" y="-288.29" class="st37" width="1602" height="1853"/>
	</g>
</g>
<g class="st120">
	<g>
		<g id="Background_00000121272919796308573380000002174339293667721637_">
			<rect x="165.39" y="63.88" class="st1" width="1162.92" height="1350.98"/>
			<path class="st1" d="M498.24,64.05c50.11,38.15,104.05,71.15,158.97,98.93c59.51,30.11,116.59,51.49,179.4,69.91
				c49.55,14.53,91.35,24.18,141.93,32.98c40.34,7.01,80.88,12.82,121.5,17.15c73.17,7.8,146.77,12.82,220.28,10.55
				c-0.13,0.05,0.43,2.26-0.57,2.64c-8.88,3.33-34.99,6.79-32.36,21.77c20.44,0.33,20.44,0.33,40.88,0.66
				c0.01,7.47-0.01,14.95,0,22.42c-65.56,2.99-130.84,4.68-196.44,2.64c-58.43-1.81-116.98-8.14-175.43-9.23
				c-1.51,6.87-8.2,2.8-12.49,3.96c-1.8,0.48,1.15,3.72,0,3.96c-13.34,2.74-24.78-3.85-26.12-3.96c-15.74-1.3-34.07-0.35-49.96-1.32
				c-13.47-0.82-39.69-10.5-53.37,0c-37.35-3.93-75,8.02-111.28-5.28c-3.05,5.22-1.9-1.56-9.08-2.64
				c-10.35-1.55-12.7,1.97-17.03,1.32c-0.52-0.08-1.75-2.56-2.27-2.64c-42.48-6.4-84.37-12.93-126.6-21.11
				c-12.41-14.88,40.74,3.2,59.61,3.96c-5.63-18.35,29.7-4.82,32.36-15.17c0.65-2.51-8.88-7.17,11.92-3.3c0-1.98,0-1.98,0-3.96
				c-3.48,5.58-2.71-1.19-4.54-1.32c-1.95-0.14-2.64,3.83-7.95,2.64c-5.25-1.17-3.76-5.01-4.54-5.28
				c-19.31-6.64-23.09,0.18-18.74-31.66c69.54,22.83,129.52,36.84,200.98,48.81c53.05,8.88,106.17,15.24,159.53,21.11
				c15.81-0.51,46.21-14.68,34.06-22.42c-63.63-5.53-126.5-17.61-189.06-31.66c-38.96-8.75-76.41-17.86-114.68-30.34
				c-3.05-13.97-26.28-16.08-38.04-21.11c-18.7-8-37.75-16.36-56.21-25.06c-67.21-31.67-143.75-73.44-198.71-127.95
				C442.22,64.01,470.23,64.07,498.24,64.05z"/>
			<path class="st1" d="M1328.27,1240.68c-43.02,61.01-91.66,115.95-137.39,174.12c-65.1,0.16-130.2-0.06-195.3,0
				c114.6-113.29,235.39-220.46,332.69-354.84C1328.23,1120.2,1328.39,1180.44,1328.27,1240.68z"/>
			<path class="st1" d="M704.89,64.05c176.73,138.15,415.16,169.1,623.37,164.89c0.02,12.31-0.02,24.62,0,36.93
				c-10.13,1.48-56.61-0.11-60.75,1.32c-0.69,0.24-8.2,10.26-10.22,11.87c-0.39,0.31-6.63,0.68-9.08,2.64
				c-1.63,1.3,1.97,5.65-5.11,5.94c42.58,1.65,42.58,1.65,85.16,3.3c0,0.44,0,0.88,0,1.32c-2.73-0.33-5.41,0.28-7.95,1.32
				c-73.51,2.26-147.11-2.76-220.28-10.55c0.11-1.16-0.46-3.43,0.57-3.96c7.54-3.89,53.81-7.75,45.42-19.79
				c-54.19-2.28-107.57-12.88-160.67-25.06c-48.04-11.02-95.45-24.15-141.93-42.21c-55.57-21.59-111.15-49.96-163.51-80.46
				c-24.72-14.4-49.42-29.99-72.67-47.49C639.79,64.03,672.34,64.06,704.89,64.05z"/>
			<path class="st2" d="M508.46,371.4c26.63,1.91,52.89-0.79,79.48,0c113.11,3.34,226.05,12.45,338.94-1.32
				c200.69,0.66,200.69,0.66,401.39,1.32c0.01,9.23-0.01,18.47,0,27.7c-383.79-0.66-383.79-0.66-767.58-1.32
				c-197.57-0.66-197.57-0.66-395.14-1.32c0.01-9.67-0.01-19.35,0-29.02c47.53-0.49,95,0.98,142.5,0c-0.54-3.95-1.46-3.57,2.27-3.96
				c6.2-0.65,83.81,8.56,93.11,3.96c1.1-0.55,2.02-2.43,1.7-3.96c9.24,0.74,18.42,3.77,27.82,2.64c-6.29-4.07,5.36-3.62,19.3-2.64
				C471,364.8,489.65,370.05,508.46,371.4z"/>

				<linearGradient id="SVGID_00000026858779672436515810000013213317091285457848_" gradientUnits="userSpaceOnUse" x1="-2310.0923" y1="117.0448" x2="-2612.4075" y2="141.6758" gradientTransform="matrix(1.8594 0 0 1.8594 5606.8955 -95.1679)">
				<stop  offset="0" style="stop-color:#0080CC"/>
				<stop  offset="0.7771" style="stop-color:#1F5A78"/>
			</linearGradient>
			<path style="fill:url(#SVGID_00000026858779672436515810000013213317091285457848_);" d="M840.01,64.05
				c52.74,41.99,166.38,87.57,228.8,104.21c79.22,21.12,177.8,31.05,259.45,35.62c0.02,8.35-0.02,16.71,0,25.06
				c-208.21,4.21-446.65-26.74-623.37-164.89C749.93,64.03,794.97,64.02,840.01,64.05z"/>
			<path class="st4" d="M1131.83,343.7c65.6,2.04,130.88,0.35,196.44-2.64c0.01,10.11-0.01,20.23,0,30.34
				c-200.69-0.66-200.69-0.66-401.39-1.32c-112.89,13.77-225.83,4.66-338.94,1.32c-0.07-8.74-24.36-1.46-24.41-7.91
				c-13.31,5.55-8.48-0.44-10.22-1.32c-1.3-0.66-2.29,3.82-9.08,2.64c-0.28-0.05-4.26-3.94-4.54-3.96
				c-1.73-0.11-35.04,6.51-31.23,10.55c-18.81-1.35-37.45-6.6-56.21-7.91c-13.94-0.98-25.6-1.43-19.3,2.64
				c-9.39,1.13-18.58-1.9-27.82-2.64c-17.19-1.37-33.98-2.93-51.1-5.28c-0.71-4.73,4.15-1.68,7.38-2.64
				c4.15-1.23,9.15-5.87,13.63-6.6c15.4-2.5,47.15,3.06,55.64,1.32c6.16-1.26,9.33-6.71,13.63-7.91c7.76-2.17,18.27,0.61,21.57,0
				c7.73-1.42,17.75-7.6,24.98-7.91c2.06-0.09,27.64,5.71,40.88,2.64c1.97-0.46,13.36-9.86,23.84-10.55
				c11.07-0.73,62.04,10.14,79.48,11.87c15.37,1.53,31.26,0.01,46.55,1.32c8.08,0.69,16.99,4.57,24.98,5.28
				c22.69,2.02,45.59,2.87,68.13,0c65.02,13.03,129.47,14.69,194.17,22.42c-4.77-15.03,11.63-6.55,17.03-6.6
				c30.84-0.26,101.23,3.3,122.63-2.64C1110.47,357.67,1132.97,347.53,1131.83,343.7z"/>
			<path class="st5" d="M961.51,64.05c70.02,49.37,154.76,73.65,235.04,88.38c43.68,8.01,87.37,15.2,131.71,15.83
				c0.04,11.87-0.03,23.74,0,35.62c-81.65-4.56-180.23-14.49-259.45-35.62c-62.42-16.64-176.06-62.22-228.8-104.21
				C880.51,64.07,921.01,64.02,961.51,64.05z"/>
			<path class="st4" d="M547.06,306.76c0.37,0.07,0.77-0.07,1.14,0c42.23,8.17,84.12,14.7,126.6,21.11
				c0.52,0.08,1.75,2.56,2.27,2.64c4.34,0.65,6.69-2.87,17.03-1.32c7.19,1.08,6.04,7.86,9.08,2.64
				c36.28,13.3,73.92,1.34,111.28,5.28c13.67-10.5,39.89-0.82,53.37,0c15.89,0.97,34.22,0.02,49.96,1.32
				c1.33,0.11,12.78,6.7,26.12,3.96c1.15-0.24-1.8-3.47,0-3.96c4.29-1.15,10.98,2.91,12.49-3.96c58.45,1.09,117,7.42,175.43,9.23
				c1.14,3.83-21.36,13.98-23.28,14.51c-21.41,5.94-91.79,2.38-122.63,2.64c-5.4,0.05-21.81-8.44-17.03,6.6
				c-64.69-7.73-129.14-9.39-194.17-22.42c-22.54,2.87-45.43,2.02-68.13,0c-7.99-0.71-16.91-4.59-24.98-5.28
				c-15.3-1.31-31.18,0.21-46.55-1.32c-17.44-1.73-68.41-12.6-79.48-11.87c-10.49,0.69-21.87,10.09-23.84,10.55
				c-13.23,3.07-38.81-2.73-40.88-2.64c-7.23,0.31-17.25,6.49-24.98,7.91c-3.31,0.61-13.81-2.17-21.57,0
				c-4.29,1.2-7.47,6.65-13.63,7.91c-8.49,1.74-40.24-3.82-55.64-1.32c-4.48,0.73-9.48,5.37-13.63,6.6
				c-3.23,0.95-8.09-2.09-7.38,2.64c-12.87-1.77-25.78-2.92-38.61-5.28c-50.98-9.35-101.23-25.16-149.88-44.85
				c0.01-8.79-0.01-17.59,0-26.38c20.95,13.83,128.11,48.74,141.37,48.81c2.62,0.01,1.34-2.6,2.27-2.64
				c7.91-0.33,23.32-1.49,30.66-2.64c2.73-0.43,11.81-6.48,12.49-6.6c2.5-0.43,37.18,9.25,49.96,7.91
				c3.22-0.34,14.08-6.36,17.03-6.6c3.92-0.31,11.11,3.04,14.76,2.64c19.77-2.16,39.37-8.5,59.04-10.55
				C515.45,309.7,547.17,315.49,547.06,306.76z"/>
			<path class="st6" d="M961.51,64.05c122.25,0.1,244.5-0.07,366.76,0c0.12,21.1-0.16,42.21,0,63.32
				c-30.21,0.27-106.25-25.34-127.74-21.11c-10.49,2.07-13.49,26.38-13.06,28.36c0.39,1.81,10.83,11.36,9.08,17.81
				C1116.27,137.7,1031.53,113.42,961.51,64.05z"/>
			<path class="st7" d="M201.88,64.05c2.18,7.39,19.91,27.37,26.68,34.3c52.41,53.56,137.12,100.23,203.25,126.63
				c0.6-13.93-10.19-13.19-8.52-24.4c0.22-1.5,8.37-11.11,11.35-27.04c7.05,4.03,14.44,8.03,21.57,11.87
				c-5.57,1.51-5.34,14.34-7.38,15.83c-1.57,1.15-14.38-9.88-15.33,24.4c0.9,2.31,35.96,14.74,40.88,16.49
				c-17.92,11.52-19.33-1.11-23.28,0c-1.67,0.47-3.47,6.48-5.68,7.91c-7.56,4.92-16.45,6.34-23.28,13.19
				c-11.59-3.06-24.65-4.21-27.82-11.87c-2.88,9.28-1.83,0.25-2.27,0c-2.96-1.66-4.14,7.48-5.68-1.32
				c-2.41,3.57-15.82-0.08-21.01-1.32c0.28-1.32,0.28-1.32,0.57-2.64c-74.51-27.14-146.39-70.69-200.41-137.19
				c0.15-14.95-0.11-29.9,0-44.85C177.65,63.92,189.77,64.23,201.88,64.05z"/>
			<path class="st8" d="M285.9,64.05c44.71,43.9,96.25,79.49,148.75,109.48c-2.98,15.93-11.13,25.54-11.35,27.04
				c-1.68,11.21,9.11,10.48,8.52,24.4c-66.13-26.4-150.84-73.08-203.25-126.63c-6.78-6.93-24.51-26.91-26.68-34.3
				C229.87,63.63,257.91,64.14,285.9,64.05z"/>
			<path class="st8" d="M1328.27,1240.68c-0.12,58.04,0.09,116.08,0,174.12c-45.8,0.09-91.59-0.12-137.39,0
				C1236.6,1356.62,1285.25,1301.68,1328.27,1240.68z"/>
			<path class="st1" d="M216.64,201.23c79.57,50.48,158.34,68.31,246.4,88.38c-3.88,22.65-44.1,3.12-21.57,17.81
				c-3.34,11.97-12.43,6.64-21.57,5.94c2-2.85,0.67-4.64-1.7-6.6c-5.16-4.25-94.87-20.85-123.77-29.02
				c-43.78-12.37-86.42-30.14-128.88-47.49c0.04-21.54-0.07-43.09,0-64.64C182.75,177.38,199.08,190.09,216.64,201.23z"/>
			<path class="st6" d="M384.69,64.05c28.72,27.79,72.9,57.83,106.73,77.83c-1.01,31.04-29.6,30.58-28.39,46.17
				c-1.72-0.91-5.12-1.72-6.81-2.64c-7.13-3.85-14.53-7.85-21.57-11.87c-52.49-30-104.04-65.59-148.75-109.48
				C318.83,63.94,351.76,64.1,384.69,64.05z"/>
			<path class="st9" d="M419.89,313.36c9.15,0.7,18.23,6.04,21.57-5.94c-22.53-14.69,17.69,4.84,21.57-17.81
				c27.72,6.32,56.14,11.73,84.02,17.15c0.1,8.73-31.61,2.94-53.93,5.28c-19.67,2.06-39.28,8.39-59.04,10.55
				c-3.65,0.4-10.84-2.95-14.76-2.64c-2.95,0.24-13.81,6.26-17.03,6.6c-12.78,1.34-47.46-8.35-49.96-7.91
				c-0.68,0.12-9.76,6.17-12.49,6.6c-7.34,1.15-22.75,2.31-30.66,2.64c-0.93,0.04,0.35,2.65-2.27,2.64
				c-13.26-0.07-120.42-34.98-141.37-48.81c0.02-12.31-0.02-24.62,0-36.93c32.22,22.37,68.69,33.04,105.03,42.21
				C304.83,295.62,386.03,310.75,419.89,313.36z"/>
			<path class="st6" d="M607.24,64.05c23.25,17.49,47.95,33.08,72.67,47.49c11.19,17.68-11.82,16.93-17.03,25.72
				c-3.22,5.43,0.05,15.74-5.68,25.72c-54.91-27.78-108.86-60.79-158.97-98.93C534.57,64.01,570.91,64.07,607.24,64.05z"/>
			<path class="st8" d="M1328.27,127.36c0.1,13.63-0.04,27.26,0,40.89c-44.34-0.63-88.04-7.82-131.71-15.83
				c1.75-6.44-8.69-16-9.08-17.81c-0.43-1.98,2.56-26.29,13.06-28.36C1222.01,102.03,1298.06,127.64,1328.27,127.36z"/>
			<path class="st9" d="M419.89,313.36c-33.86-2.61-115.06-17.73-149.31-26.38c-36.34-9.17-72.81-19.84-105.03-42.21
				c0.01-4.84-0.01-9.67,0-14.51c42.46,17.35,85.09,35.11,128.88,47.49c28.89,8.17,118.61,24.77,123.77,29.02
				C420.56,308.71,421.89,310.51,419.89,313.36z"/>
			<path class="st5" d="M414.21,64.05c54.96,54.52,131.5,96.28,198.71,127.95c1.02,6.58-6.77,4.62-1.14,9.23
				c-16.84-7.24-33.41-14.32-49.96-22.42c-23.62-11.57-47.56-23.44-70.4-36.93c-33.83-19.99-78.02-50.03-106.73-77.83
				C394.53,64.03,404.37,64.06,414.21,64.05z"/>
			<path class="st4" d="M315.43,352.93c-2.25,8.43-9.64,10.44-16.46,10.55c-19.92,0.33-103.05-15.26-133.42-17.15
				c0.01-12.75-0.01-25.5,0-38.25C214.2,327.77,264.45,343.58,315.43,352.93z"/>
			<path class="st2" d="M315.43,352.93c12.82,2.35,25.74,3.51,38.61,5.28c17.12,2.35,33.91,3.9,51.1,5.28
				c0.32,1.53-0.6,3.41-1.7,3.96c-9.29,4.6-86.91-4.61-93.11-3.96c-3.73,0.39-2.81,0-2.27,3.96c-47.5,0.98-94.97-0.49-142.5,0
				c0.01-7.04-0.01-14.07,0-21.11c30.36,1.89,113.5,17.48,133.42,17.15C305.79,363.37,313.18,361.36,315.43,352.93z"/>
			<path class="st1" d="M365.39,248.72c-46.46-11.14-130.5-49.52-166.91-84.42c-11.82-11.33-20.75-26.17-32.93-36.93
				c0.05-6.15-0.06-12.31,0-18.47c54.03,66.49,125.9,110.04,200.41,137.19C365.67,247.4,365.67,247.4,365.39,248.72z"/>
			<path class="st9" d="M1328.27,265.87c0.01,8.35-0.01,16.71,0,25.06c-42.58-1.65-42.58-1.65-85.16-3.3
				c7.08-0.28,3.48-4.64,5.11-5.94c2.45-1.96,8.7-2.33,9.08-2.64c2.02-1.61,9.53-11.63,10.22-11.87
				C1271.65,265.76,1318.13,267.35,1328.27,265.87z"/>
			<path class="st5" d="M198.47,164.3c-3.85,14.5,19.71,14.02,18.17,36.93c-17.56-11.14-33.89-23.85-51.1-35.62
				c0.04-12.75-0.1-25.5,0-38.25C177.73,138.13,186.65,152.97,198.47,164.3z"/>
			<path class="st4" d="M1328.27,292.25c0.01,8.79-0.01,17.59,0,26.38c-20.44-0.33-20.44-0.33-40.88-0.66
				c-2.63-14.98,23.48-18.43,32.36-21.77c1-0.37,0.44-2.59,0.57-2.64C1322.86,292.53,1325.54,291.92,1328.27,292.25z"/>
			<path class="st9" d="M365.39,248.72c5.19,1.24,18.59,4.89,21.01,1.32c1.53,8.8,2.72-0.34,5.68,1.32c0.44,0.25-0.61,9.28,2.27,0
				c3.17,7.66,16.23,8.81,27.82,11.87c10.32,2.72,88.97,19.22,93.68,18.47c0.67-0.11,10.32-5.1,11.92-7.26
				c0.48-0.65-0.27-3.61,6.81-15.17c14.59,3.93,31.5,13.56,30.09,5.28c-54.08-21.7-12.21-9.38-6.25-31.66
				c10.93,4.27,22.93,7.95,34.06,11.87c7.9,2.78,15.9,5.31,23.84,7.91c-4.35,31.84-0.57,25.02,18.74,31.66
				c0.78,0.27-0.7,4.1,4.54,5.28c5.31,1.19,6-2.78,7.95-2.64c1.83,0.13,1.06,6.9,4.54,1.32c0,1.98,0,1.98,0,3.96
				c-20.8-3.87-11.28,0.79-11.92,3.3c-2.66,10.35-37.99-3.18-32.36,15.17c-18.87-0.76-72.02-18.83-59.61-3.96
				c-0.37-0.07-0.77,0.07-1.14,0c-27.89-5.41-56.31-10.83-84.02-17.15c-88.05-20.06-166.82-37.9-246.4-88.38
				c1.54-22.91-22.02-22.43-18.17-36.93C234.88,199.2,318.93,237.58,365.39,248.72z"/>
			<path class="st8" d="M843.42,192c-1.98,13.16-12.97,4.03-17.03,21.77c-1.61,8.71,14.63,3.83,10.22,19.13
				c-62.81-18.42-119.89-39.8-179.4-69.91c5.73-9.98,2.46-20.29,5.68-25.72c5.21-8.79,28.22-8.04,17.03-25.72
				C732.27,142.04,787.85,170.41,843.42,192z"/>
			<path class="st5" d="M707.16,238.17c38.27,12.48,75.72,21.59,114.68,30.34c6.61,12.84-1.67,18.66-4.54,32.98
				c-71.46-11.97-131.44-25.97-200.98-48.81c-7.95-2.61-15.94-5.13-23.84-7.91c15.68-18.13,25.28-13.81,26.68-14.51
				c6.18-3.08,0.75-9.8,7.38-21.11C652.81,219.96,680.32,229.41,707.16,238.17z"/>
			<path class="st8" d="M985.35,234.21c-12.01,10.68-20.35,3.47-6.81,31.66c-50.58-8.8-92.38-18.44-141.93-32.98
				c4.41-15.29-11.83-10.42-10.22-19.13c4.06-17.73,15.05-8.61,17.03-21.77C889.91,210.06,937.31,223.19,985.35,234.21z"/>
			<path class="st9" d="M817.3,301.48c2.87-14.32,11.15-20.13,4.54-32.98c62.55,14.05,125.43,26.12,189.06,31.66
				c12.15,7.75-18.26,21.92-34.06,22.42C923.47,316.73,870.35,310.37,817.3,301.48z"/>
			<path class="st5" d="M1100.04,283.02c-40.61-4.33-81.16-10.13-121.5-17.15c-13.53-28.19-5.2-20.98,6.81-31.66
				c53.1,12.18,106.48,22.79,160.67,25.06c8.39,12.04-37.88,15.89-45.42,19.79C1099.58,279.59,1100.14,281.86,1100.04,283.02z"/>
			<path class="st9" d="M707.16,238.17c-26.84-8.76-54.35-18.2-80.62-29.02c-3.73-1.54-10.95-6.28-14.76-7.91
				c-5.63-4.61,2.15-2.65,1.14-9.23c18.46,8.7,37.5,17.07,56.21,25.06C680.88,222.09,704.11,224.2,707.16,238.17z"/>
			<path class="st2" d="M587.94,371.4c-26.59-0.79-52.85,1.91-79.48,0c-3.81-4.04,29.5-10.67,31.23-10.55
				c0.28,0.02,4.26,3.91,4.54,3.96c6.79,1.18,7.78-3.29,9.08-2.64c1.74,0.87-3.1,6.87,10.22,1.32
				C563.58,369.94,587.87,362.65,587.94,371.4z"/>
			<path class="st5" d="M463.04,188.04c24.36,12.87,48.61,25.07,73.81,35.62c7.15,3,14.4,6.43,21.57,9.23
				c-5.96,22.27-47.83,9.95,6.25,31.66c1.41,8.28-15.5-1.34-30.09-5.28c-9.84-2.65-24.52-4.56-31.23-6.6
				c-4.55-1.39-15.84-8.07-19.3-9.23c-2.14-0.72-7.38-0.51-9.65-1.32c-4.92-1.75-39.97-14.18-40.88-16.49
				c0.95-34.28,13.76-23.26,15.33-24.4c2.04-1.49,1.81-14.32,7.38-15.83C457.92,186.32,461.32,187.14,463.04,188.04z"/>
			<path class="st5" d="M474.39,242.13c2.27,0.81,7.51,0.6,9.65,1.32c3.47,1.16,14.75,7.85,19.3,9.23c6.7,2.04,21.39,3.94,31.23,6.6
				c-7.08,11.56-6.33,14.52-6.81,15.17c-1.6,2.15-11.26,7.15-11.92,7.26c-4.71,0.76-83.35-15.74-93.68-18.47
				c6.83-6.85,15.72-8.27,23.28-13.19c2.21-1.44,4.01-7.44,5.68-7.91C455.06,241.02,456.47,253.65,474.39,242.13z"/>
			<path class="st8" d="M561.82,178.81c5.96,14.2-16.02,33.28-24.98,44.85c-25.19-10.55-49.44-22.74-73.81-35.62
				c-1.22-15.59,27.37-15.13,28.39-46.17C514.27,155.37,538.21,167.24,561.82,178.81z"/>
			<path class="st8" d="M611.78,201.23c3.81,1.64,11.03,6.38,14.76,7.91c-6.63,11.3-1.2,18.02-7.38,21.11
				c-1.4,0.7-11-3.62-26.68,14.51c-11.13-3.92-23.14-7.6-34.06-11.87c-7.18-2.8-14.42-6.24-21.57-9.23
				c8.96-11.57,30.94-30.65,24.98-44.85C578.38,186.92,594.95,193.99,611.78,201.23z"/>
		</g>
		<g>
			<path class="st8" d="M1328.27,988.73c-0.01,23.74,0.02,47.49,0,71.23c-97.3,134.38-218.09,241.55-332.69,354.84
				c-25.74,0.02-51.47-0.02-77.21,0c1.99-3.3,1.99-3.3,3.97-6.6C1065.28,1279.4,1215.63,1155.5,1328.27,988.73z"/>
			<path class="st10" d="M165.55,604.88c0-3.08,0-6.16,0-9.23c107.09-24.27,108.42-59.6,0-80.46c0-3.52,0-7.04,0-10.55
				C378.45,526.91,353.41,566.72,165.55,604.88z"/>
			<path class="st5" d="M165.55,595.64c0.01-26.82-0.01-53.64,0-80.46C273.96,536.04,272.64,571.37,165.55,595.64z"/>
			<path class="st5" d="M746.91,515.18c-2.55,0.66-2.55,0.66-5.11,1.32c-6.28,14.59,35.25,17.24,45.42,21.11
				c0.98,0.37-2.68,3.14,2.84,5.28c-1.7,1.32-1.7,1.32-3.41,2.64c-13.16-5.19-26.17-9.68-39.74-13.19
				c-10.76-7.82-29.44-16.54-42.01-19.79c-0.08-0.62-2.13-2.56-2.27-2.64C709.74,506.76,730,512.59,746.91,515.18z"/>
			<path class="st5" d="M828.66,495.39c-0.12,1.94,2.08,1.28,4.54,1.32c12.12,0.19,23.39,3.77,37.47,3.96
				c-0.12,1.94,2.08,1.28,4.54,1.32c8.35,0.13,20.49,2.62,29.52,3.96c-1.41,10.04-4.47,5.92-12.49,6.6
				c-33.18-5.44-66.57-6.49-99.92-9.23c-6.46-0.53-12.91-0.75-19.3-1.32c-10.22-0.91-20.43-1.73-30.66-2.64
				c-16.94-1.5-81.99-6.86-91.41-10.55c-0.25-0.1-3.25-3.14-3.97-3.96C690.84,482.76,782.46,489.66,828.66,495.39z"/>
			<path class="st7" d="M584.53,478.24c5.68,0.66,5.68,0.66,11.35,1.32c14.77,1.85,29.65,2.24,44.28,5.28
				c-5.99,0.46-16.36-2.42-15.9,7.91c-15.16-2.35-30.29-5.29-45.42-7.91c-14.48-2.51-32.62-3.86-45.42-6.6
				c-5.94-1.27-12.31-2.4-18.17-3.96c-12.3-3.28-25.81-8.85-37.47-14.51c2.27-3.96,2.27-3.96,4.54-7.91
				C499.4,462.82,562.48,475.08,584.53,478.24z"/>
			<path class="st1" d="M640.17,484.84c2.25-0.17,4.55,0.11,6.81,0c0.72,0.82,3.73,3.86,3.97,3.96c9.41,3.69,74.46,9.05,91.41,10.55
				c-1.14,4.62-1.14,4.62-2.27,9.23c-18.55-2.82-37.14-5.1-55.64-7.91c-19.98-3.04-40.23-4.82-60.18-7.91
				C623.81,482.42,634.18,485.3,640.17,484.84z"/>
			<path class="st11" d="M483.48,417.56c-4,2.76-10.75,10.27-11.35,15.83c-0.81,7.39,4.6,14.86,10.22,18.47
				c-2.27,3.96-2.27,3.96-4.54,7.91c-3.62-1.76-11.9-4.91-12.49-5.28C425,429.67,459,421.05,483.48,417.56z"/>
			<path class="st12" d="M515.27,474.29c5.86,1.56,12.22,2.69,18.17,3.96c10.54,4.29,7.9,7.62,8.52,7.91
				c3.38,1.63,31.98,6.35,36.9-1.32c15.13,2.62,30.26,5.57,45.42,7.91c19.95,3.09,40.2,4.88,60.18,7.91c5.04,5.15,12.4,6,18.17,9.23
				c0.14,0.08,2.19,2.02,2.27,2.64c-29.68-7.67-93.37-8.87-130.01-18.47c-8.8,0.66-8.8,0.66-17.6,1.32
				c-19.64-4.11-39.46-7.46-59.04-11.87c1.7-1.98,1.7-1.98,3.41-3.96C513.95,480.59,505.93,475.38,515.27,474.29z"/>
			<path class="st13" d="M441.46,412.29c3.54,10.72-21.27,4.44-11.35,10.55c-5.41,1.56-19.13,4.97-22.71,9.23
				c-2.26-3.9-16.47-2.43-24.98-2.64c-1.2-0.03-0.97-2.32-5.68-2.64c1.53-13.89,20.4-6.16,22.71-11.87
				c3.6-0.21,7.54-1.13,11.35-1.32C420.96,413.09,431.3,412.67,441.46,412.29z"/>
			<path class="st14" d="M399.45,414.93c-2.31,5.71-21.18-2.01-22.71,11.87c-3.36-0.23-10.59,2.18-13.63,3.96
				c-0.4-1.73-7.52-3.91-7.95-3.96c0.31-5.03,9.79-8.49,1.14-9.23C372.78,415.72,383.55,415.84,399.45,414.93z"/>
			<g>
				<path class="st12" d="M1144.32,585.09c41.4,19.93,82.06,44.75,115.82,79.15c2.27,2.64,2.27,2.64,4.54,5.28
					c2.85,3.08,6.42,5.98,9.08,9.23c1.44,1.76,3.37,3.75,4.54,5.28c33.45,43.74,43.67,92.12,29.52,149.06
					c-32.91,132.47-231.51,303.56-327.58,383.86c-82.18,68.69-168.07,131.31-251.51,197.86c-81.75-0.04-163.51,0.08-245.26,0
					c78.11-56.41,160.01-106.07,239.02-160.93c128.51-89.23,319.78-225.26,418.42-349.56c21.1-15.32,66.94-95.64,71.53-142.46
					c7.35-74.91-36.74-133.97-90.84-167.52c5.52-11.88,6.12-6.01,15.33-6.6C1137.79,587.67,1146.26,586.01,1144.32,585.09z"/>
				<path class="st12" d="M1198.82,717c9.18,67.84-30.39,129.09-68.13,175.44c-124.93,153.44-411.42,332.87-575.68,439.26
					c5.07-11.82,5.91-24.86-5.11-32.98c-4.49,4.77-30.45,18.39-31.79,19.79c-1.67,1.74-3.05,10.17-3.41,10.55
					c-2.27,2.48-15.35,8.73-17.03,1.32c-42.75,29.15-88.75,52.83-130.01,84.42c-38.61-0.06-77.21,0.17-115.82,0
					c112.34-70.19,228.19-132.97,341.21-201.82c134.33-81.84,455.83-275.06,529.7-420.13c27.84-54.67,27.87-113.18-11.35-160.27
					c2.4-4.35,8.64-6.21,10.22-11.21c1.86-5.89-1.58-9.22,1.14-13.85C1155.84,632.85,1192.31,668.83,1198.82,717z"/>
				<path class="st10" d="M1111.39,632.58c39.22,47.09,39.19,105.6,11.35,160.27c-73.86,145.07-395.37,338.29-529.7,420.13
					c-113.02,68.85-228.87,131.63-341.21,201.82c-28.76-0.13-57.53,0.1-86.3,0c-0.14-10.11,0.19-20.24,0-30.34
					c219.68-121.59,604.65-316.27,793.13-473.55c45.28-37.78,132.68-117.94,142.5-184.01c20.07-135.06-156.35-176.13-237.31-195.89
					c-9.44-2.3-18.98-4.11-28.39-6.6c6.16,0.98,14.83-0.97,21.01,0C938.06,537.18,1051.34,560.48,1111.39,632.58z"/>
				<path class="st15" d="M1328.27,988.73c-112.63,166.76-262.99,290.67-405.93,419.47c-1.99,3.3-1.99,3.3-3.97,6.6
					c-38.98,0.02-77.97-0.02-116.95,0c158.98-129.45,461.4-341.84,526.86-555.34C1328.25,902.55,1328.29,945.64,1328.27,988.73z"/>
				<path class="st16" d="M1328.27,831.76c0,9.23,0,18.47,0,27.7c-65.46,213.5-367.88,425.89-526.86,555.34
					c-24.22,0.01-48.45,0.01-72.67,0c83.44-66.55,169.33-129.18,251.51-197.86c96.07-80.3,294.68-251.39,327.58-383.86
					C1318.05,832.42,1318.05,832.42,1328.27,831.76z"/>
				<path class="st12" d="M555.01,1331.69c-42.47,27.5-84.52,55.96-127.17,83.1c-20.06-0.02-40.12,0.03-60.18,0
					c41.26-31.6,87.26-55.27,130.01-84.42c1.69,7.41,14.77,1.16,17.03-1.32c0.35-0.39,1.73-8.81,3.41-10.55
					c1.34-1.4,27.31-15.02,31.79-19.79C560.92,1306.83,560.08,1319.88,555.01,1331.69z"/>
				<path class="st12" d="M892.25,512.54c44.26,0.95,150.55,36.01,171.46,38.25c26.79,12.14,53.99,21.48,80.62,34.3
					c1.94,0.92-6.53,2.58-7.38,2.64c-9.2,0.58-9.81-5.29-15.33,6.6c-18.42-11.42-61.37-28.94-82.89-34.96
					c29.46,12.55,57.77,28.04,84.02,48.15c-2.71,4.63,0.72,7.96-1.14,13.85c-1.58,5.01-7.82,6.86-10.22,11.21
					c-60.05-72.1-173.33-95.4-254.91-108.17c-6.18-0.97-14.84,0.98-21.01,0c-19.22-3.04-32.17-7.28-36.34-7.91
					c-2.29-4.65-7.34,0.68-6.81-13.19C825.67,506.05,859.07,507.1,892.25,512.54z"/>
				<g>
					<path class="st10" d="M1140.91,904.31c-98.64,124.3-289.91,260.32-418.42,349.56c-79,54.86-160.91,104.52-239.02,160.93
						c-18.55-0.02-37.09,0.02-55.64,0c42.65-27.14,84.71-55.6,127.17-83.1c164.26-106.39,450.75-285.81,575.68-439.26
						c-3.47,14.21,2.66,9.54,6.25,15.83C1138.14,906.67,1139.35,905.45,1140.91,904.31z"/>
					<path class="st10" d="M1212.45,761.85c-4.6,46.82-50.44,127.14-71.53,142.46c-1.57,1.14-2.77,2.36-3.97,3.96
						c-3.59-6.29-9.71-1.62-6.25-15.83c37.74-46.35,77.3-107.6,68.13-175.44C1205.92,728.99,1211.51,746.2,1212.45,761.85z"/>
					<path class="st10" d="M1121.61,594.32c54.09,33.56,98.19,92.62,90.84,167.52c-0.94-15.65-6.53-32.86-13.63-44.85
						c-6.51-48.17-42.98-84.14-76.08-109.48c-26.26-20.1-54.56-35.6-84.02-48.15C1060.24,565.39,1103.19,582.9,1121.61,594.32z"/>
				</g>
				<path class="st5" d="M451.68,463.73c-1.7,3.3-1.7,3.3-3.41,6.6c-36.51-9.37-95.52-13.12-65.86-40.89
					c8.51,0.2,22.72-1.26,24.98,2.64c-8.39,10.01,2.17,22.24,10.79,26.38c30.4,14.62-0.72-8.12-2.84-13.85
					c-6.65-17.99,21.09-16.63,29.52-21.77c9.96,4.96-29.21,10.68-26.12,19.13C429.17,446.48,443.76,459.78,451.68,463.73z"/>
				<path class="st17" d="M533.44,410.97c0.38,0,0.76,0,1.14,0c4.54,0,4.54,0,9.08,0c15.73,0.23,31.4,0.58,47.12,1.32
					c-5.17,2.63-10.99,2.38-16.46,2.64c-18.48,0.89-37.15-0.88-55.64,0c-11.83,0.56-23.42,0.96-35.2,2.64
					c-24.48,3.48-58.48,12.1-18.17,36.93c-5.38,2.39-7.02,4.28-9.08,10.55c-3.1-1.41-4.33-1.21-4.54-1.32
					c-7.93-3.95-22.52-17.25-32.93-21.77c-3.09-8.45,36.08-14.17,26.12-19.13c0-0.66,0-0.66,0-1.32c2.27-0.54,23.21-8.14,19.3-9.23
					C487.26,411.72,510.34,410.96,533.44,410.97z"/>
			</g>
			<g>
				<path class="st5" d="M1328.27,424.16c0.01,9.67-0.01,19.35,0,29.02c-9.82,0.25-79.94-1.28-81.75,4.62
					c0.57,5.61,0.57,5.61,1.14,11.21c-16.85-1.48-33.47-5.31-50.53-5.28c-17.04,0.03-35.81,4.36-52.8,5.28
					c4.45-9.42-50.13-6.23-61.88-5.28c-21.29,1.72-23.67,7.77-24.98,7.91c-1.35,0.15-20.06-8.77-24.41,2.64
					c-9.38,0.02-18.56-1.07-27.82-1.32c-0.84-0.02-0.3,2.66-1.14,2.64c-32.87-1.02-65.93-8.35-98.79-10.55
					c-47.05-3.16-94.35-4.07-141.37-7.91c-16.16-1.32-32.22-4.83-48.26-6.6c-9.24-1.02-31.24,3.6-61.32-6.6
					c-10.85-3.68-25.24-13.51-28.39-14.51c-14.2-4.5-39.58-1.46-36.9-7.91C835.48,420.7,1081.86,424.23,1328.27,424.16z"/>
				<path class="st7" d="M1328.27,453.18c0.01,7.91,0,15.83,0,23.74c-26.96-1.56-53.71-5.55-80.62-7.91
					c-0.57-5.61-0.57-5.61-1.14-11.21C1248.32,451.9,1318.45,453.43,1328.27,453.18z"/>
				<path class="st5" d="M518.68,414.93c4.15,4.73,26.4,7.34,35.77,7.91c1.04,0.06,1.94-3.96,2.27-3.96c1.08,0-5.58,4.1,19.87,3.96
					c4.32-0.02,8.09-1.3,12.49-1.32c-2.68,6.46,22.71,3.42,36.9,7.91c3.15,1,17.53,10.83,28.39,14.51
					c30.08,10.19,52.07,5.58,61.32,6.6c16.03,1.77,32.1,5.28,48.26,6.6c-66.99-1.98-66.99-1.98-133.99-3.96
					c-53.39-3.94-62.52-18.5-78.92-23.74c-4.94-1.58-46.41-9.53-44.85,0c-1.49-0.14-27.97,1.69-28.39,5.28
					c-1.11-0.36-2.19-2-5.68-1.32c0.61-5.56,7.35-13.07,11.35-15.83C495.26,415.89,506.85,415.49,518.68,414.93z"/>
				<path class="st1" d="M629.95,453.18c-23.75,3-47.86,1.13-71.53-1.32c-8.85-0.92-17.35-2.51-26.12-3.96
					c-0.57-2.97-0.57-2.97-1.14-5.94c13.99-1.69-16.3-11.72-24.98-12.53c-1.56-9.53,39.91-1.58,44.85,0
					C567.43,434.68,576.57,449.24,629.95,453.18z"/>
				<path class="st7" d="M1144.32,469.01c-14.41,0.77-28.72,1.93-43.15,2.64c-22.77,1.13-45.31,2.58-68.13,2.64
					c4.36-11.41,23.06-2.49,24.41-2.64c1.31-0.14,3.69-6.19,24.98-7.91C1094.19,462.78,1148.77,459.58,1144.32,469.01z"/>
				<path class="st5" d="M506.19,429.44c8.68,0.81,38.97,10.85,24.98,12.53c0.57,2.97,0.57,2.97,1.14,5.94
					c-13.21-2.17-26.77-4.19-39.74-7.91c-5.06-1.45-9.75-3.65-14.76-5.28C478.22,431.12,504.69,429.3,506.19,429.44z"/>
				<path class="st7" d="M574.31,414.93c1.14,3.96,1.14,3.96,2.27,7.91c-25.45,0.15-18.79-3.96-19.87-3.96
					c-0.33,0-1.24,4.02-2.27,3.96c-9.37-0.58-31.62-3.18-35.77-7.91C537.16,414.04,555.83,415.81,574.31,414.93z"/>
			</g>
			<g>
				<path class="st8" d="M1328.27,399.1c0.01,8.35-0.01,16.71,0,25.06c-246.4,0.07-492.78-3.46-739.19-2.64
					c-4.4,0.01-8.17,1.29-12.49,1.32c-1.14-3.96-1.14-3.96-2.27-7.91c5.47-0.26,11.29-0.01,16.46-2.64
					c-15.72-0.74-31.39-1.09-47.12-1.32c-3.03-0.04-6.06,0.01-9.08,0c-0.38,0-0.76,0-1.14,0c6.11-6.89,35.78,5.48,15.9-11.21
					c5.68-0.99,5.68-0.99,11.35-1.98C944.48,398.44,944.48,398.44,1328.27,399.1z"/>
				<path class="st8" d="M560.69,397.78c-5.68,0.99-5.68,0.99-11.35,1.98c19.89,16.69-9.78,4.32-15.9,11.21
					c-23.1-0.01-46.18,0.75-69.26,1.32c-7.56,0.19-15.16-0.28-22.71,0c-10.16,0.38-20.5,0.81-30.66,1.32
					c0.01-0.83-2.66-2.61-2.84-2.64c-6.3-1.02-71.45-1.45-86.3-1.32c-52.04,0.46-104.05,5.91-156.13,5.28c0-6.16,0-12.31,0-18.47
					C363.12,397.12,363.12,397.12,560.69,397.78z"/>
				<path class="st18" d="M543.66,410.97c-4.54,0-4.54,0-9.08,0C537.6,410.97,540.63,410.93,543.66,410.97z"/>
			</g>
			<path class="st19" d="M773.02,501.99c1.14,5.94,1.14,5.94,2.27,11.87c-11.73-1.77-23.47-3.49-35.2-5.28
				c1.14-4.62,1.14-4.62,2.27-9.23C752.59,500.25,762.8,501.07,773.02,501.99z"/>
			<path class="st20" d="M792.32,503.31c-0.53,13.87,4.52,8.54,6.81,13.19c-7.63-1.16-15.09-1.49-22.71-2.64
				c-0.37-0.06-0.76,0.06-1.14,0c-1.14-5.94-1.14-5.94-2.27-11.87C779.41,502.56,785.87,502.77,792.32,503.31z"/>
			<path class="st5" d="M464.17,412.29c3.91,1.1-17.03,8.69-19.3,9.23c-3.1,0.74-7.75-0.7-14.76,1.32
				c-9.92-6.11,14.89,0.17,11.35-10.55C449.02,412,456.61,412.47,464.17,412.29z"/>
			<g>
				<path class="st12" d="M477.8,434.71c5.01,1.63,9.7,3.82,14.76,5.28c12.98,10.35,53.37,24.27,65.86,11.87
					c23.68,2.45,47.79,4.32,71.53,1.32c66.99,1.98,66.99,1.98,133.99,3.96c47.01,3.84,94.31,4.76,141.37,7.91
					c32.86,2.21,65.92,9.53,98.79,10.55c0.84,0.03,0.3-2.66,1.14-2.64c9.26,0.25,18.44,1.34,27.82,1.32
					c22.82-0.06,45.35-1.51,68.13-2.64c0.28,1.32,0.28,1.32,0.57,2.64c75.51,7.19,151.18,11.83,226.53,22.42
					c0.01,16.27-0.01,32.54,0,48.81c-13.46-4.37-27.29-6.85-40.88-10.55c0.07-1.93-1.61-1.23-3.41-1.32
					c-10.01-0.51-19.81-4.12-29.52-6.6c-6.23-1.59-4.7-3.06-12.49-2.64c-0.37,0.02-0.76,0.01-1.14,0c0.07-1.9-1.63-1.27-3.41-1.32
					c-1.51-0.04-3.03,0.05-4.54,0c0.08-1.93-1.61-1.23-3.41-1.32c-12.37-0.62-25.29-5.22-37.47-7.91
					c-36.08-7.99-72.93-18.19-109.01-25.06c-14.54-2.77-39.06-6.76-30.09-1.32c8.5,0.71,17.19,2.18,25.55,3.96
					c36.41,7.75,72.81,16.02,109.01,25.06c47.22,11.8,94.15,24.99,140.8,39.57c0.01,21.98-0.01,43.97,0,65.95
					c-91.17-47.07-209.41-95.12-308.85-94.97c-38.14-7.98-76.23-15.42-114.68-21.11c-9.03-1.34-21.17-3.82-29.52-3.96
					c0.13-1.94-2.08-1.29-4.54-1.32c-14.08-0.18-25.35-3.77-37.47-3.96c0.05-2.17-2.24-1.03-4.54-1.32
					c-46.2-5.73-137.82-12.63-181.68-10.55c-2.26,0.11-4.56-0.17-6.81,0c-14.64-3.03-29.52-3.43-44.28-5.28
					c-3.77-0.47-7.65-0.79-11.35-1.32c-22.06-3.16-85.13-15.42-102.19-26.38c-5.61-3.61-11.03-11.08-10.22-18.47
					C475.61,432.71,476.69,434.35,477.8,434.71z"/>
				<path class="st7" d="M1192.01,513.86c12.18,2.7,25.1,7.29,37.47,7.91c-0.07,1.91,1.63,1.26,3.41,1.32
					c1.51,0.05,3.03-0.04,4.54,0c-0.07,1.92,1.63,1.26,3.41,1.32c0.37,0.01,0.76,0.02,1.14,0c6.25,1.32,6.25,1.32,12.49,2.64
					c9.71,2.47,19.51,6.09,29.52,6.6c-0.02,2.22,1.98,0.93,3.41,1.32c13.58,3.7,27.42,6.18,40.88,10.55c0,3.52,0,7.04,0,10.55
					c-46.64-14.59-93.57-27.78-140.8-39.57C1189.74,515.18,1189.74,515.18,1192.01,513.86z"/>
				<path class="st21" d="M532.3,447.9c8.77,1.44,17.27,3.04,26.12,3.96c-12.49,12.4-52.88-1.52-65.86-11.87
					C505.53,443.71,519.09,445.73,532.3,447.9z"/>
				<path class="st11" d="M1192.01,513.86c-2.27,1.32-2.27,1.32-4.54,2.64c-36.19-9.04-72.59-17.32-109.01-25.06
					c2.27-1.32,2.27-1.32,4.54-2.64C1119.08,495.67,1155.93,505.87,1192.01,513.86z"/>
				<path class="st22" d="M595.89,479.56c-5.68-0.66-5.68-0.66-11.35-1.32C588.23,478.77,592.12,479.09,595.89,479.56z"/>
				<path class="st23" d="M875.21,501.99c-2.46-0.04-4.67,0.62-4.54-1.32C873.13,500.7,875.34,500.05,875.21,501.99z"/>
				<path class="st24" d="M833.2,496.71c-2.46-0.04-4.67,0.62-4.54-1.32C830.96,495.68,833.25,494.54,833.2,496.71z"/>
				<g>
					<path class="st25" d="M1247.65,469.01c26.91,2.36,53.66,6.36,80.62,7.91c0,6.6,0,13.19,0,19.79
						c-75.34-10.6-151.01-15.23-226.53-22.42c-0.28-1.32-0.28-1.32-0.57-2.64c14.43-0.71,28.74-1.86,43.15-2.64
						c16.99-0.91,35.76-5.24,52.8-5.28C1214.18,463.7,1230.8,467.53,1247.65,469.01z"/>
					<path class="st26" d="M1083,488.8c-2.27,1.32-2.27,1.32-4.54,2.64c-8.36-1.78-17.05-3.25-25.55-3.96
						C1043.95,482.04,1068.46,486.03,1083,488.8z"/>
					<path class="st22" d="M1254.46,527.05c-6.24-1.32-6.24-1.32-12.49-2.64C1249.76,523.98,1248.23,525.46,1254.46,527.05z"/>
					<path class="st27" d="M1232.89,523.09c-1.78-0.06-3.48,0.59-3.41-1.32C1231.28,521.86,1232.96,521.16,1232.89,523.09z"/>
					<path class="st17" d="M1240.83,524.41c-1.77-0.06-3.48,0.6-3.41-1.32C1239.21,523.14,1240.91,522.51,1240.83,524.41z"/>
					<path class="st28" d="M1287.39,534.96c-1.43-0.39-3.43,0.9-3.41-1.32C1285.78,533.74,1287.46,533.03,1287.39,534.96z"/>
				</g>
				<g>
					<path class="st5" d="M1328.27,622.02c0.01,14.95-0.01,29.9,0,44.85c-25.87-27.27-55.97-47.36-87.43-64.64
						c-3.97-1.98-3.97-1.98-7.95-3.96c-33.1-17.42-67.19-31.88-102.19-43.53c-15.03-5.01-30.17-9.18-45.42-13.19
						c-2.27-0.66-2.27-0.66-4.54-1.32c-20.55-5.28-40.67-8.87-61.32-13.19C1118.85,526.9,1237.1,574.95,1328.27,622.02z"/>
					<path class="st29" d="M1240.83,602.24c-2.27-1.25-5.36-2.59-7.95-3.96C1236.86,600.26,1236.86,600.26,1240.83,602.24z"/>
				</g>
			</g>
			<g>
				<path class="st9" d="M1232.89,598.28c2.59,1.37,5.67,2.71,7.95,3.96c31.46,17.28,61.56,37.36,87.43,64.64
					c0,14.07-0.01,28.14,0,42.21c-3.26-5.84-39.13-49.62-42.01-44.19c6.61,11.43-7.41,9.94-7.95,19.13
					c-1.17-1.53-3.1-3.52-4.54-5.28c4.5,1.86,12.79-7.28,11.35-13.85c-41.08-46.01-99.21-80.83-153.29-100.91
					c-0.57-4.62-0.57-4.62-1.14-9.23C1165.7,566.4,1199.79,580.86,1232.89,598.28z"/>
				<path class="st8" d="M1328.27,709.08c0.01,40.89,0.02,81.78,0,122.68c-10.22,0.66-10.22,0.66-20.44,1.32
					c14.14-56.93,3.93-105.32-29.52-149.06c0.54-9.18,14.56-7.7,7.95-19.13C1289.13,659.47,1325.01,703.24,1328.27,709.08z"/>
				<path class="st5" d="M1131.83,563.98c54.08,20.08,112.21,54.9,153.29,100.91c1.43,6.57-6.86,15.71-11.35,13.85
					c-2.66-3.25-6.23-6.15-9.08-9.23c-1.57-1.7-2.82-3.52-4.54-5.28c-33.76-34.4-74.42-59.22-115.82-79.15
					c-26.63-12.82-53.83-22.16-80.62-34.3c13.38,1.43,9.46-2.71,10.79-2.64C1092.82,549.21,1114.13,557.41,1131.83,563.98z"/>
				<path class="st30" d="M1264.68,669.51c-2.27-2.64-2.27-2.64-4.54-5.28C1261.86,665.99,1263.11,667.81,1264.68,669.51z"/>
				<path class="st5" d="M1019.42,527.05c20.65,4.32,40.76,7.91,61.32,13.19c1.42,0.36,3.02,0.92,4.54,1.32
					c15.25,4.01,30.38,8.19,45.42,13.19c0.57,4.62,0.57,4.62,1.14,9.23c-17.7-6.57-39.01-14.77-57.34-15.83
					c-1.33-0.08,2.59,4.07-10.79,2.64c-20.91-2.24-127.2-37.3-171.46-38.25c8.02-0.68,11.08,3.45,12.49-6.6
					C943.18,511.63,981.28,519.07,1019.42,527.05z"/>
				<path class="st9" d="M1085.28,541.56c-1.52-0.4-3.13-0.96-4.54-1.32C1083,540.9,1083,540.9,1085.28,541.56z"/>
			</g>
			<g>
				<path class="st5" d="M693.54,582.45c-8.59,30.54-46.04,54.74-70.97,68.59c-99.3,55.2-341.15,127.49-457.03,163.57
					c-0.01-24.62,0.01-49.25,0-73.87c101.63-29.77,380.7-96,460.43-138.5c48.93-26.08,34.19-45.76,39.74-47.49
					C676.77,562.9,686.34,569.07,693.54,582.45z"/>
				<path class="st9" d="M165.55,846.27c0-10.55,0-21.11,0-31.66c115.88-36.08,357.72-108.37,457.03-163.57
					c24.92-13.85,62.38-38.06,70.97-68.59c0.54,1.01,7.96,5.98,5.68,21.77c-2.95,20.38-42.08,51.02-57.34,61.34
					C546.59,730,282.77,811.76,165.55,846.27z"/>
				<g>
					<path class="st4" d="M463.04,486.16c37.91,8.93,76.13,17.95,114.11,26.38c21.58,4.79,44.25,5.82,65.86,10.55
						c56.54,12.4,146.63,30.6,193.03,69.91c68.09,57.69,13.9,109.84-35.2,147.74c-131.1,101.19-474.33,228.55-635.3,292.84
						c-0.03-47.05,0.02-94.1,0-141.14c149.03-50.13,149.03-50.13,298.06-100.25c24.81-9.24,29.04-15.21,30.66-15.83
						c2.82-1.09,6.49,1.45,6.81,1.32c55.15-21.53,224.95-87.2,249.24-147.08c1.9-4.68,5.72-21.68,5.68-26.38
						c-0.13-13.37-11.78-41.43-24.41-36.28c-4.04,9.1,3.3,12.3,3.97,15.17c7.13,30.36-4.02,38.8-18.74,61.34
						c-2.39-1.32-10.81,7.69-13.63,11.87c-20.06,5.15-26.7,17.48-28.39,18.47c-0.16,0.09-1.53-2.41-3.41-1.32
						c-24.42,14.21-49.23,27.1-73.81,40.89c-0.43-0.34-3.24-1.4-3.41-1.32c-108.76,50.91-221.16,86.54-333.83,123.99
						c-1.48,0.49-1.71,3.77-2.27,3.96c-1.41,0.47-10.57-0.26-11.35,0c-26.96,8.92-53.59,20.96-81.19,26.38c0-7.04,0-14.07,0-21.11
						C282.77,811.76,546.59,730,641.87,665.55c15.26-10.32,54.39-40.96,57.34-61.34c2.29-15.78-5.14-20.76-5.68-21.77
						c-7.2-13.38-16.76-19.55-27.82-27.7c-5.55,1.72,9.18,21.4-39.74,47.49c-79.73,42.51-358.8,108.74-460.43,138.5
						c-0.01-23.74-0.01-47.49,0-71.23c44.82-6.45,89.5-14.78,133.99-23.74c53.28-10.74,238-48.53,273.08-81.78
						c3.6-3.41,6.27-7.05,8.52-11.87c15.73-33.78-53.8-43.08-71.53-47.49c-17.99-4.47-36.45-7.57-54.5-11.87
						C456.42,487.58,458.81,487.13,463.04,486.16z"/>
					<path class="st4" d="M165.55,892.44c0-8.35,0-16.71,0-25.06c27.6-5.42,54.23-17.46,81.19-26.38c0.79-0.26,9.94,0.47,11.35,0
						c0.56-0.19,0.79-3.46,2.27-3.96c112.66-37.45,225.07-73.08,333.83-123.99c0.17-0.08,2.97,0.98,3.41,1.32
						c24.57-13.8,49.39-26.68,73.81-40.89c1.87-1.09,3.25,1.41,3.41,1.32c1.68-0.99,8.33-13.32,28.39-18.47
						c2.82-4.18,11.24-13.19,13.63-11.87c14.71-22.54,25.87-30.97,18.74-61.34c-0.68-2.87-8.01-6.07-3.97-15.17
						c12.63-5.16,24.28,22.91,24.41,36.28c0.05,4.71-3.78,21.7-5.68,26.38c-24.28,59.88-194.09,125.55-249.24,147.08
						c-0.33,0.13-3.99-2.41-6.81-1.32c-1.61,0.62-5.85,6.59-30.66,15.83C314.58,842.31,314.58,842.31,165.55,892.44z"/>
				</g>
				<path class="st9" d="M299.53,645.77c-44.48,8.96-89.17,17.3-133.99,23.74c0-9.23,0-18.47,0-27.7
					c58.45-12.09,293.4-57.78,329.85-85.74c23.5-18.02-5.78-27.41-17.03-35.62c-0.56-0.41,0.68-3.25-5.68-7.91
					c-3.77-2.76-8.46,1.08-7.38-5.28c28.12,6.39,78.06,17.65,94.24,46.83c-1.67,3.23-3.75,6.18-6.25,8.57
					c-20.23,19.45-146.61,52.37-179.4,60.68c-14.62,3.7-60.25,10.92-70.4,15.83C301.2,640.29,299.53,642.72,299.53,645.77z"/>
				<path class="st4" d="M410.81,413.61c-3.82,0.19-7.76,1.11-11.35,1.32c-15.9,0.91-26.67,0.8-43.15,2.64
					c-15.12,1.69-48.27,4.84-29.52,7.26c-1.8,2.34-4.81,2.21-7.95,3.3c-1.46,0.5-3.06,0.91-4.54,1.32
					c-7.34,2.04-12.73,1.99-15.9,2.64c-16.99,3.49-34.01,6.5-51.1,9.23c13.91-3.96,13.91-3.96,27.82-7.91
					c-34.91-2.03-78.86-8.37-109.57,13.19c0.01-10.55-0.01-21.11,0-31.66c52.07,0.63,104.08-4.81,156.13-5.28
					c14.85-0.13,80,0.3,86.3,1.32C408.15,411,410.81,412.78,410.81,413.61z"/>
				<g>
					<path class="st4" d="M246.16,487.48c20.71,7.71,92.94,18.5,124.9,26.38c-3.41,1.65-3.41,1.65-6.81,3.3
						c17.15,6.62,80.89,9.28,69.26,38.91c-1.72,1.51-4.65,7.06-16.46,13.19c-41.36,21.47-195.71,47.38-251.51,60.68
						c0-8.35,0-16.71,0-25.06c187.86-38.15,212.91-77.97,0-100.25c0-7.47,0-14.95,0-22.42c12.04,5.64,21.83,10.78,34.63,14.51
						c37.85,11.01,108.01,19.59,149.88,27.7c-22.7-7.2-41.6-11.13-62.45-13.19c-1.37-5.5-4.03-0.99-5.68-1.32
						c-13.22-2.62-94.46-18.27-97.08-29.68c-3.24-14.1,48.83-40.41,60.75-38.91c-35.97,22.32-50.11,44.16,2.84,48.15
						C247.3,488.47,247.3,488.47,246.16,487.48z"/>
					<path class="st1" d="M247.3,441.31c8.42,14.79-10.04-4.25-22.71,27.04c-0.91,10.49,14.09,16.34,21.57,19.13
						c1.14,0.99,1.14,0.99,2.27,1.98c-52.95-3.98-38.81-25.83-2.84-48.15c-11.91-1.5-63.99,24.82-60.75,38.91
						c2.62,11.41,83.87,27.06,97.08,29.68c1.65,0.33,4.31-4.18,5.68,1.32c20.85,2.06,39.75,5.99,62.45,13.19
						c-41.87-8.11-112.03-16.69-149.88-27.7c-12.81-3.73-22.59-8.87-34.63-14.51c0.01-11.87-0.01-23.74,0-35.62
						c30.71-21.56,74.66-15.22,109.57-13.19C261.21,437.35,261.21,437.35,247.3,441.31z"/>
				</g>
				<path class="st9" d="M431.24,487.48c7.92,1.88,15.9,3.39,23.84,5.28c18.05,4.3,36.51,7.4,54.5,11.87
					c-1.42,1.32-1.42,1.32-2.84,2.64c22.83,4.41,58.21,25.6,74.37,44.85c-2.25,4.83-4.92,8.46-8.52,11.87
					c-35.08,33.26-219.8,71.05-273.08,81.78c0-3.04,1.67-5.48,3.97-6.6c10.15-4.91,55.78-12.13,70.4-15.83
					c32.79-8.31,159.18-41.23,179.4-60.68c2.49-2.4,4.58-5.35,6.25-8.57c-16.18-29.18-66.13-40.44-94.24-46.83
					c-6.08-1.38-13.49,0.2-19.87-1.32c-16.09-3.84-31.61-9.37-47.69-13.19c-2.35-0.56-3.17-3.9-3.41-3.96
					c-0.42-0.1-2.42,1.53-8.52,0c1.7-1.32,1.7-1.32,3.41-2.64c10.39,1.36,20.7,3.36,31.23,2.64c-0.85-1.98-0.85-1.98-1.7-3.96
					C422.9,485.83,427.08,486.49,431.24,487.48z"/>
				<path class="st1" d="M581.13,552.11c-16.16-19.25-51.54-40.44-74.37-44.85c1.42-1.32,1.42-1.32,2.84-2.64
					C527.33,509.03,596.85,518.33,581.13,552.11z"/>
				<path class="st31" d="M463.04,486.16c-4.22,0.98-6.62,1.43-7.95,6.6c-7.94-1.89-15.92-3.4-23.84-5.28
					c0.57-4.62,0.57-4.62,1.14-9.23C442.62,480.7,452.81,483.75,463.04,486.16z"/>
				<path class="st32" d="M355.17,426.8c0.43,0.04,7.54,2.22,7.95,3.96c-18.35,10.75-12.78,26.47,7.95,34.3
					c-1.14,3.96-1.14,3.96-2.27,7.91c-8.88-2.39-21.35-5.04-29.52-7.91c3.26-8.17-18.7-15.4-1.14-35.62
					C342.35,428.85,352.12,426.5,355.17,426.8z"/>
				<path class="st33" d="M432.38,478.24c-0.57,4.62-0.57,4.62-1.14,9.23c-4.16-0.99-8.35-1.65-12.49-2.64
					c-16.6-3.98-33.47-7.43-49.96-11.87c1.14-3.96,1.14-3.96,2.27-7.91C382.78,469.48,416.22,474.36,432.38,478.24z"/>
				<path class="st5" d="M314.29,429.44c-7.09,27.69,7.08,29.33,24.98,35.62c8.18,2.87,20.64,5.52,29.52,7.91
					c16.49,4.44,33.36,7.89,49.96,11.87c0.85,1.98,0.85,1.98,1.7,3.96c-10.52,0.72-20.83-1.28-31.23-2.64
					c-22.37-2.93-69.92-10.07-85.16-25.06c-4.81-9.35-4.43-18.47-5.68-29.02C301.56,431.42,306.95,431.48,314.29,429.44z"/>
				<g>
					<path class="st5" d="M304.07,461.09c10.03,19.5,62,22.75,81.75,27.7c6.1,1.53,8.1-0.1,8.52,0c0.24,0.06,1.05,3.4,3.41,3.96
						c16.08,3.82,31.6,9.35,47.69,13.19c6.38,1.52,13.79-0.06,19.87,1.32c-1.08,6.36,3.61,2.52,7.38,5.28
						c6.36,4.66,5.12,7.51,5.68,7.91c11.25,8.21,40.53,17.6,17.03,35.62c-36.46,27.96-271.41,73.66-329.85,85.74
						c0-3.96,0-7.91,0-11.87c55.79-13.3,210.15-39.21,251.51-60.68c11.82-6.13,14.74-11.68,16.46-13.19
						c2.57-2.26,19.12-13.44,14.19-18.47c-25.18-9.9-50.67-17.34-76.64-23.74c-31.96-7.88-104.2-18.67-124.9-26.38
						c-7.48-2.79-22.48-8.64-21.57-19.13c12.67-31.29,31.13-12.25,22.71-27.04c17.09-2.73,34.11-5.74,51.1-9.23
						C299.64,442.62,299.26,451.75,304.07,461.09z"/>
					<path class="st34" d="M433.52,556.07c11.63-29.63-52.12-32.3-69.26-38.91c3.41-1.65,3.41-1.65,6.81-3.3
						c25.97,6.41,51.46,13.84,76.64,23.74C452.63,542.63,436.09,553.81,433.52,556.07z"/>
					<path class="st29" d="M389.23,486.16c-1.7,1.32-1.7,1.32-3.41,2.64c-19.76-4.95-71.72-8.2-81.75-27.7
						C319.31,476.08,366.86,483.22,389.23,486.16z"/>
					<path class="st9" d="M253.54,445.27c2.39-0.95,4.03,1.36,2.27,2.64C254.8,448.64,252.21,445.79,253.54,445.27z"/>
				</g>
				<path class="st35" d="M318.83,428.12c-7.57,11.23,9.76,2.65,19.3,1.32c-17.56,20.22,4.39,27.45,1.14,35.62
					c-17.9-6.28-32.07-7.93-24.98-35.62C315.78,429.02,317.38,428.62,318.83,428.12z"/>
				<path class="st33" d="M356.3,417.56c8.66,0.75-0.83,4.21-1.14,9.23c-3.05-0.3-12.82,2.05-17.03,2.64
					c-9.54,1.33-26.88,9.91-19.3-1.32c3.13-1.08,6.15-0.96,7.95-3.3C308.04,422.4,341.18,419.25,356.3,417.56z"/>
			</g>
			<g>
				<path class="st9" d="M165.55,1384.46c-0.38-20.19,0.08-40.47,0-60.68c162.1-86.11,326.08-168.24,485.98-259.86
					c92.15-52.8,394.83-225.96,409.9-347.58c4.31-34.78-9.17-58.76-26.68-85.08c-0.85,0.66-0.85,0.66-1.7,1.32
					c-18.63-36.99-106.32-83.09-143.07-87.06c-15.96-6.79-25.56-5.59-26.12-14.51c80.96,19.76,257.39,60.82,237.31,195.89
					c-9.82,66.07-97.22,146.23-142.5,184.01C770.2,1068.19,385.22,1262.87,165.55,1384.46z"/>
				<path class="st9" d="M165.55,1235.4c-0.03-17.15,0.02-34.3,0-51.44c188.65-88.04,558.05-245.89,712.51-377.26
					c37.4-31.82,90.18-81.49,83.46-141.14c-0.23-2.07-6.02-17.58-6.81-23.08c-22.13-31.29-16.19-30.67-53.37-40.23
					c-36.3-35.08-69.61-43.23-111.28-59.36c-5.51-2.13-1.86-4.91-2.84-5.28c-10.17-3.86-51.7-6.52-45.42-21.11
					c2.55-0.66,2.55-0.66,5.11-1.32c55.09,8.42,87.05,16.16,139.1,42.21c85.47,42.77,159.46,113.2,76.64,216.99
					c-91.22,114.34-349.1,245.01-477.46,309.33C379.5,1136.66,271.89,1184.32,165.55,1235.4z"/>
				<path class="st8" d="M600.43,1075.79c-143.54,77.48-288.74,150.99-434.88,221.61c-0.06-17.15,0.03-34.3,0-51.44
					c138.56-64.39,277.12-129.52,413.31-200.5C580.06,1061.31,586.27,1071.91,600.43,1075.79z"/>
				<path class="st8" d="M165.55,1183.96c-0.01-7.04,0.01-14.07,0-21.11c114.32-49,227.09-102.52,339.51-156.97
					c59.76-28.95,112.21-53.48,171.46-85.74c76.91-41.88,208.4-115.62,263.43-189.29c16.62-22.26,21.48-35.26,21.57-65.3
					c6.72,59.65-46.05,109.33-83.46,141.14C723.6,938.07,354.19,1095.92,165.55,1183.96z"/>
				<path class="st8" d="M511.86,972.9c0.91,11.94-10.07,16.69-6.81,32.98c-112.41,54.45-225.18,107.98-339.51,156.97
					c-0.02-13.19,0.01-26.38,0-39.57C281.38,1074.52,397.66,1026.67,511.86,972.9z"/>
				<path class="st8" d="M740.09,508.58c11.73,1.79,23.47,3.5,35.2,5.28c0.37,0.06,0.76-0.06,1.14,0c-1.14,0.99-1.14,0.99-2.27,1.98
					c68.86,13.73,220.68,71.12,233.91,164.23c2.23,15.72,0.37,34.48-4.54,49.47c-18.5,56.42-123.75,138.22-169.18,169.5
					c-76,52.33-174.2,104.05-255.48,146.42c-136.19,70.98-274.75,136.11-413.31,200.5c-0.01-3.52,0.01-7.04,0-10.55
					c106.35-51.08,213.95-98.74,319.63-151.7c128.36-64.32,386.24-194.99,477.46-309.33c82.81-103.79,8.82-174.22-76.64-216.99
					c-52.05-26.05-84-33.79-139.1-42.21c-16.91-2.59-37.17-8.42-44.28-5.28c-5.77-3.24-13.13-4.08-18.17-9.23
					C702.96,503.48,721.54,505.76,740.09,508.58z"/>
				<path class="st8" d="M653.8,1048.09c-1.14,7.91-1.14,7.91-2.27,15.83c-159.9,91.62-323.89,173.75-485.98,259.86
					c-0.04-8.79,0.03-17.59,0-26.38c146.15-70.62,291.34-144.13,434.88-221.61C618.06,1066.28,636.25,1057.8,653.8,1048.09z"/>
				<path class="st5" d="M799.14,516.5c4.17,0.64,17.11,4.87,36.34,7.91c9.41,2.49,18.95,4.29,28.39,6.6
					c0.55,8.92,10.15,7.72,26.12,14.51c49.53,21.07,145.56,69.36,156.69,137.19c-16.67,4.35-22.74,7.4-38.61-2.64
					c-13.22-93.11-165.05-150.49-233.91-164.23c1.14-0.99,1.14-0.99,2.27-1.98C784.05,515.01,791.51,515.33,799.14,516.5z"/>
				<path class="st8" d="M1033.04,632.58c0.31,0.62-0.83,3.53,1.7,5.28C1033.9,635.21,1033.9,635.21,1033.04,632.58
					c0.85-0.66,0.85-0.66,1.7-1.32c17.51,26.32,30.99,50.3,26.68,85.08c-15.08,121.62-317.75,294.78-409.9,347.58
					c1.14-7.91,1.14-7.91,2.27-15.83c61.58-34.06,123.69-68.6,182.81-108.17c58.78-39.33,203.92-142.86,211.2-226.22
					c0.6-6.91,0-24.1-1.14-31c-11.14-67.83-107.16-116.11-156.69-137.19C926.73,549.48,1014.41,595.58,1033.04,632.58z"/>
				<path class="st5" d="M961.51,665.55c-0.09,30.03-4.95,43.04-21.57,65.3c-55.03,73.66-186.52,147.41-263.43,189.29
					c-3.85-19.08-7.88-14.41-21.57-17.15c74.44-39.44,343.38-176.58,246.4-300.75c37.18,9.57,31.24,8.94,53.37,40.23
					C955.49,647.97,961.28,663.48,961.51,665.55z"/>
				<path class="st7" d="M654.93,902.99c13.69,2.74,17.73-1.93,21.57,17.15c-59.25,32.26-111.69,56.79-171.46,85.74
					c-3.26-16.29,7.73-21.04,6.81-32.98C559.59,950.43,608.09,927.8,654.93,902.99z"/>
				<path class="st5" d="M834.34,899.03c-10.54,17.81,5.49-3.28,2.27,40.89c-59.13,39.57-121.23,74.11-182.81,108.17
					c-17.55,9.71-35.74,18.19-53.37,27.7c-14.16-3.88-20.37-14.48-21.57-30.34C660.14,1003.09,758.34,951.36,834.34,899.03z"/>
				<path class="st9" d="M1046.67,682.7c1.13,6.9,1.74,24.09,1.14,31c-7.27,83.36-152.42,186.89-211.2,226.22
					c3.22-44.17-12.81-23.09-2.27-40.89c45.44-31.29,150.69-113.08,169.18-169.5c4.91-14.98,6.77-33.75,4.54-49.47
					C1023.93,690.1,1030,687.05,1046.67,682.7z"/>
				<path class="st7" d="M1033.04,632.58c0.85,2.64,0.85,2.64,1.7,5.28C1032.22,636.11,1033.36,633.2,1033.04,632.58z"/>
			</g>
			<path class="st12" d="M477.8,459.78c11.67,5.66,25.17,11.23,37.47,14.51c-9.34,1.1-1.32,6.3-13.63,5.28
				c-6.45-0.54-37.62-10.97-45.42-14.51c2.06-6.27,3.7-8.16,9.08-10.55C465.9,454.86,474.18,458.02,477.8,459.78z"/>
			<path class="st12" d="M578.86,484.84c-4.92,7.66-33.53,2.95-36.9,1.32c-0.62-0.3,2.02-3.63-8.52-7.91
				C546.24,480.98,564.38,482.33,578.86,484.84z"/>
			<g>
				<path class="st14" d="M790.05,542.88c41.66,16.13,74.98,24.28,111.28,59.36c96.98,124.17-171.96,261.32-246.4,300.75
					c-46.84,24.81-95.34,47.44-143.07,69.91c-114.2,53.77-230.48,101.62-346.32,150.38c-0.02-18.47,0.01-36.93,0-55.4
					c154.89-61.64,310.86-121.82,461.57-196.54c67.53-33.48,223.24-114.06,259.45-186.65c36.96-74.08-52.06-120.27-99.92-139.16
					C788.35,544.2,788.35,544.2,790.05,542.88z"/>
				<path class="st10" d="M376.74,426.8c4.71,0.32,4.48,2.61,5.68,2.64c-29.66,27.77,29.35,31.52,65.86,40.89
					c16.79,4.31,32.92,9.35,49.96,13.19c19.58,4.41,39.41,7.77,59.04,11.87c57.27,11.97,138.2,23.63,189.62,36.93
					c13.57,3.51,26.58,8,39.74,13.19c47.86,18.9,136.88,65.08,99.92,139.16c-36.21,72.59-191.93,153.17-259.45,186.65
					c-150.71,74.73-306.68,134.9-461.57,196.54c-0.01-11.43,0.01-22.86,0-34.3c160.97-64.29,504.2-191.65,635.3-292.84
					c49.1-37.9,103.29-90.05,35.2-147.74c-46.4-39.31-136.49-57.51-193.03-69.91c-21.6-4.74-44.28-5.76-65.86-10.55
					c-37.98-8.43-76.21-17.45-114.11-26.38c-10.23-2.41-20.41-5.46-30.66-7.91c-16.16-3.88-49.6-8.77-61.32-13.19
					c-20.72-7.83-26.3-23.55-7.95-34.3C366.15,428.98,373.39,426.57,376.74,426.8z"/>
				<path class="st12" d="M704.89,512.54c12.57,3.25,31.25,11.97,42.01,19.79c-51.42-13.3-132.36-24.96-189.62-36.93
					c8.8-0.66,8.8-0.66,17.6-1.32C611.52,503.67,675.21,504.87,704.89,512.54z"/>
				<path class="st5" d="M451.68,463.73c0.22,0.11,1.45-0.09,4.54,1.32c7.8,3.54,38.96,13.97,45.42,14.51
					c-1.7,1.98-1.7,1.98-3.41,3.96c-17.04-3.84-33.17-8.88-49.96-13.19C449.98,467.03,449.98,467.03,451.68,463.73z"/>
				<path class="st10" d="M444.87,421.52c0,0.66,0,0.66,0,1.32c-8.43,5.14-36.17,3.77-29.52,21.77c2.12,5.73,33.24,28.47,2.84,13.85
					c-8.62-4.14-19.18-16.37-10.79-26.38c3.57-4.26,17.3-7.67,22.71-9.23C437.12,420.82,441.77,422.26,444.87,421.52z"/>
			</g>
		</g>
	</g>
	<rect x="160.81" y="64.17" class="st36" width="1167.73" height="1350.69"/>
	<rect x="162.27" y="64.17" class="st37" width="1167.73" height="1350.69"/>
</g>
</svg>