<?xml version="1.0" encoding="utf-8"?>
<!-- Generator: Adobe Illustrator 28.3.0, SVG Export Plug-In . SVG Version: 6.00 Build 0)  -->
<svg version="1.1" id="Layer_1" xmlns="http://www.w3.org/2000/svg" xmlns:xlink="http://www.w3.org/1999/xlink" x="0px" y="0px"
	 viewBox="0 0 500 500" style="enable-background:new 0 0 500 500;" xml:space="preserve">
<style type="text/css">
	.st0{fill:none;}
	.st1{clip-path:url(#SVGID_00000011714629985187805350000003483590291741319328_);}
	.st2{fill:#4389A8;}
	.st3{fill:#5BBBE5;}
	.st4{fill:#A4E0FC;}
	.st5{fill:url(#New_Pattern_Swatch_8);}
	.st6{opacity:0.67;fill:#000E15;}
</style>
<pattern  width="100" height="100" patternUnits="userSpaceOnUse" id="New_Pattern_Swatch_8" viewBox="58.89 -144.74 100 100" style="overflow:visible;">
	<g>
		<rect x="58.89" y="-144.74" class="st0" width="100" height="100"/>
		<g>
			<defs>
				<rect id="SVGID_1_" x="58.89" y="-144.74" width="100" height="100"/>
			</defs>
			<clipPath id="SVGID_00000051346066147174286290000016049999547444269230_">
				<use xlink:href="#SVGID_1_"  style="overflow:visible;"/>
			</clipPath>
			<g style="clip-path:url(#SVGID_00000051346066147174286290000016049999547444269230_);">
				<g>
					<path class="st2" d="M106.18-122.18c-0.91-4.88-2.97-9.47-4.8-14.05c-1.8-4.49-3.33-9.39-6.36-13.24
						c-1.46-1.86-3.23-3.44-5.02-4.98c-1.78-1.53-3.6-3.04-5.55-4.35c-7.71-5.2-17.59-5.59-25.51-0.6
						c-7.4,4.67-11.93,12.51-14.48,20.7c-1.63,5.24-2.55,10.67-3.41,16.08c-0.91,5.78-1.39,11.53-0.79,17.37c0.19,1.9,3.2,1.92,3,0
						c-0.94-9.23,0.66-18.69,2.75-27.67c1.87-8.02,5.04-15.94,11.32-21.52c6.26-5.57,15.23-7.33,22.84-3.4
						c3.82,1.97,7.26,4.93,10.34,7.9c3.35,3.23,5.01,7.18,6.72,11.42c1.97,4.88,4.25,9.79,5.56,14.9
						c1.32,5.14,1.36,10.54,0.21,15.72c-0.42,1.88,2.47,2.68,2.89,0.8C106.99-112.09,107.11-117.18,106.18-122.18z"/>
					<path class="st2" d="M97.13-108.67c-2-6.98-2.9-14.3-5.63-21.06c-2.28-5.66-5.86-11.22-11.38-14.18
						c-5-2.68-11.58-3.22-16.51-0.06c-5.55,3.56-7.56,10.67-9.22,16.66c-2.07,7.43-3.86,16.48-0.38,23.75
						c0.83,1.74,3.42,0.22,2.59-1.51c-2.77-5.78-1.38-13.23,0.09-19.18c0.74-3.03,1.65-6.04,2.75-8.96
						c0.99-2.61,2.29-5.21,4.36-7.13c3.89-3.59,9.97-3.43,14.48-1.14c4.98,2.53,8.28,7.51,10.33,12.56
						c2.74,6.76,3.63,14.08,5.63,21.06C94.76-106.02,97.66-106.81,97.13-108.67z"/>
					<path class="st2" d="M88.37-109.16c-1.76-3.87-1.17-8.34-2.37-12.37c-1.08-3.62-3.39-6.77-6.44-8.98
						c-1.55-1.12-3.43-2.17-5.4-2.04c-1.91,0.13-3.67,1.14-5.11,2.35c-2.73,2.28-4.36,5.81-4.9,9.28
						c-0.81,5.15,0.47,10.27,1.78,15.23c0.49,1.87,3.39,1.07,2.89-0.8c-1.7-6.46-3.8-14.67,1.09-20.34c0.99-1.14,2.31-2.24,3.8-2.61
						c1.73-0.43,3.5,0.83,4.79,1.88c2.52,2.06,4.23,4.89,4.92,8.06c0.88,3.99,0.64,8.07,2.36,11.87
						C86.58-105.89,89.17-107.41,88.37-109.16z"/>
					<path class="st2" d="M121.48-108.81c-0.81-7.23-0.32-14.5-1.25-21.71c-0.85-6.54-2.49-12.96-4.94-19.08
						c-2.45-6.12-5.61-11.93-9.51-17.25c-3.87-5.28-8.3-9.95-14.26-12.84c-11.16-5.41-24.09-4.71-35.64-0.96
						c-6.45,2.1-12.96,4.16-17.77,9.19c-4.6,4.82-7.34,11.05-8.97,17.44c-2,7.85-2.98,16.16-3.34,24.24
						c-0.37,8.2,0.26,16.48,2.58,24.38c0.54,1.85,3.44,1.06,2.89-0.8c-3.95-13.47-2.86-28.03-0.39-41.68
						c1.16-6.38,2.95-12.75,6.66-18.15c1.6-2.32,3.57-4.47,5.87-6.11c2.67-1.91,5.71-3.01,8.78-4.09c5.98-2.1,11.97-3.96,18.33-4.33
						c5.67-0.33,11.4,0.32,16.75,2.29c5.72,2.11,10.27,5.83,14.07,10.54c3.89,4.82,7.13,10.17,9.7,15.8
						c2.92,6.38,4.93,13.2,5.99,20.14c1.17,7.62,0.58,15.33,1.44,22.98C118.69-106.92,121.7-106.89,121.48-108.81z"/>
				</g>
				<path class="st3" d="M30.79-107.99h9.27c-0.23-4.91,0.22-9.76,0.99-14.63c0.85-5.41,1.77-10.84,3.41-16.08
					c2.55-8.18,7.08-16.03,14.48-20.7c7.92-5,17.8-4.6,25.51,0.6c1.95,1.32,3.77,2.82,5.55,4.35c1.79,1.54,3.56,3.12,5.02,4.98
					c3.03,3.85,4.56,8.74,6.36,13.24c1.84,4.58,3.9,9.17,4.8,14.05c0.88,4.71,0.81,9.5-0.12,14.19h12.77
					c-0.18-0.22-0.31-0.49-0.34-0.82c-0.85-7.65-0.27-15.36-1.44-22.98c-1.07-6.94-3.07-13.76-5.99-20.14
					c-2.58-5.62-5.82-10.98-9.7-15.8c-3.8-4.71-8.35-8.43-14.07-10.54c-5.35-1.97-11.08-2.62-16.75-2.29
					c-6.37,0.37-12.35,2.23-18.33,4.33c-3.07,1.08-6.11,2.17-8.78,4.09c-2.3,1.65-4.27,3.79-5.87,6.11
					c-3.71,5.4-5.5,11.77-6.66,18.15C28.53-134.83,27.43-120.95,30.79-107.99z"/>
				<path class="st4" d="M103.01-107.99c1.14-5.16,1.09-10.53-0.22-15.65c-1.31-5.11-3.58-10.02-5.56-14.9
					c-1.71-4.24-3.37-8.18-6.72-11.42c-3.08-2.97-6.52-5.93-10.34-7.9c-7.61-3.92-16.58-2.16-22.84,3.4
					c-6.28,5.58-9.45,13.51-11.32,21.52c-1.89,8.1-3.37,16.58-2.95,24.94h9.49c-1.3-6.31,0.18-13.34,1.84-19.33
					c1.67-5.99,3.67-13.1,9.22-16.66c4.92-3.16,11.51-2.62,16.51,0.06c5.52,2.96,9.09,8.52,11.38,14.18
					c2.73,6.76,3.63,14.08,5.63,21.06c0.07,0.25,0.08,0.48,0.04,0.68H103.01z"/>
				<path class="st4" d="M85.65-107.99c-1.56-3.7-1.38-7.65-2.23-11.53c-0.7-3.17-2.4-6-4.92-8.06c-1.29-1.05-3.05-2.32-4.79-1.88
					c-1.49,0.37-2.82,1.47-3.8,2.61c-4.52,5.24-3.07,12.66-1.48,18.85H85.65z"/>
				<path class="st3" d="M88.43-107.99h5.77c-1.97-6.95-2.88-14.22-5.6-20.95c-2.05-5.05-5.35-10.03-10.33-12.56
					c-4.51-2.29-10.59-2.45-14.48,1.14c-2.08,1.92-3.38,4.52-4.36,7.13c-1.1,2.92-2,5.93-2.75,8.96c-1.23,5-2.4,11.04-1.11,16.27
					h9.76c-1.06-4.24-1.87-8.58-1.19-12.94c0.54-3.47,2.18-6.99,4.9-9.28c1.44-1.21,3.2-2.22,5.11-2.35
					c1.97-0.13,3.85,0.92,5.4,2.04c3.05,2.21,5.35,5.36,6.44,8.98c1.2,4.03,0.61,8.5,2.37,12.37
					C88.56-108.74,88.56-108.34,88.43-107.99z"/>
			</g>
			<g style="clip-path:url(#SVGID_00000051346066147174286290000016049999547444269230_);">
				<g>
					<path class="st2" d="M206.18-122.18c-0.91-4.88-2.97-9.47-4.8-14.05c-1.8-4.49-3.33-9.39-6.36-13.24
						c-1.46-1.86-3.23-3.44-5.02-4.98c-1.78-1.53-3.6-3.04-5.55-4.35c-7.71-5.2-17.59-5.59-25.51-0.6
						c-7.4,4.67-11.93,12.51-14.48,20.7c-1.63,5.24-2.55,10.67-3.41,16.08c-0.91,5.78-1.39,11.53-0.79,17.37c0.19,1.9,3.2,1.92,3,0
						c-0.94-9.23,0.66-18.69,2.75-27.67c1.87-8.02,5.04-15.94,11.32-21.52c6.26-5.57,15.23-7.33,22.84-3.4
						c3.82,1.97,7.26,4.93,10.34,7.9c3.35,3.23,5.01,7.18,6.72,11.42c1.97,4.88,4.25,9.79,5.56,14.9
						c1.32,5.14,1.36,10.54,0.21,15.72c-0.42,1.88,2.47,2.68,2.89,0.8C206.99-112.09,207.11-117.18,206.18-122.18z"/>
					<path class="st2" d="M197.13-108.67c-2-6.98-2.9-14.3-5.63-21.06c-2.28-5.66-5.86-11.22-11.38-14.18
						c-5-2.68-11.58-3.22-16.51-0.06c-5.55,3.56-7.56,10.67-9.22,16.66c-2.07,7.43-3.86,16.48-0.38,23.75
						c0.83,1.74,3.42,0.22,2.59-1.51c-2.77-5.78-1.38-13.23,0.09-19.18c0.74-3.03,1.65-6.04,2.75-8.96
						c0.99-2.61,2.29-5.21,4.36-7.13c3.89-3.59,9.97-3.43,14.48-1.14c4.98,2.53,8.28,7.51,10.33,12.56
						c2.74,6.76,3.63,14.08,5.63,21.06C194.76-106.02,197.66-106.81,197.13-108.67z"/>
					<path class="st2" d="M188.37-109.16c-1.76-3.87-1.17-8.34-2.37-12.37c-1.08-3.62-3.39-6.77-6.44-8.98
						c-1.55-1.12-3.43-2.17-5.4-2.04c-1.91,0.13-3.67,1.14-5.11,2.35c-2.73,2.28-4.36,5.81-4.9,9.28
						c-0.81,5.15,0.47,10.27,1.78,15.23c0.49,1.87,3.39,1.07,2.89-0.8c-1.7-6.46-3.8-14.67,1.09-20.34c0.99-1.14,2.31-2.24,3.8-2.61
						c1.73-0.43,3.5,0.83,4.79,1.88c2.52,2.06,4.23,4.89,4.92,8.06c0.88,3.99,0.64,8.07,2.36,11.87
						C186.58-105.89,189.17-107.41,188.37-109.16z"/>
					<path class="st2" d="M221.48-108.81c-0.81-7.23-0.32-14.5-1.25-21.71c-0.85-6.54-2.49-12.96-4.94-19.08
						c-2.45-6.12-5.61-11.93-9.51-17.25c-3.87-5.28-8.3-9.95-14.26-12.84c-11.16-5.41-24.09-4.71-35.64-0.96
						c-6.45,2.1-12.96,4.16-17.77,9.19c-4.6,4.82-7.34,11.05-8.97,17.44c-2,7.85-2.98,16.16-3.34,24.24
						c-0.37,8.2,0.26,16.48,2.58,24.38c0.54,1.85,3.44,1.06,2.89-0.8c-3.95-13.47-2.86-28.03-0.39-41.68
						c1.16-6.38,2.95-12.75,6.66-18.15c1.6-2.32,3.57-4.47,5.87-6.11c2.67-1.91,5.71-3.01,8.78-4.09c5.98-2.1,11.97-3.96,18.33-4.33
						c5.67-0.33,11.4,0.32,16.75,2.29c5.72,2.11,10.27,5.83,14.07,10.54c3.89,4.82,7.13,10.17,9.7,15.8
						c2.92,6.38,4.93,13.2,5.99,20.14c1.17,7.62,0.58,15.33,1.44,22.98C218.69-106.92,221.7-106.89,221.48-108.81z"/>
				</g>
				<path class="st3" d="M130.79-107.99h9.27c-0.23-4.91,0.22-9.76,0.99-14.63c0.85-5.41,1.77-10.84,3.41-16.08
					c2.55-8.18,7.08-16.03,14.48-20.7c7.92-5,17.8-4.6,25.51,0.6c1.95,1.32,3.77,2.82,5.55,4.35c1.79,1.54,3.56,3.12,5.02,4.98
					c3.03,3.85,4.56,8.74,6.36,13.24c1.84,4.58,3.9,9.17,4.8,14.05c0.88,4.71,0.81,9.5-0.12,14.19h12.77
					c-0.18-0.22-0.31-0.49-0.34-0.82c-0.85-7.65-0.27-15.36-1.44-22.98c-1.07-6.94-3.07-13.76-5.99-20.14
					c-2.58-5.62-5.82-10.98-9.7-15.8c-3.8-4.71-8.35-8.43-14.07-10.54c-5.35-1.97-11.08-2.62-16.75-2.29
					c-6.37,0.37-12.35,2.23-18.33,4.33c-3.07,1.08-6.11,2.17-8.78,4.09c-2.3,1.65-4.27,3.79-5.87,6.11
					c-3.71,5.4-5.5,11.77-6.66,18.15C128.53-134.83,127.43-120.95,130.79-107.99z"/>
				<path class="st4" d="M203.01-107.99c1.14-5.16,1.09-10.53-0.22-15.65c-1.31-5.11-3.58-10.02-5.56-14.9
					c-1.71-4.24-3.37-8.18-6.72-11.42c-3.08-2.97-6.52-5.93-10.34-7.9c-7.61-3.92-16.58-2.16-22.84,3.4
					c-6.28,5.58-9.45,13.51-11.32,21.52c-1.89,8.1-3.37,16.58-2.95,24.94h9.49c-1.3-6.31,0.18-13.34,1.84-19.33
					c1.67-5.99,3.67-13.1,9.22-16.66c4.92-3.16,11.51-2.62,16.51,0.06c5.52,2.96,9.09,8.52,11.38,14.18
					c2.73,6.76,3.63,14.08,5.63,21.06c0.07,0.25,0.08,0.48,0.04,0.68H203.01z"/>
				<path class="st4" d="M185.65-107.99c-1.56-3.7-1.38-7.65-2.23-11.53c-0.7-3.17-2.4-6-4.92-8.06c-1.29-1.05-3.05-2.32-4.79-1.88
					c-1.49,0.37-2.82,1.47-3.8,2.61c-4.52,5.24-3.07,12.66-1.48,18.85H185.65z"/>
				<path class="st3" d="M188.43-107.99h5.77c-1.97-6.95-2.88-14.22-5.6-20.95c-2.05-5.05-5.35-10.03-10.33-12.56
					c-4.51-2.29-10.59-2.45-14.48,1.14c-2.08,1.92-3.38,4.52-4.36,7.13c-1.1,2.92-2,5.93-2.75,8.96c-1.23,5-2.4,11.04-1.11,16.27
					h9.76c-1.06-4.24-1.87-8.58-1.19-12.94c0.54-3.47,2.18-6.99,4.9-9.28c1.44-1.21,3.2-2.22,5.11-2.35
					c1.97-0.13,3.85,0.92,5.4,2.04c3.05,2.21,5.35,5.36,6.44,8.98c1.2,4.03,0.61,8.5,2.37,12.37
					C188.56-108.74,188.56-108.34,188.43-107.99z"/>
			</g>
			<g style="clip-path:url(#SVGID_00000051346066147174286290000016049999547444269230_);">
				<g>
					<path class="st2" d="M173.46-130.68c-1.83-4.61-4.01-9.07-6.58-13.27c-1.23-2.01-2.44-3.91-4.35-5.27
						c-1.9-1.34-3.83-2.95-5.92-3.97c-2.16-1.06-4.47-1.5-6.82-1.82c-2.55-0.35-5.1-0.67-7.66-1c-5-0.65-9.82-1.21-14.63,0.79
						c-4.39,1.83-8.31,4.78-12.12,7.65c-3.73,2.82-7.19,6-9.41,10.29c-2.57,4.99-3.66,10.74-4.54,16.28
						c-0.97,6.18-1.45,12.42-1.43,18.68c0.01,2.02,3.01,2.02,3,0c-0.02-5.21,0.29-10.42,0.99-15.58c0.65-4.75,1.47-9.6,3.02-14.13
						c1.49-4.35,3.96-7.87,7.35-10.81c3.31-2.88,7.04-5.53,10.79-7.74c1.96-1.15,4.01-2.11,6.21-2.62c2.3-0.53,4.67-0.4,6.99-0.15
						c2.44,0.27,4.87,0.62,7.31,0.93c2.24,0.29,4.52,0.49,6.72,1.03c2.25,0.54,4.04,1.62,5.9,3c1.83,1.36,3.64,2.33,4.93,4.31
						c2.49,3.82,4.64,7.89,6.46,12.09c4.14,9.56,6.46,19.98,6.85,30.46c0.07,2.01,3.08,2.02,3,0
						C179.16-111.52,177.12-121.43,173.46-130.68z"/>
					<path class="st2" d="M167.08-105.13c-0.09-0.85,0-1.71,0.01-2.57c0.02-1.08-0.11-2.14-0.33-3.2c-0.47-2.3-1.18-4.54-1.69-6.83
						c-0.9-4.04-2.1-7.81-3.67-11.62c-2.57-6.26-6.53-13.31-13.45-14.81c-6.29-1.36-13.59,0.54-18.88,4.23
						c-5.27,3.68-9.1,9.19-11.54,15.25c-2.75,6.84-3.74,14.41-2.75,21.76c0.27,1.99,3.16,1.14,2.89-0.83
						c-1.55-11.45,2.48-24.61,11.11-32.08c4.52-3.91,10.66-5.93,16.51-5.55c6.63,0.43,10.42,6.44,12.92,12.22
						c1.66,3.85,2.94,7.7,3.85,11.81c0.51,2.28,1.16,4.53,1.68,6.8c0.39,1.68,0.2,3.36,0.28,5.04c-0.09,0.27-0.09,0.59,0.05,0.96
						c0.01,0.04,0.03,0.08,0.05,0.11c0.03,0.21,0.06,0.43,0.1,0.64c0.31,1.45,2.65,1.54,2.89,0
						C167.23-104.34,167.21-104.69,167.08-105.13z"/>
					<path class="st2" d="M154.64-106.74c-0.21-1.52-0.41-3.04-0.62-4.56c-0.38-2.82-0.77-5.64-1.15-8.46
						c-0.35-2.57-0.68-5.17-1.77-7.54c-0.91-1.97-2.36-3.63-4.07-4.87c-1.71-1.24-3.97-2.16-6.08-1.99
						c-2.19,0.18-4.02,1.74-5.61,3.2c-3.24,2.98-5.66,6.98-6.88,11.3c-1.59,5.6-1.07,11.57,1.14,16.9c0.77,1.85,3.35,0.25,2.59-1.58
						c-3.11-7.49-1.75-16.43,3.46-22.51c1.17-1.36,2.51-2.67,4.01-3.61c1.7-1.06,3.64-0.4,5.23,0.59c3.42,2.12,4.36,5.83,4.9,9.7
						c0.36,2.56,0.7,5.12,1.05,7.68c0.18,1.35,0.37,2.7,0.55,4.05c0.08,0.59,0.16,1.18,0.24,1.77c0.05,0.34,0.09,0.68,0.14,1.01
						c0.02,0.13,0.04,0.27,0.05,0.4c-0.15,0.33-0.2,0.71-0.14,1.12c0.06,0.48,0.39,0.93,0.82,1.13c0.81,0.38,1.52,0.17,2.05-0.56
						C155.2-104.44,154.78-105.75,154.64-106.74z"/>
				</g>
				<path class="st3" d="M103.02-103.95h11.67c-0.77-7.03,0.24-14.21,2.85-20.73c2.43-6.07,6.26-11.57,11.54-15.25
					c5.29-3.69,12.59-5.59,18.88-4.23c6.92,1.5,10.88,8.56,13.45,14.81c1.57,3.81,2.77,7.58,3.67,11.62
					c0.51,2.29,1.22,4.53,1.69,6.83c0.22,1.05,0.35,2.12,0.33,3.2c-0.02,0.86-0.11,1.72-0.01,2.57c0.12,0.4,0.14,0.73,0.08,1.18
					h9.22c-0.64-9.66-2.88-19.21-6.71-28.03c-1.82-4.21-3.97-8.28-6.46-12.09c-1.29-1.98-3.1-2.96-4.93-4.31
					c-1.87-1.39-3.65-2.46-5.9-3c-2.21-0.53-4.48-0.74-6.72-1.03c-2.43-0.32-4.87-0.66-7.31-0.93c-2.32-0.26-4.69-0.38-6.99,0.15
					c-2.2,0.51-4.26,1.47-6.21,2.62c-3.75,2.21-7.47,4.87-10.79,7.74c-3.39,2.94-5.86,6.46-7.35,10.81
					c-1.55,4.53-2.38,9.38-3.02,14.13C103.37-113.28,103.07-108.62,103.02-103.95z"/>
				<path class="st3" d="M132.3-103.95h19.44c-0.02-0.06-0.04-0.12-0.05-0.17c-0.05-0.41,0-0.79,0.14-1.12
					c-0.02-0.13-0.04-0.27-0.05-0.4c-0.05-0.34-0.09-0.68-0.14-1.01c-0.08-0.59-0.16-1.18-0.24-1.77c-0.18-1.35-0.37-2.7-0.55-4.05
					c-0.35-2.56-0.69-5.12-1.05-7.68c-0.54-3.87-1.49-7.58-4.9-9.7c-1.6-0.99-3.54-1.65-5.23-0.59c-1.51,0.94-2.85,2.25-4.01,3.61
					c-5.21,6.08-6.57,15.02-3.46,22.51C132.25-104.2,132.28-104.07,132.3-103.95z"/>
				<path class="st4" d="M154.77-103.95h9.46c-0.03-0.16-0.06-0.33-0.08-0.49c-0.01-0.04-0.03-0.08-0.05-0.11
					c-0.14-0.36-0.14-0.68-0.05-0.96c-0.08-1.68,0.1-3.36-0.28-5.04c-0.52-2.28-1.18-4.52-1.68-6.8c-0.91-4.12-2.19-7.97-3.85-11.81
					c-2.5-5.78-6.29-11.79-12.92-12.22c-5.85-0.38-11.99,1.64-16.51,5.55c-8.59,7.43-12.61,20.48-11.13,31.88h11.49
					c-1.81-5.01-2.16-10.5-0.69-15.69c1.22-4.32,3.65-8.32,6.88-11.3c1.59-1.46,3.42-3.02,5.61-3.2c2.11-0.18,4.36,0.75,6.08,1.99
					c1.71,1.24,3.16,2.9,4.07,4.87c1.09,2.37,1.42,4.96,1.77,7.54c0.38,2.82,0.77,5.64,1.15,8.46c0.21,1.52,0.41,3.04,0.62,4.56
					C154.76-105.88,155.09-104.8,154.77-103.95z"/>
			</g>
			<g style="clip-path:url(#SVGID_00000051346066147174286290000016049999547444269230_);">
				<g>
					<path class="st2" d="M73.46-130.68c-1.83-4.61-4.01-9.07-6.58-13.27c-1.23-2.01-2.44-3.91-4.35-5.27
						c-1.9-1.34-3.83-2.95-5.92-3.97c-2.16-1.06-4.47-1.5-6.82-1.82c-2.55-0.35-5.1-0.67-7.66-1c-5-0.65-9.82-1.21-14.63,0.79
						c-4.39,1.83-8.31,4.78-12.12,7.65c-3.73,2.82-7.19,6-9.41,10.29C3.4-132.29,2.31-126.54,1.43-121
						c-0.97,6.18-1.45,12.42-1.43,18.68c0.01,2.02,3.01,2.02,3,0c-0.02-5.21,0.29-10.42,0.99-15.58c0.65-4.75,1.47-9.6,3.02-14.13
						c1.49-4.35,3.96-7.87,7.35-10.81c3.31-2.88,7.04-5.53,10.79-7.74c1.96-1.15,4.01-2.11,6.21-2.62c2.3-0.53,4.67-0.4,6.99-0.15
						c2.44,0.27,4.87,0.62,7.31,0.93c2.24,0.29,4.52,0.49,6.72,1.03c2.25,0.54,4.04,1.62,5.9,3c1.83,1.36,3.64,2.33,4.93,4.31
						c2.49,3.82,4.64,7.89,6.46,12.09c4.14,9.56,6.46,19.98,6.85,30.46c0.07,2.01,3.08,2.02,3,0
						C79.16-111.52,77.12-121.43,73.46-130.68z"/>
					<path class="st2" d="M67.08-105.13c-0.09-0.85,0-1.71,0.01-2.57c0.02-1.08-0.11-2.14-0.33-3.2c-0.47-2.3-1.18-4.54-1.69-6.83
						c-0.9-4.04-2.1-7.81-3.67-11.62c-2.57-6.26-6.53-13.31-13.45-14.81c-6.29-1.36-13.59,0.54-18.88,4.23
						c-5.27,3.68-9.1,9.19-11.54,15.25c-2.75,6.84-3.74,14.41-2.75,21.76c0.27,1.99,3.16,1.14,2.89-0.83
						c-1.55-11.45,2.48-24.61,11.11-32.08c4.52-3.91,10.66-5.93,16.51-5.55c6.63,0.43,10.42,6.44,12.92,12.22
						c1.66,3.85,2.94,7.7,3.85,11.81c0.51,2.28,1.16,4.53,1.68,6.8c0.39,1.68,0.2,3.36,0.28,5.04c-0.09,0.27-0.09,0.59,0.05,0.96
						c0.01,0.04,0.03,0.08,0.05,0.11c0.03,0.21,0.06,0.43,0.1,0.64c0.31,1.45,2.65,1.54,2.89,0
						C67.23-104.34,67.21-104.69,67.08-105.13z"/>
					<path class="st2" d="M54.64-106.74c-0.21-1.52-0.41-3.04-0.62-4.56c-0.38-2.82-0.77-5.64-1.15-8.46
						c-0.35-2.57-0.68-5.17-1.77-7.54c-0.91-1.97-2.36-3.63-4.07-4.87c-1.71-1.24-3.97-2.16-6.08-1.99
						c-2.19,0.18-4.02,1.74-5.61,3.2c-3.24,2.98-5.66,6.98-6.88,11.3c-1.59,5.6-1.07,11.57,1.14,16.9c0.77,1.85,3.35,0.25,2.59-1.58
						c-3.11-7.49-1.75-16.43,3.46-22.51c1.17-1.36,2.51-2.67,4.01-3.61c1.7-1.06,3.64-0.4,5.23,0.59c3.42,2.12,4.36,5.83,4.9,9.7
						c0.36,2.56,0.7,5.12,1.05,7.68c0.18,1.35,0.37,2.7,0.55,4.05c0.08,0.59,0.16,1.18,0.24,1.77c0.05,0.34,0.09,0.68,0.14,1.01
						c0.02,0.13,0.04,0.27,0.05,0.4c-0.15,0.33-0.2,0.71-0.14,1.12c0.06,0.48,0.39,0.93,0.82,1.13c0.81,0.38,1.52,0.17,2.05-0.56
						C55.2-104.44,54.78-105.75,54.64-106.74z"/>
				</g>
				<path class="st3" d="M3.02-103.95h11.67c-0.77-7.03,0.24-14.21,2.85-20.73c2.43-6.07,6.26-11.57,11.54-15.25
					c5.29-3.69,12.59-5.59,18.88-4.23c6.92,1.5,10.88,8.56,13.45,14.81c1.57,3.81,2.77,7.58,3.67,11.62
					c0.51,2.29,1.22,4.53,1.69,6.83c0.22,1.05,0.35,2.12,0.33,3.2c-0.02,0.86-0.11,1.72-0.01,2.57c0.12,0.4,0.14,0.73,0.08,1.18
					h9.22c-0.64-9.66-2.88-19.21-6.71-28.03c-1.82-4.21-3.97-8.28-6.46-12.09c-1.29-1.98-3.1-2.96-4.93-4.31
					c-1.87-1.39-3.65-2.46-5.9-3c-2.21-0.53-4.48-0.74-6.72-1.03c-2.43-0.32-4.87-0.66-7.31-0.93c-2.32-0.26-4.69-0.38-6.99,0.15
					c-2.2,0.51-4.26,1.47-6.21,2.62c-3.75,2.21-7.47,4.87-10.79,7.74c-3.39,2.94-5.86,6.46-7.35,10.81
					c-1.55,4.53-2.38,9.38-3.02,14.13C3.37-113.28,3.07-108.62,3.02-103.95z"/>
				<path class="st3" d="M32.3-103.95h19.44c-0.02-0.06-0.04-0.12-0.05-0.17c-0.05-0.41,0-0.79,0.14-1.12
					c-0.02-0.13-0.04-0.27-0.05-0.4c-0.05-0.34-0.09-0.68-0.14-1.01c-0.08-0.59-0.16-1.18-0.24-1.77c-0.18-1.35-0.37-2.7-0.55-4.05
					c-0.35-2.56-0.69-5.12-1.05-7.68c-0.54-3.87-1.49-7.58-4.9-9.7c-1.6-0.99-3.54-1.65-5.23-0.59c-1.51,0.94-2.85,2.25-4.01,3.61
					c-5.21,6.08-6.57,15.02-3.46,22.51C32.25-104.2,32.28-104.07,32.3-103.95z"/>
				<path class="st4" d="M54.77-103.95h9.46c-0.03-0.16-0.06-0.33-0.08-0.49c-0.01-0.04-0.03-0.08-0.05-0.11
					c-0.14-0.36-0.14-0.68-0.05-0.96c-0.08-1.68,0.1-3.36-0.28-5.04c-0.52-2.28-1.18-4.52-1.68-6.8c-0.91-4.12-2.19-7.97-3.85-11.81
					c-2.5-5.78-6.29-11.79-12.92-12.22c-5.85-0.38-11.99,1.64-16.51,5.55c-8.59,7.43-12.61,20.48-11.13,31.88h11.49
					c-1.81-5.01-2.16-10.5-0.69-15.69c1.22-4.32,3.65-8.32,6.88-11.3c1.59-1.46,3.42-3.02,5.61-3.2c2.11-0.18,4.36,0.75,6.08,1.99
					c1.71,1.24,3.16,2.9,4.07,4.87c1.09,2.37,1.42,4.96,1.77,7.54c0.38,2.82,0.77,5.64,1.15,8.46c0.21,1.52,0.41,3.04,0.62,4.56
					C54.76-105.88,55.09-104.8,54.77-103.95z"/>
			</g>
			<g style="clip-path:url(#SVGID_00000051346066147174286290000016049999547444269230_);">
				<path class="st3" d="M123.52-58.81c-0.12-0.26-0.27-0.5-0.45-0.69c-0.09-0.09-0.2-0.16-0.3-0.23c-0.02-0.1-0.04-0.19-0.07-0.29
					c-0.34-1.21-1.72-1.34-2.52-0.6c-0.41-0.21-0.91-0.21-1.35-0.02c-0.32-0.45-0.9-0.63-1.45-0.54c-0.23-0.13-0.48-0.22-0.75-0.22
					c-0.2,0-0.38,0.04-0.54,0.1c-0.24-0.17-0.53-0.28-0.81-0.29c0.21-0.54,0.13-1.15-0.32-1.59c-0.54-0.54-1.59-0.61-2.12,0
					c-0.52,0.6-0.96,1.24-1.35,1.91c-0.48-0.02-0.98,0.19-1.26,0.59c-0.05,0-0.11,0-0.16,0.01c-0.75,0.11-1.27,0.71-1.3,1.47
					c-0.04,0.88,0.17,1.65,0.53,2.44c0.17,0.37,0.47,0.57,0.81,0.66c0.04,0.04,0.09,0.08,0.14,0.11c0.16,0.9,0.32,1.8,0.48,2.7
					c0.13,0.76,0.83,1.1,1.52,1.06c0.32,0.54,0.63,1.09,0.92,1.66c0.16,0.31,0.39,0.51,0.66,0.62c0.1,0.21,0.2,0.42,0.29,0.64
					c0.02,0.15,0.06,0.31,0.14,0.48c0.22,0.49,0.44,0.99,0.66,1.48c0.7,1.57,3.2,0.45,2.74-1.16c-0.01-0.02-0.01-0.04-0.02-0.06
					c0.04,0,0.07,0.02,0.11,0.02c0.58,0,1.01-0.33,1.28-0.79c0.42,0,0.83-0.15,1.09-0.45c0.61,0.04,1.23-0.27,1.46-1.06
					c0.02-0.07,0.04-0.14,0.06-0.21c0.15,0.08,0.32,0.14,0.52,0.16c0.69,0.08,1.5-0.33,1.65-1.07c0.26-1.3,0.38-2.62,0.26-3.94
					c-0.01-0.13-0.02-0.26-0.03-0.4c0.05-0.29,0.12-0.58,0.17-0.87C124.3-57.81,124.07-58.46,123.52-58.81z"/>
				<g>
					<path class="st2" d="M110.12-73.87c-0.91-4.88-2.97-9.47-4.8-14.05c-1.8-4.49-3.33-9.39-6.36-13.24
						c-1.46-1.86-3.23-3.44-5.02-4.98c-1.78-1.53-3.6-3.04-5.55-4.35c-7.71-5.2-17.59-5.59-25.51-0.6
						c-7.4,4.67-11.93,12.51-14.48,20.7c-1.63,5.24-2.55,10.67-3.41,16.08c-0.91,5.78-1.39,11.53-0.79,17.37c0.19,1.9,3.2,1.92,3,0
						c-0.94-9.23,0.66-18.69,2.75-27.67c1.87-8.02,5.04-15.94,11.32-21.52c6.26-5.57,15.23-7.33,22.84-3.4
						c3.82,1.97,7.26,4.93,10.34,7.9c3.35,3.23,5.01,7.18,6.72,11.42c1.97,4.88,4.25,9.79,5.56,14.9
						c1.32,5.14,1.36,10.54,0.21,15.72c-0.42,1.88,2.47,2.68,2.89,0.8C110.93-63.78,111.05-68.88,110.12-73.87z"/>
					<path class="st2" d="M101.07-60.37c-2-6.98-2.9-14.3-5.63-21.06c-2.28-5.66-5.86-11.22-11.38-14.18
						c-5-2.68-11.58-3.22-16.51-0.06C62-92.11,60-85.01,58.33-79.01c-2.07,7.43-3.86,16.48-0.38,23.75
						c0.83,1.74,3.42,0.22,2.59-1.51c-2.77-5.78-1.38-13.23,0.09-19.18c0.74-3.03,1.65-6.04,2.75-8.96
						c0.99-2.61,2.29-5.21,4.36-7.13c3.89-3.59,9.97-3.43,14.48-1.14c4.98,2.53,8.28,7.51,10.33,12.56
						c2.74,6.76,3.63,14.08,5.63,21.06C98.71-57.72,101.6-58.5,101.07-60.37z"/>
					<path class="st2" d="M92.32-60.86c-1.76-3.87-1.17-8.34-2.37-12.37c-1.08-3.62-3.39-6.77-6.44-8.98
						c-1.55-1.12-3.43-2.17-5.4-2.04c-1.91,0.13-3.67,1.14-5.11,2.35c-2.73,2.28-4.36,5.81-4.9,9.28
						c-0.81,5.15,0.47,10.27,1.78,15.23c0.49,1.87,3.39,1.07,2.89-0.8c-1.7-6.46-3.8-14.67,1.09-20.34c0.99-1.14,2.31-2.24,3.8-2.61
						c1.73-0.43,3.5,0.83,4.79,1.88c2.52,2.06,4.23,4.89,4.92,8.06c0.88,3.99,0.64,8.07,2.36,11.87
						C90.53-57.59,93.11-59.11,92.32-60.86z"/>
					<path class="st2" d="M125.42-60.51c-0.81-7.23-0.32-14.5-1.25-21.71c-0.85-6.54-2.49-12.96-4.94-19.08
						c-2.45-6.12-5.61-11.93-9.51-17.25c-3.87-5.28-8.3-9.95-14.26-12.84c-11.16-5.41-24.09-4.71-35.64-0.96
						c-6.45,2.1-12.96,4.16-17.77,9.19c-4.6,4.82-7.34,11.05-8.97,17.44c-2,7.85-2.98,16.16-3.34,24.24
						C29.38-73.28,30-65,32.32-57.1c0.54,1.85,3.44,1.06,2.89-0.8c-3.95-13.47-2.86-28.03-0.39-41.68
						c1.16-6.38,2.95-12.75,6.66-18.15c1.6-2.32,3.57-4.47,5.87-6.11c2.67-1.91,5.71-3.01,8.78-4.09c5.98-2.1,11.97-3.96,18.33-4.33
						c5.67-0.33,11.4,0.32,16.75,2.29c5.72,2.11,10.27,5.83,14.07,10.54c3.89,4.82,7.13,10.17,9.7,15.8
						c2.92,6.38,4.93,13.2,5.99,20.14c1.17,7.62,0.58,15.33,1.44,22.98C122.64-58.61,125.64-58.59,125.42-60.51z"/>
				</g>
				<path class="st3" d="M34.74-59.68H44c-0.23-4.91,0.22-9.76,0.99-14.63c0.85-5.41,1.77-10.84,3.41-16.08
					c2.55-8.18,7.08-16.03,14.48-20.7c7.92-5,17.8-4.6,25.51,0.6c1.95,1.32,3.77,2.82,5.55,4.35c1.79,1.54,3.56,3.12,5.02,4.98
					c3.03,3.85,4.56,8.74,6.36,13.24c1.84,4.58,3.9,9.17,4.8,14.05c0.88,4.71,0.81,9.5-0.12,14.19h12.77
					c-0.18-0.22-0.31-0.49-0.34-0.82c-0.85-7.65-0.27-15.36-1.44-22.98c-1.07-6.94-3.07-13.76-5.99-20.14
					c-2.58-5.62-5.82-10.98-9.7-15.8c-3.8-4.71-8.35-8.43-14.07-10.54c-5.35-1.97-11.08-2.62-16.75-2.29
					c-6.37,0.37-12.35,2.23-18.33,4.33c-3.07,1.08-6.11,2.17-8.78,4.09c-2.3,1.65-4.27,3.79-5.87,6.11
					c-3.71,5.4-5.5,11.77-6.66,18.15C32.47-86.53,31.37-72.65,34.74-59.68z"/>
				<path class="st4" d="M106.95-59.68c1.14-5.16,1.09-10.53-0.22-15.65c-1.31-5.11-3.58-10.02-5.56-14.9
					c-1.71-4.24-3.37-8.18-6.72-11.42c-3.08-2.97-6.52-5.93-10.34-7.9c-7.61-3.92-16.58-2.16-22.84,3.4
					c-6.28,5.58-9.45,13.51-11.32,21.52c-1.89,8.1-3.37,16.58-2.95,24.94h9.49c-1.3-6.31,0.18-13.34,1.84-19.33
					C60-85.01,62-92.11,67.55-95.67c4.92-3.16,11.51-2.62,16.51,0.06c5.52,2.96,9.09,8.52,11.38,14.18
					c2.73,6.76,3.63,14.08,5.63,21.06c0.07,0.25,0.08,0.48,0.04,0.68H106.95z"/>
				<path class="st4" d="M89.59-59.68c-1.56-3.7-1.38-7.65-2.23-11.53c-0.7-3.17-2.4-6-4.92-8.06c-1.29-1.05-3.05-2.32-4.79-1.88
					c-1.49,0.37-2.82,1.47-3.8,2.61c-4.52,5.24-3.07,12.66-1.48,18.85H89.59z"/>
				<path class="st3" d="M92.37-59.68h5.77c-1.97-6.95-2.88-14.22-5.6-20.95c-2.05-5.05-5.35-10.03-10.33-12.56
					c-4.51-2.29-10.59-2.45-14.48,1.14c-2.08,1.92-3.38,4.52-4.36,7.13c-1.1,2.92-2,5.93-2.75,8.96c-1.23,5-2.4,11.04-1.11,16.27
					h9.76c-1.06-4.24-1.87-8.58-1.19-12.94c0.54-3.47,2.18-6.99,4.9-9.28c1.44-1.21,3.2-2.22,5.11-2.35
					c1.97-0.13,3.85,0.92,5.4,2.04c3.05,2.21,5.35,5.36,6.44,8.98c1.2,4.03,0.61,8.5,2.37,12.37C92.51-60.44,92.5-60.03,92.37-59.68
					z"/>
				<path class="st2" d="M125.24-61.66c-0.16-0.77-1.11-1.29-1.85-1.05c-0.81,0.26-1.22,1.02-1.05,1.85c0.33,1.57,0.63,3,0.66,4.56
					c0.03,1.58-0.37,3.13-0.31,4.71c0.03,0.78,0.67,1.54,1.5,1.5c0.79-0.04,1.53-0.66,1.5-1.5c-0.06-1.64,0.36-3.25,0.31-4.9
					C125.95-58.23,125.6-59.96,125.24-61.66z"/>
			</g>
			<g style="clip-path:url(#SVGID_00000051346066147174286290000016049999547444269230_);">
				<path class="st3" d="M223.52-58.81c-0.12-0.26-0.27-0.5-0.45-0.69c-0.09-0.09-0.2-0.16-0.3-0.23c-0.02-0.1-0.04-0.19-0.07-0.29
					c-0.34-1.21-1.72-1.34-2.52-0.6c-0.41-0.21-0.91-0.21-1.35-0.02c-0.32-0.45-0.9-0.63-1.45-0.54c-0.23-0.13-0.48-0.22-0.75-0.22
					c-0.2,0-0.38,0.04-0.54,0.1c-0.24-0.17-0.53-0.28-0.81-0.29c0.21-0.54,0.13-1.15-0.32-1.59c-0.54-0.54-1.59-0.61-2.12,0
					c-0.52,0.6-0.96,1.24-1.35,1.91c-0.48-0.02-0.98,0.19-1.26,0.59c-0.05,0-0.11,0-0.16,0.01c-0.75,0.11-1.27,0.71-1.3,1.47
					c-0.04,0.88,0.17,1.65,0.53,2.44c0.17,0.37,0.47,0.57,0.81,0.66c0.04,0.04,0.09,0.08,0.14,0.11c0.16,0.9,0.32,1.8,0.48,2.7
					c0.13,0.76,0.83,1.1,1.52,1.06c0.32,0.54,0.63,1.09,0.92,1.66c0.16,0.31,0.39,0.51,0.66,0.62c0.1,0.21,0.2,0.42,0.29,0.64
					c0.02,0.15,0.06,0.31,0.14,0.48c0.22,0.49,0.44,0.99,0.66,1.48c0.7,1.57,3.2,0.45,2.74-1.16c-0.01-0.02-0.01-0.04-0.02-0.06
					c0.04,0,0.07,0.02,0.11,0.02c0.58,0,1.01-0.33,1.28-0.79c0.42,0,0.83-0.15,1.09-0.45c0.61,0.04,1.23-0.27,1.46-1.06
					c0.02-0.07,0.04-0.14,0.06-0.21c0.15,0.08,0.32,0.14,0.52,0.16c0.69,0.08,1.5-0.33,1.65-1.07c0.26-1.3,0.38-2.62,0.26-3.94
					c-0.01-0.13-0.02-0.26-0.03-0.4c0.05-0.29,0.12-0.58,0.17-0.87C224.3-57.81,224.07-58.46,223.52-58.81z"/>
				<g>
					<path class="st2" d="M210.12-73.87c-0.91-4.88-2.97-9.47-4.8-14.05c-1.8-4.49-3.33-9.39-6.36-13.24
						c-1.46-1.86-3.23-3.44-5.02-4.98c-1.78-1.53-3.6-3.04-5.55-4.35c-7.71-5.2-17.59-5.59-25.51-0.6
						c-7.4,4.67-11.93,12.51-14.48,20.7c-1.63,5.24-2.55,10.67-3.41,16.08c-0.91,5.78-1.39,11.53-0.79,17.37c0.19,1.9,3.2,1.92,3,0
						c-0.94-9.23,0.66-18.69,2.75-27.67c1.87-8.02,5.04-15.94,11.32-21.52c6.26-5.57,15.23-7.33,22.84-3.4
						c3.82,1.97,7.26,4.93,10.34,7.9c3.35,3.23,5.01,7.18,6.72,11.42c1.97,4.88,4.25,9.79,5.56,14.9
						c1.32,5.14,1.36,10.54,0.21,15.72c-0.42,1.88,2.47,2.68,2.89,0.8C210.93-63.78,211.05-68.88,210.12-73.87z"/>
					<path class="st2" d="M201.07-60.37c-2-6.98-2.9-14.3-5.63-21.06c-2.28-5.66-5.86-11.22-11.38-14.18
						c-5-2.68-11.58-3.22-16.51-0.06c-5.55,3.56-7.56,10.67-9.22,16.66c-2.07,7.43-3.86,16.48-0.38,23.75
						c0.83,1.74,3.42,0.22,2.59-1.51c-2.77-5.78-1.38-13.23,0.09-19.18c0.74-3.03,1.65-6.04,2.75-8.96
						c0.99-2.61,2.29-5.21,4.36-7.13c3.89-3.59,9.97-3.43,14.48-1.14c4.98,2.53,8.28,7.51,10.33,12.56
						c2.74,6.76,3.63,14.08,5.63,21.06C198.71-57.72,201.6-58.5,201.07-60.37z"/>
					<path class="st2" d="M192.32-60.86c-1.76-3.87-1.17-8.34-2.37-12.37c-1.08-3.62-3.39-6.77-6.44-8.98
						c-1.55-1.12-3.43-2.17-5.4-2.04c-1.91,0.13-3.67,1.14-5.11,2.35c-2.73,2.28-4.36,5.81-4.9,9.28
						c-0.81,5.15,0.47,10.27,1.78,15.23c0.49,1.87,3.39,1.07,2.89-0.8c-1.7-6.46-3.8-14.67,1.09-20.34c0.99-1.14,2.31-2.24,3.8-2.61
						c1.73-0.43,3.5,0.83,4.79,1.88c2.52,2.06,4.23,4.89,4.92,8.06c0.88,3.99,0.64,8.07,2.36,11.87
						C190.53-57.59,193.11-59.11,192.32-60.86z"/>
					<path class="st2" d="M225.42-60.51c-0.81-7.23-0.32-14.5-1.25-21.71c-0.85-6.54-2.49-12.96-4.94-19.08
						c-2.45-6.12-5.61-11.93-9.51-17.25c-3.87-5.28-8.3-9.95-14.26-12.84c-11.16-5.41-24.09-4.71-35.64-0.96
						c-6.45,2.1-12.96,4.16-17.77,9.19c-4.6,4.82-7.34,11.05-8.97,17.44c-2,7.85-2.98,16.16-3.34,24.24
						c-0.37,8.2,0.26,16.48,2.58,24.38c0.54,1.85,3.44,1.06,2.89-0.8c-3.95-13.47-2.86-28.03-0.39-41.68
						c1.16-6.38,2.95-12.75,6.66-18.15c1.6-2.32,3.57-4.47,5.87-6.11c2.67-1.91,5.71-3.01,8.78-4.09c5.98-2.1,11.97-3.96,18.33-4.33
						c5.67-0.33,11.4,0.32,16.75,2.29c5.72,2.11,10.27,5.83,14.07,10.54c3.89,4.82,7.13,10.17,9.7,15.8
						c2.92,6.38,4.93,13.2,5.99,20.14c1.17,7.62,0.58,15.33,1.44,22.98C222.64-58.61,225.64-58.59,225.42-60.51z"/>
				</g>
				<path class="st3" d="M134.74-59.68H144c-0.23-4.91,0.22-9.76,0.99-14.63c0.85-5.41,1.77-10.84,3.41-16.08
					c2.55-8.18,7.08-16.03,14.48-20.7c7.92-5,17.8-4.6,25.51,0.6c1.95,1.32,3.77,2.82,5.55,4.35c1.79,1.54,3.56,3.12,5.02,4.98
					c3.03,3.85,4.56,8.74,6.36,13.24c1.84,4.58,3.9,9.17,4.8,14.05c0.88,4.71,0.81,9.5-0.12,14.19h12.77
					c-0.18-0.22-0.31-0.49-0.34-0.82c-0.85-7.65-0.27-15.36-1.44-22.98c-1.07-6.94-3.07-13.76-5.99-20.14
					c-2.58-5.62-5.82-10.98-9.7-15.8c-3.8-4.71-8.35-8.43-14.07-10.54c-5.35-1.97-11.08-2.62-16.75-2.29
					c-6.37,0.37-12.35,2.23-18.33,4.33c-3.07,1.08-6.11,2.17-8.78,4.09c-2.3,1.65-4.27,3.79-5.87,6.11
					c-3.71,5.4-5.5,11.77-6.66,18.15C132.47-86.53,131.37-72.65,134.74-59.68z"/>
				<path class="st4" d="M206.95-59.68c1.14-5.16,1.09-10.53-0.22-15.65c-1.31-5.11-3.58-10.02-5.56-14.9
					c-1.71-4.24-3.37-8.18-6.72-11.42c-3.08-2.97-6.52-5.93-10.34-7.9c-7.61-3.92-16.58-2.16-22.84,3.4
					c-6.28,5.58-9.45,13.51-11.32,21.52c-1.89,8.1-3.37,16.58-2.95,24.94h9.49c-1.3-6.31,0.18-13.34,1.84-19.33
					c1.67-5.99,3.67-13.1,9.22-16.66c4.92-3.16,11.51-2.62,16.51,0.06c5.52,2.96,9.09,8.52,11.38,14.18
					c2.73,6.76,3.63,14.08,5.63,21.06c0.07,0.25,0.08,0.48,0.04,0.68H206.95z"/>
				<path class="st4" d="M189.59-59.68c-1.56-3.7-1.38-7.65-2.23-11.53c-0.7-3.17-2.4-6-4.92-8.06c-1.29-1.05-3.05-2.32-4.79-1.88
					c-1.49,0.37-2.82,1.47-3.8,2.61c-4.52,5.24-3.07,12.66-1.48,18.85H189.59z"/>
				<path class="st3" d="M192.37-59.68h5.77c-1.97-6.95-2.88-14.22-5.6-20.95c-2.05-5.05-5.35-10.03-10.33-12.56
					c-4.51-2.29-10.59-2.45-14.48,1.14c-2.08,1.92-3.38,4.52-4.36,7.13c-1.1,2.92-2,5.93-2.75,8.96c-1.23,5-2.4,11.04-1.11,16.27
					h9.76c-1.06-4.24-1.87-8.58-1.19-12.94c0.54-3.47,2.18-6.99,4.9-9.28c1.44-1.21,3.2-2.22,5.11-2.35
					c1.97-0.13,3.85,0.92,5.4,2.04c3.05,2.21,5.35,5.36,6.44,8.98c1.2,4.03,0.61,8.5,2.37,12.37
					C192.51-60.44,192.5-60.03,192.37-59.68z"/>
				<path class="st2" d="M225.24-61.66c-0.16-0.77-1.11-1.29-1.85-1.05c-0.81,0.26-1.22,1.02-1.05,1.85c0.33,1.57,0.63,3,0.66,4.56
					c0.03,1.58-0.37,3.13-0.31,4.71c0.03,0.78,0.67,1.54,1.5,1.5c0.79-0.04,1.53-0.66,1.5-1.5c-0.06-1.64,0.36-3.25,0.31-4.9
					C225.95-58.23,225.6-59.96,225.24-61.66z"/>
			</g>
			<g style="clip-path:url(#SVGID_00000051346066147174286290000016049999547444269230_);">
				<g>
					<path class="st2" d="M156.98-77.35c-2.08-5.48-4.57-10.77-7.51-15.76c-1.4-2.38-2.78-4.65-4.97-6.26
						c-2.17-1.6-4.37-3.5-6.75-4.71c-2.47-1.25-5.1-1.78-7.78-2.17c-2.91-0.42-5.82-0.79-8.74-1.18c-5.7-0.77-11.21-1.44-16.69,0.93
						c-5,2.17-9.48,5.68-13.83,9.09c-4.26,3.34-8.21,7.12-10.73,12.22c-2.94,5.93-4.18,12.75-5.18,19.33
						c-1.11,7.33-1.66,14.75-1.64,22.19c0.01,2.4,3.43,2.4,3.42,0c-0.02-6.19,0.33-12.38,1.13-18.5c0.74-5.64,1.68-11.4,3.45-16.78
						c1.7-5.16,4.52-9.34,8.38-12.83c3.78-3.41,8.03-6.57,12.3-9.19c2.23-1.37,4.57-2.51,7.09-3.11c2.62-0.63,5.32-0.48,7.97-0.18
						c2.78,0.32,5.56,0.73,8.33,1.11c2.56,0.34,5.16,0.59,7.67,1.22c2.57,0.64,4.6,1.92,6.73,3.57c2.08,1.61,4.15,2.77,5.62,5.12
						c2.84,4.53,5.29,9.37,7.37,14.36c4.73,11.36,7.37,23.73,7.82,36.18c0.09,2.39,3.51,2.4,3.42,0
						C163.48-54.59,161.15-66.36,156.98-77.35z"/>
					<path class="st2" d="M149.7-47.01c-0.11-1.01,0-2.03,0.02-3.05c0.02-1.28-0.12-2.54-0.37-3.8c-0.54-2.73-1.35-5.39-1.93-8.11
						c-1.03-4.8-2.4-9.28-4.19-13.81c-2.94-7.43-7.45-15.81-15.35-17.59c-7.17-1.62-15.5,0.64-21.53,5.03
						c-6.02,4.37-10.39,10.91-13.16,18.11c-3.13,8.13-4.27,17.11-3.14,25.84c0.31,2.36,3.61,1.36,3.3-0.99
						c-1.77-13.6,2.82-29.22,12.68-38.1c5.15-4.64,12.16-7.04,18.83-6.59c7.56,0.51,11.88,7.65,14.74,14.51
						c1.9,4.57,3.35,9.14,4.4,14.03c0.58,2.71,1.32,5.37,1.92,8.08c0.44,1.99,0.23,3.99,0.32,5.98c-0.1,0.32-0.1,0.7,0.06,1.13
						c0.02,0.05,0.04,0.09,0.05,0.14c0.03,0.25,0.07,0.51,0.12,0.76c0.35,1.72,3.02,1.83,3.3,0
						C149.87-46.06,149.85-46.48,149.7-47.01z"/>
					<path class="st2" d="M135.51-48.91c-0.24-1.8-0.47-3.61-0.71-5.41c-0.44-3.35-0.88-6.7-1.32-10.05
						c-0.4-3.06-0.77-6.13-2.02-8.95c-1.04-2.34-2.69-4.31-4.64-5.78c-1.95-1.47-4.53-2.57-6.93-2.36c-2.5,0.22-4.58,2.07-6.4,3.8
						c-3.69,3.54-6.46,8.29-7.85,13.42c-1.81,6.66-1.22,13.74,1.3,20.07c0.87,2.19,3.82,0.3,2.96-1.88
						c-3.54-8.89-2-19.51,3.95-26.73c1.33-1.62,2.86-3.17,4.58-4.29c1.94-1.26,4.15-0.47,5.97,0.7c3.9,2.52,4.98,6.92,5.59,11.51
						c0.41,3.04,0.8,6.08,1.19,9.12c0.21,1.6,0.42,3.21,0.63,4.81c0.09,0.7,0.18,1.4,0.28,2.1c0.05,0.4,0.1,0.8,0.16,1.2
						c0.02,0.16,0.04,0.32,0.06,0.48c-0.17,0.39-0.22,0.84-0.16,1.33c0.07,0.57,0.45,1.1,0.93,1.34c0.93,0.45,1.73,0.21,2.34-0.67
						C136.15-46.19,135.67-47.74,135.51-48.91z"/>
				</g>
				<path class="st3" d="M76.63-45.61h13.31c-0.88-8.34,0.27-16.87,3.25-24.62c2.78-7.2,7.14-13.74,13.16-18.11
					c6.04-4.38,14.36-6.64,21.53-5.03c7.9,1.78,12.41,10.16,15.35,17.59c1.79,4.53,3.16,9,4.19,13.81c0.58,2.72,1.39,5.39,1.93,8.11
					c0.25,1.25,0.4,2.51,0.37,3.8c-0.02,1.02-0.12,2.04-0.02,3.05c0.14,0.47,0.16,0.86,0.1,1.4h10.52
					c-0.72-11.47-3.29-22.81-7.65-33.28c-2.08-5-4.53-9.83-7.37-14.36c-1.47-2.35-3.54-3.51-5.62-5.12
					c-2.13-1.65-4.17-2.92-6.73-3.57c-2.52-0.63-5.11-0.87-7.67-1.22c-2.78-0.37-5.55-0.79-8.33-1.11c-2.65-0.3-5.35-0.46-7.97,0.18
					c-2.51,0.6-4.85,1.74-7.09,3.11c-4.28,2.63-8.52,5.78-12.3,9.19c-3.86,3.49-6.69,7.67-8.38,12.83
					c-1.77,5.38-2.71,11.14-3.45,16.78C77.02-56.68,76.68-51.14,76.63-45.61z"/>
				<path class="st3" d="M110.03-45.61h22.18c-0.02-0.07-0.04-0.14-0.05-0.21c-0.06-0.49,0-0.94,0.16-1.33
					c-0.02-0.16-0.04-0.32-0.06-0.48c-0.05-0.4-0.11-0.8-0.16-1.2c-0.09-0.7-0.18-1.4-0.28-2.1c-0.21-1.6-0.42-3.21-0.63-4.81
					c-0.4-3.04-0.79-6.08-1.19-9.12c-0.62-4.59-1.69-9-5.59-11.51c-1.82-1.17-4.03-1.96-5.97-0.7c-1.72,1.12-3.25,2.67-4.58,4.29
					c-5.94,7.22-7.49,17.84-3.95,26.73C109.96-45.9,110-45.75,110.03-45.61z"/>
				<path class="st4" d="M135.66-45.61h10.79c-0.03-0.19-0.06-0.39-0.09-0.58c-0.02-0.05-0.04-0.09-0.05-0.14
					c-0.16-0.43-0.16-0.81-0.06-1.13c-0.09-1.99,0.12-3.99-0.32-5.98c-0.6-2.71-1.34-5.37-1.92-8.08c-1.04-4.89-2.5-9.46-4.4-14.03
					c-2.85-6.86-7.17-14-14.74-14.51c-6.67-0.45-13.68,1.95-18.83,6.59c-9.8,8.82-14.39,24.32-12.7,37.86h13.11
					c-2.06-5.95-2.46-12.47-0.79-18.63c1.39-5.13,4.16-9.88,7.85-13.42c1.81-1.74,3.9-3.59,6.4-3.8c2.4-0.21,4.98,0.89,6.93,2.36
					c1.95,1.47,3.61,3.44,4.64,5.78c1.24,2.81,1.61,5.89,2.02,8.95c0.44,3.35,0.88,6.7,1.32,10.05c0.24,1.8,0.47,3.61,0.71,5.41
					C135.64-47.9,136.02-46.61,135.66-45.61z"/>
			</g>
			<g style="clip-path:url(#SVGID_00000051346066147174286290000016049999547444269230_);">
				<g>
					<path class="st2" d="M106.18-22.18c-0.91-4.88-2.97-9.47-4.8-14.05c-1.8-4.49-3.33-9.39-6.36-13.24
						c-1.46-1.86-3.23-3.44-5.02-4.98c-1.78-1.53-3.6-3.04-5.55-4.35c-7.71-5.2-17.59-5.59-25.51-0.6
						C51.53-54.72,47-46.88,44.46-38.7c-1.63,5.24-2.55,10.67-3.41,16.08c-0.91,5.78-1.39,11.53-0.79,17.37c0.19,1.9,3.2,1.92,3,0
						c-0.94-9.23,0.66-18.69,2.75-27.67c1.87-8.02,5.04-15.94,11.32-21.52c6.26-5.57,15.23-7.33,22.84-3.4
						c3.82,1.97,7.26,4.93,10.34,7.9c3.35,3.23,5.01,7.18,6.72,11.42c1.97,4.88,4.25,9.79,5.56,14.9
						c1.32,5.14,1.36,10.54,0.21,15.72c-0.42,1.88,2.47,2.68,2.89,0.8C106.99-12.09,107.11-17.18,106.18-22.18z"/>
					<path class="st2" d="M97.13-8.67c-2-6.98-2.9-14.3-5.63-21.06c-2.28-5.66-5.86-11.22-11.38-14.18
						c-5-2.68-11.58-3.22-16.51-0.06c-5.55,3.56-7.56,10.67-9.22,16.66c-2.07,7.43-3.86,16.48-0.38,23.75
						c0.83,1.74,3.42,0.22,2.59-1.51c-2.77-5.78-1.38-13.23,0.09-19.18c0.74-3.03,1.65-6.04,2.75-8.96
						c0.99-2.61,2.29-5.21,4.36-7.13c3.89-3.59,9.97-3.43,14.48-1.14c4.98,2.53,8.28,7.51,10.33,12.56
						c2.74,6.76,3.63,14.08,5.63,21.06C94.76-6.02,97.66-6.81,97.13-8.67z"/>
					<path class="st2" d="M88.37-9.16c-1.76-3.87-1.17-8.34-2.37-12.37c-1.08-3.62-3.39-6.77-6.44-8.98
						c-1.55-1.12-3.43-2.17-5.4-2.04c-1.91,0.13-3.67,1.14-5.11,2.35c-2.73,2.28-4.36,5.81-4.9,9.28
						c-0.81,5.15,0.47,10.27,1.78,15.23c0.49,1.87,3.39,1.07,2.89-0.8c-1.7-6.46-3.8-14.67,1.09-20.34c0.99-1.14,2.31-2.24,3.8-2.61
						c1.73-0.43,3.5,0.83,4.79,1.88c2.52,2.06,4.23,4.89,4.92,8.06c0.88,3.99,0.64,8.07,2.36,11.87
						C86.58-5.89,89.17-7.41,88.37-9.16z"/>
					<path class="st2" d="M121.48-8.81c-0.81-7.23-0.32-14.5-1.25-21.71c-0.85-6.54-2.49-12.96-4.94-19.08
						c-2.45-6.12-5.61-11.93-9.51-17.25c-3.87-5.28-8.3-9.95-14.26-12.84c-11.16-5.41-24.09-4.71-35.64-0.96
						c-6.45,2.1-12.96,4.16-17.77,9.19c-4.6,4.82-7.34,11.05-8.97,17.44c-2,7.85-2.98,16.16-3.34,24.24
						c-0.37,8.2,0.26,16.48,2.58,24.38c0.54,1.85,3.44,1.06,2.89-0.8c-3.95-13.47-2.86-28.03-0.39-41.68
						c1.16-6.38,2.95-12.75,6.66-18.15c1.6-2.32,3.57-4.47,5.87-6.11c2.67-1.91,5.71-3.01,8.78-4.09c5.98-2.1,11.97-3.96,18.33-4.33
						c5.67-0.33,11.4,0.32,16.75,2.29c5.72,2.11,10.27,5.83,14.07,10.54c3.89,4.82,7.13,10.17,9.7,15.8
						c2.92,6.38,4.93,13.2,5.99,20.14c1.17,7.62,0.58,15.33,1.44,22.98C118.69-6.92,121.7-6.89,121.48-8.81z"/>
				</g>
				<path class="st3" d="M30.79-7.99h9.27c-0.23-4.91,0.22-9.76,0.99-14.63c0.85-5.41,1.77-10.84,3.41-16.08
					c2.55-8.18,7.08-16.03,14.48-20.7c7.92-5,17.8-4.6,25.51,0.6c1.95,1.32,3.77,2.82,5.55,4.35c1.79,1.54,3.56,3.12,5.02,4.98
					c3.03,3.85,4.56,8.74,6.36,13.24c1.84,4.58,3.9,9.17,4.8,14.05c0.88,4.71,0.81,9.5-0.12,14.19h12.77
					c-0.18-0.22-0.31-0.49-0.34-0.82c-0.85-7.65-0.27-15.36-1.44-22.98c-1.07-6.94-3.07-13.76-5.99-20.14
					c-2.58-5.62-5.82-10.98-9.7-15.8c-3.8-4.71-8.35-8.43-14.07-10.54c-5.35-1.97-11.08-2.62-16.75-2.29
					c-6.37,0.37-12.35,2.23-18.33,4.33c-3.07,1.08-6.11,2.17-8.78,4.09c-2.3,1.65-4.27,3.79-5.87,6.11
					c-3.71,5.4-5.5,11.77-6.66,18.15C28.53-34.83,27.43-20.95,30.79-7.99z"/>
				<path class="st4" d="M103.01-7.99c1.14-5.16,1.09-10.53-0.22-15.65c-1.31-5.11-3.58-10.02-5.56-14.9
					c-1.71-4.24-3.37-8.18-6.72-11.42c-3.08-2.97-6.52-5.93-10.34-7.9c-7.61-3.92-16.58-2.16-22.84,3.4
					c-6.28,5.58-9.45,13.51-11.32,21.52c-1.89,8.1-3.37,16.58-2.95,24.94h9.49c-1.3-6.31,0.18-13.34,1.84-19.33
					c1.67-5.99,3.67-13.1,9.22-16.66c4.92-3.16,11.51-2.62,16.51,0.06c5.52,2.96,9.09,8.52,11.38,14.18
					c2.73,6.76,3.63,14.08,5.63,21.06c0.07,0.25,0.08,0.48,0.04,0.68H103.01z"/>
				<path class="st4" d="M85.65-7.99c-1.56-3.7-1.38-7.65-2.23-11.53c-0.7-3.17-2.4-6-4.92-8.06c-1.29-1.05-3.05-2.32-4.79-1.88
					c-1.49,0.37-2.82,1.47-3.8,2.61c-4.52,5.24-3.07,12.66-1.48,18.85H85.65z"/>
				<path class="st3" d="M88.43-7.99h5.77c-1.97-6.95-2.88-14.22-5.6-20.95c-2.05-5.05-5.35-10.03-10.33-12.56
					c-4.51-2.29-10.59-2.45-14.48,1.14c-2.08,1.92-3.38,4.52-4.36,7.13c-1.1,2.92-2,5.93-2.75,8.96c-1.23,5-2.4,11.04-1.11,16.27
					h9.76c-1.06-4.24-1.87-8.58-1.19-12.94c0.54-3.47,2.18-6.99,4.9-9.28c1.44-1.21,3.2-2.22,5.11-2.35
					c1.97-0.13,3.85,0.92,5.4,2.04c3.05,2.21,5.35,5.36,6.44,8.98c1.2,4.03,0.61,8.5,2.37,12.37C88.56-8.74,88.56-8.34,88.43-7.99z"
					/>
			</g>
			<g style="clip-path:url(#SVGID_00000051346066147174286290000016049999547444269230_);">
				<g>
					<path class="st2" d="M206.18-22.18c-0.91-4.88-2.97-9.47-4.8-14.05c-1.8-4.49-3.33-9.39-6.36-13.24
						c-1.46-1.86-3.23-3.44-5.02-4.98c-1.78-1.53-3.6-3.04-5.55-4.35c-7.71-5.2-17.59-5.59-25.51-0.6
						c-7.4,4.67-11.93,12.51-14.48,20.7c-1.63,5.24-2.55,10.67-3.41,16.08c-0.91,5.78-1.39,11.53-0.79,17.37c0.19,1.9,3.2,1.92,3,0
						c-0.94-9.23,0.66-18.69,2.75-27.67c1.87-8.02,5.04-15.94,11.32-21.52c6.26-5.57,15.23-7.33,22.84-3.4
						c3.82,1.97,7.26,4.93,10.34,7.9c3.35,3.23,5.01,7.18,6.72,11.42c1.97,4.88,4.25,9.79,5.56,14.9
						c1.32,5.14,1.36,10.54,0.21,15.72c-0.42,1.88,2.47,2.68,2.89,0.8C206.99-12.09,207.11-17.18,206.18-22.18z"/>
					<path class="st2" d="M197.13-8.67c-2-6.98-2.9-14.3-5.63-21.06c-2.28-5.66-5.86-11.22-11.38-14.18
						c-5-2.68-11.58-3.22-16.51-0.06c-5.55,3.56-7.56,10.67-9.22,16.66c-2.07,7.43-3.86,16.48-0.38,23.75
						c0.83,1.74,3.42,0.22,2.59-1.51c-2.77-5.78-1.38-13.23,0.09-19.18c0.74-3.03,1.65-6.04,2.75-8.96
						c0.99-2.61,2.29-5.21,4.36-7.13c3.89-3.59,9.97-3.43,14.48-1.14c4.98,2.53,8.28,7.51,10.33,12.56
						c2.74,6.76,3.63,14.08,5.63,21.06C194.76-6.02,197.66-6.81,197.13-8.67z"/>
					<path class="st2" d="M188.37-9.16c-1.76-3.87-1.17-8.34-2.37-12.37c-1.08-3.62-3.39-6.77-6.44-8.98
						c-1.55-1.12-3.43-2.17-5.4-2.04c-1.91,0.13-3.67,1.14-5.11,2.35c-2.73,2.28-4.36,5.81-4.9,9.28
						c-0.81,5.15,0.47,10.27,1.78,15.23c0.49,1.87,3.39,1.07,2.89-0.8c-1.7-6.46-3.8-14.67,1.09-20.34c0.99-1.14,2.31-2.24,3.8-2.61
						c1.73-0.43,3.5,0.83,4.79,1.88c2.52,2.06,4.23,4.89,4.92,8.06c0.88,3.99,0.64,8.07,2.36,11.87
						C186.58-5.89,189.17-7.41,188.37-9.16z"/>
					<path class="st2" d="M221.48-8.81c-0.81-7.23-0.32-14.5-1.25-21.71c-0.85-6.54-2.49-12.96-4.94-19.08
						c-2.45-6.12-5.61-11.93-9.51-17.25c-3.87-5.28-8.3-9.95-14.26-12.84c-11.16-5.41-24.09-4.71-35.64-0.96
						c-6.45,2.1-12.96,4.16-17.77,9.19c-4.6,4.82-7.34,11.05-8.97,17.44c-2,7.85-2.98,16.16-3.34,24.24
						c-0.37,8.2,0.26,16.48,2.58,24.38c0.54,1.85,3.44,1.06,2.89-0.8c-3.95-13.47-2.86-28.03-0.39-41.68
						c1.16-6.38,2.95-12.75,6.66-18.15c1.6-2.32,3.57-4.47,5.87-6.11c2.67-1.91,5.71-3.01,8.78-4.09c5.98-2.1,11.97-3.96,18.33-4.33
						c5.67-0.33,11.4,0.32,16.75,2.29c5.72,2.11,10.27,5.83,14.07,10.54c3.89,4.82,7.13,10.17,9.7,15.8
						c2.92,6.38,4.93,13.2,5.99,20.14c1.17,7.62,0.58,15.33,1.44,22.98C218.69-6.92,221.7-6.89,221.48-8.81z"/>
				</g>
				<path class="st3" d="M130.79-7.99h9.27c-0.23-4.91,0.22-9.76,0.99-14.63c0.85-5.41,1.77-10.84,3.41-16.08
					c2.55-8.18,7.08-16.03,14.48-20.7c7.92-5,17.8-4.6,25.51,0.6c1.95,1.32,3.77,2.82,5.55,4.35c1.79,1.54,3.56,3.12,5.02,4.98
					c3.03,3.85,4.56,8.74,6.36,13.24c1.84,4.58,3.9,9.17,4.8,14.05c0.88,4.71,0.81,9.5-0.12,14.19h12.77
					c-0.18-0.22-0.31-0.49-0.34-0.82c-0.85-7.65-0.27-15.36-1.44-22.98c-1.07-6.94-3.07-13.76-5.99-20.14
					c-2.58-5.62-5.82-10.98-9.7-15.8c-3.8-4.71-8.35-8.43-14.07-10.54c-5.35-1.97-11.08-2.62-16.75-2.29
					c-6.37,0.37-12.35,2.23-18.33,4.33c-3.07,1.08-6.11,2.17-8.78,4.09c-2.3,1.65-4.27,3.79-5.87,6.11
					c-3.71,5.4-5.5,11.77-6.66,18.15C128.53-34.83,127.43-20.95,130.79-7.99z"/>
				<path class="st4" d="M203.01-7.99c1.14-5.16,1.09-10.53-0.22-15.65c-1.31-5.11-3.58-10.02-5.56-14.9
					c-1.71-4.24-3.37-8.18-6.72-11.42c-3.08-2.97-6.52-5.93-10.34-7.9c-7.61-3.92-16.58-2.16-22.84,3.4
					c-6.28,5.58-9.45,13.51-11.32,21.52c-1.89,8.1-3.37,16.58-2.95,24.94h9.49c-1.3-6.31,0.18-13.34,1.84-19.33
					c1.67-5.99,3.67-13.1,9.22-16.66c4.92-3.16,11.51-2.62,16.51,0.06c5.52,2.96,9.09,8.52,11.38,14.18
					c2.73,6.76,3.63,14.08,5.63,21.06c0.07,0.25,0.08,0.48,0.04,0.68H203.01z"/>
				<path class="st4" d="M185.65-7.99c-1.56-3.7-1.38-7.65-2.23-11.53c-0.7-3.17-2.4-6-4.92-8.06c-1.29-1.05-3.05-2.32-4.79-1.88
					c-1.49,0.37-2.82,1.47-3.8,2.61c-4.52,5.24-3.07,12.66-1.48,18.85H185.65z"/>
				<path class="st3" d="M188.43-7.99h5.77c-1.97-6.95-2.88-14.22-5.6-20.95c-2.05-5.05-5.35-10.03-10.33-12.56
					c-4.51-2.29-10.59-2.45-14.48,1.14c-2.08,1.92-3.38,4.52-4.36,7.13c-1.1,2.92-2,5.93-2.75,8.96c-1.23,5-2.4,11.04-1.11,16.27
					h9.76c-1.06-4.24-1.87-8.58-1.19-12.94c0.54-3.47,2.18-6.99,4.9-9.28c1.44-1.21,3.2-2.22,5.11-2.35
					c1.97-0.13,3.85,0.92,5.4,2.04c3.05,2.21,5.35,5.36,6.44,8.98c1.2,4.03,0.61,8.5,2.37,12.37
					C188.56-8.74,188.56-8.34,188.43-7.99z"/>
			</g>
			<g style="clip-path:url(#SVGID_00000051346066147174286290000016049999547444269230_);">
				<g>
					<path class="st2" d="M173.46-30.68c-1.83-4.61-4.01-9.07-6.58-13.27c-1.23-2.01-2.44-3.91-4.35-5.27
						c-1.9-1.34-3.83-2.95-5.92-3.97c-2.16-1.06-4.47-1.5-6.82-1.82c-2.55-0.35-5.1-0.67-7.66-1c-5-0.65-9.82-1.21-14.63,0.79
						c-4.39,1.83-8.31,4.78-12.12,7.65c-3.73,2.82-7.19,6-9.41,10.29c-2.57,4.99-3.66,10.74-4.54,16.28
						c-0.97,6.18-1.45,12.42-1.43,18.68c0.01,2.02,3.01,2.02,3,0c-0.02-5.21,0.29-10.42,0.99-15.58c0.65-4.75,1.47-9.6,3.02-14.13
						c1.49-4.35,3.96-7.87,7.35-10.81c3.31-2.88,7.04-5.53,10.79-7.74c1.96-1.15,4.01-2.11,6.21-2.62c2.3-0.53,4.67-0.4,6.99-0.15
						c2.44,0.27,4.87,0.62,7.31,0.93c2.24,0.29,4.52,0.49,6.72,1.03c2.25,0.54,4.04,1.62,5.9,3c1.83,1.36,3.64,2.33,4.93,4.31
						c2.49,3.82,4.64,7.89,6.46,12.09c4.14,9.56,6.46,19.98,6.85,30.46c0.07,2.01,3.08,2.02,3,0
						C179.16-11.52,177.12-21.43,173.46-30.68z"/>
					<path class="st2" d="M167.08-5.13c-0.09-0.85,0-1.71,0.01-2.57c0.02-1.08-0.11-2.14-0.33-3.2c-0.47-2.3-1.18-4.54-1.69-6.83
						c-0.9-4.04-2.1-7.81-3.67-11.62c-2.57-6.26-6.53-13.31-13.45-14.81c-6.29-1.36-13.59,0.54-18.88,4.23
						c-5.27,3.68-9.1,9.19-11.54,15.25c-2.75,6.84-3.74,14.41-2.75,21.76c0.27,1.99,3.16,1.14,2.89-0.83
						c-1.55-11.45,2.48-24.61,11.11-32.08c4.52-3.91,10.66-5.93,16.51-5.55c6.63,0.43,10.42,6.44,12.92,12.22
						c1.66,3.85,2.94,7.7,3.85,11.81c0.51,2.28,1.16,4.53,1.68,6.8c0.39,1.68,0.2,3.36,0.28,5.04c-0.09,0.27-0.09,0.59,0.05,0.96
						c0.01,0.04,0.03,0.08,0.05,0.11c0.03,0.21,0.06,0.43,0.1,0.64c0.31,1.45,2.65,1.54,2.89,0C167.23-4.34,167.21-4.69,167.08-5.13
						z"/>
					<path class="st2" d="M154.64-6.74c-0.21-1.52-0.41-3.04-0.62-4.56c-0.38-2.82-0.77-5.64-1.15-8.46
						c-0.35-2.57-0.68-5.17-1.77-7.54c-0.91-1.97-2.36-3.63-4.07-4.87c-1.71-1.24-3.97-2.16-6.08-1.99
						c-2.19,0.18-4.02,1.74-5.61,3.2c-3.24,2.98-5.66,6.98-6.88,11.3c-1.59,5.6-1.07,11.57,1.14,16.9c0.77,1.85,3.35,0.25,2.59-1.58
						c-3.11-7.49-1.75-16.43,3.46-22.51c1.17-1.36,2.51-2.67,4.01-3.61c1.7-1.06,3.64-0.4,5.23,0.59c3.42,2.12,4.36,5.83,4.9,9.7
						c0.36,2.56,0.7,5.12,1.05,7.68c0.18,1.35,0.37,2.7,0.55,4.05c0.08,0.59,0.16,1.18,0.24,1.77c0.05,0.34,0.09,0.68,0.14,1.01
						c0.02,0.13,0.04,0.27,0.05,0.4c-0.15,0.33-0.2,0.71-0.14,1.12c0.06,0.48,0.39,0.93,0.82,1.13c0.81,0.38,1.52,0.17,2.05-0.56
						C155.2-4.44,154.78-5.74,154.64-6.74z"/>
				</g>
				<path class="st3" d="M103.02-3.95h11.67c-0.77-7.03,0.24-14.21,2.85-20.73c2.43-6.07,6.26-11.57,11.54-15.25
					c5.29-3.69,12.59-5.59,18.88-4.23c6.92,1.5,10.88,8.56,13.45,14.81c1.57,3.81,2.77,7.58,3.67,11.62
					c0.51,2.29,1.22,4.53,1.69,6.83c0.22,1.05,0.35,2.12,0.33,3.2c-0.02,0.86-0.11,1.72-0.01,2.57c0.12,0.4,0.14,0.73,0.08,1.18
					h9.22c-0.64-9.66-2.88-19.21-6.71-28.03c-1.82-4.21-3.97-8.28-6.46-12.09c-1.29-1.98-3.1-2.96-4.93-4.31
					c-1.87-1.39-3.65-2.46-5.9-3c-2.21-0.53-4.48-0.74-6.72-1.03c-2.43-0.32-4.87-0.66-7.31-0.93c-2.32-0.26-4.69-0.38-6.99,0.15
					c-2.2,0.51-4.26,1.47-6.21,2.62c-3.75,2.21-7.47,4.87-10.79,7.74c-3.39,2.94-5.86,6.46-7.35,10.81
					c-1.55,4.53-2.38,9.38-3.02,14.13C103.37-13.28,103.07-8.62,103.02-3.95z"/>
				<path class="st3" d="M132.3-3.95h19.44c-0.02-0.06-0.04-0.12-0.05-0.17c-0.05-0.41,0-0.79,0.14-1.12
					c-0.02-0.13-0.04-0.27-0.05-0.4c-0.05-0.34-0.09-0.68-0.14-1.01c-0.08-0.59-0.16-1.18-0.24-1.77c-0.18-1.35-0.37-2.7-0.55-4.05
					c-0.35-2.56-0.69-5.12-1.05-7.68c-0.54-3.87-1.49-7.58-4.9-9.7c-1.6-0.99-3.54-1.65-5.23-0.59c-1.51,0.94-2.85,2.25-4.01,3.61
					c-5.21,6.08-6.57,15.02-3.46,22.51C132.25-4.2,132.28-4.07,132.3-3.95z"/>
				<path class="st4" d="M154.77-3.95h9.46c-0.03-0.16-0.06-0.33-0.08-0.49c-0.01-0.04-0.03-0.08-0.05-0.11
					c-0.14-0.36-0.14-0.68-0.05-0.96c-0.08-1.68,0.1-3.36-0.28-5.04c-0.52-2.28-1.18-4.52-1.68-6.8c-0.91-4.12-2.19-7.97-3.85-11.81
					c-2.5-5.78-6.29-11.79-12.92-12.22c-5.85-0.38-11.99,1.64-16.51,5.55c-8.59,7.43-12.61,20.48-11.13,31.88h11.49
					c-1.81-5.01-2.16-10.5-0.69-15.69c1.22-4.32,3.65-8.32,6.88-11.3c1.59-1.46,3.42-3.02,5.61-3.2c2.11-0.18,4.36,0.75,6.08,1.99
					c1.71,1.24,3.16,2.9,4.07,4.87c1.09,2.37,1.42,4.96,1.77,7.54c0.38,2.82,0.77,5.64,1.15,8.46c0.21,1.52,0.41,3.04,0.62,4.56
					C154.76-5.88,155.09-4.8,154.77-3.95z"/>
			</g>
			<g style="clip-path:url(#SVGID_00000051346066147174286290000016049999547444269230_);">
				<g>
					<path class="st2" d="M73.46-30.68c-1.83-4.61-4.01-9.07-6.58-13.27c-1.23-2.01-2.44-3.91-4.35-5.27
						c-1.9-1.34-3.83-2.95-5.92-3.97c-2.16-1.06-4.47-1.5-6.82-1.82c-2.55-0.35-5.1-0.67-7.66-1c-5-0.65-9.82-1.21-14.63,0.79
						c-4.39,1.83-8.31,4.78-12.12,7.65c-3.73,2.82-7.19,6-9.41,10.29C3.4-32.29,2.31-26.54,1.43-21C0.46-14.82-0.02-8.57,0-2.31
						c0.01,2.02,3.01,2.02,3,0C2.98-7.52,3.29-12.74,3.99-17.9c0.65-4.75,1.47-9.6,3.02-14.13c1.49-4.35,3.96-7.87,7.35-10.81
						c3.31-2.88,7.04-5.53,10.79-7.74c1.96-1.15,4.01-2.11,6.21-2.62c2.3-0.53,4.67-0.4,6.99-0.15c2.44,0.27,4.87,0.62,7.31,0.93
						c2.24,0.29,4.52,0.49,6.72,1.03c2.25,0.54,4.04,1.62,5.9,3c1.83,1.36,3.64,2.33,4.93,4.31c2.49,3.82,4.64,7.89,6.46,12.09
						c4.14,9.56,6.46,19.98,6.85,30.46c0.07,2.01,3.08,2.02,3,0C79.16-11.52,77.12-21.43,73.46-30.68z"/>
					<path class="st2" d="M67.08-5.13c-0.09-0.85,0-1.71,0.01-2.57c0.02-1.08-0.11-2.14-0.33-3.2c-0.47-2.3-1.18-4.54-1.69-6.83
						c-0.9-4.04-2.1-7.81-3.67-11.62c-2.57-6.26-6.53-13.31-13.45-14.81c-6.29-1.36-13.59,0.54-18.88,4.23
						c-5.27,3.68-9.1,9.19-11.54,15.25c-2.75,6.84-3.74,14.41-2.75,21.76c0.27,1.99,3.16,1.14,2.89-0.83
						c-1.55-11.45,2.48-24.61,11.11-32.08c4.52-3.91,10.66-5.93,16.51-5.55c6.63,0.43,10.42,6.44,12.92,12.22
						c1.66,3.85,2.94,7.7,3.85,11.81c0.51,2.28,1.16,4.53,1.68,6.8c0.39,1.68,0.2,3.36,0.28,5.04c-0.09,0.27-0.09,0.59,0.05,0.96
						c0.01,0.04,0.03,0.08,0.05,0.11c0.03,0.21,0.06,0.43,0.1,0.64c0.31,1.45,2.65,1.54,2.89,0C67.23-4.34,67.21-4.69,67.08-5.13z"
						/>
					<path class="st2" d="M54.64-6.74c-0.21-1.52-0.41-3.04-0.62-4.56c-0.38-2.82-0.77-5.64-1.15-8.46
						c-0.35-2.57-0.68-5.17-1.77-7.54c-0.91-1.97-2.36-3.63-4.07-4.87c-1.71-1.24-3.97-2.16-6.08-1.99
						c-2.19,0.18-4.02,1.74-5.61,3.2c-3.24,2.98-5.66,6.98-6.88,11.3c-1.59,5.6-1.07,11.57,1.14,16.9c0.77,1.85,3.35,0.25,2.59-1.58
						c-3.11-7.49-1.75-16.43,3.46-22.51c1.17-1.36,2.51-2.67,4.01-3.61c1.7-1.06,3.64-0.4,5.23,0.59c3.42,2.12,4.36,5.83,4.9,9.7
						c0.36,2.56,0.7,5.12,1.05,7.68c0.18,1.35,0.37,2.7,0.55,4.05c0.08,0.59,0.16,1.18,0.24,1.77c0.05,0.34,0.09,0.68,0.14,1.01
						c0.02,0.13,0.04,0.27,0.05,0.4c-0.15,0.33-0.2,0.71-0.14,1.12C51.76-3.65,52.09-3.2,52.51-3c0.81,0.38,1.52,0.17,2.05-0.56
						C55.2-4.44,54.78-5.74,54.64-6.74z"/>
				</g>
				<path class="st3" d="M3.02-3.95h11.67c-0.77-7.03,0.24-14.21,2.85-20.73c2.43-6.07,6.26-11.57,11.54-15.25
					c5.29-3.69,12.59-5.59,18.88-4.23c6.92,1.5,10.88,8.56,13.45,14.81c1.57,3.81,2.77,7.58,3.67,11.62
					c0.51,2.29,1.22,4.53,1.69,6.83c0.22,1.05,0.35,2.12,0.33,3.2c-0.02,0.86-0.11,1.72-0.01,2.57c0.12,0.4,0.14,0.73,0.08,1.18
					h9.22c-0.64-9.66-2.88-19.21-6.71-28.03c-1.82-4.21-3.97-8.28-6.46-12.09c-1.29-1.98-3.1-2.96-4.93-4.31
					c-1.87-1.39-3.65-2.46-5.9-3c-2.21-0.53-4.48-0.74-6.72-1.03c-2.43-0.32-4.87-0.66-7.31-0.93c-2.32-0.26-4.69-0.38-6.99,0.15
					c-2.2,0.51-4.26,1.47-6.21,2.62c-3.75,2.21-7.47,4.87-10.79,7.74c-3.39,2.94-5.86,6.46-7.35,10.81
					C5.47-27.5,4.64-22.65,3.99-17.9C3.37-13.28,3.07-8.62,3.02-3.95z"/>
				<path class="st3" d="M32.3-3.95h19.44c-0.02-0.06-0.04-0.12-0.05-0.17c-0.05-0.41,0-0.79,0.14-1.12
					c-0.02-0.13-0.04-0.27-0.05-0.4c-0.05-0.34-0.09-0.68-0.14-1.01c-0.08-0.59-0.16-1.18-0.24-1.77c-0.18-1.35-0.37-2.7-0.55-4.05
					c-0.35-2.56-0.69-5.12-1.05-7.68c-0.54-3.87-1.49-7.58-4.9-9.7c-1.6-0.99-3.54-1.65-5.23-0.59c-1.51,0.94-2.85,2.25-4.01,3.61
					c-5.21,6.08-6.57,15.02-3.46,22.51C32.25-4.2,32.28-4.07,32.3-3.95z"/>
				<path class="st4" d="M54.77-3.95h9.46c-0.03-0.16-0.06-0.33-0.08-0.49c-0.01-0.04-0.03-0.08-0.05-0.11
					c-0.14-0.36-0.14-0.68-0.05-0.96c-0.08-1.68,0.1-3.36-0.28-5.04c-0.52-2.28-1.18-4.52-1.68-6.8c-0.91-4.12-2.19-7.97-3.85-11.81
					c-2.5-5.78-6.29-11.79-12.92-12.22c-5.85-0.38-11.99,1.64-16.51,5.55c-8.59,7.43-12.61,20.48-11.13,31.88h11.49
					c-1.81-5.01-2.16-10.5-0.69-15.69c1.22-4.32,3.65-8.32,6.88-11.3c1.59-1.46,3.42-3.02,5.61-3.2c2.11-0.18,4.36,0.75,6.08,1.99
					c1.71,1.24,3.16,2.9,4.07,4.87c1.09,2.37,1.42,4.96,1.77,7.54c0.38,2.82,0.77,5.64,1.15,8.46c0.21,1.52,0.41,3.04,0.62,4.56
					C54.76-5.88,55.09-4.8,54.77-3.95z"/>
			</g>
		</g>
	</g>
</pattern>
<rect class="st5" width="500" height="500"/>
<rect class="st6" width="500" height="500"/>
</svg>
