<?xml version="1.0" encoding="UTF-8"?>
<svg id="Layer_1" data-name="Layer 1" xmlns="http://www.w3.org/2000/svg" viewBox="0 0 464.9338 180.7315">
  <defs>
    <style>
      .cls-1 {
        fill: #3d2617;
      }

      .cls-1, .cls-2, .cls-3, .cls-4, .cls-5, .cls-6, .cls-7, .cls-8, .cls-9, .cls-10, .cls-11, .cls-12, .cls-13, .cls-14, .cls-15, .cls-16, .cls-17, .cls-18, .cls-19, .cls-20, .cls-21, .cls-22 {
        stroke-width: 0px;
      }

      .cls-2 {
        fill: #fce784;
      }

      .cls-3 {
        fill: #f2b253;
      }

      .cls-4 {
        fill: #dbd9d0;
      }

      .cls-5 {
        fill: #9f5424;
      }

      .cls-6 {
        fill: #fdcc50;
      }

      .cls-7 {
        fill: #e6e6e5;
      }

      .cls-8 {
        fill: #614125;
      }

      .cls-9 {
        fill: #d7c8ac;
      }

      .cls-10 {
        fill: #e9dcbe;
      }

      .cls-11 {
        fill: #fde785;
      }

      .cls-12 {
        fill: #f9bc58;
      }

      .cls-13 {
        fill: #f3f0e4;
      }

      .cls-14 {
        fill: #fff9ee;
      }

      .cls-15 {
        fill: #2f383a;
      }

      .cls-16 {
        fill: #f8f4e9;
      }

      .cls-17 {
        fill: #fff4c8;
      }

      .cls-18 {
        fill: #fec058;
      }

      .cls-19 {
        fill: #242c2e;
      }

      .cls-20 {
        fill: #e7d479;
      }

      .cls-21 {
        fill: #beae93;
      }

      .cls-22 {
        fill: #edaa47;
      }
    </style>
  </defs>
  <path class="cls-19" d="M31.7262,82.3851c1.1115-1.1444,2.1277-2.4042,3.3505-3.4139,6.4861-5.3554,13.4771-9.9792,20.9356-13.8547,9.0274-4.6907,18.4316-8.506,28.2404-11.2197,6.5452-1.8108,13.195-3.2409,19.7601-4.9839,5.4937-1.4586,9.6042-4.914,12.1786-9.8798,3.3538-6.4693,6.3463-13.1261,9.4843-19.707.1154-.2421.1259-.5342.1853-.8029,2.6591-2.1815,5.3097-4.3737,7.981-6.5402,1.3989-1.1346,3.278-.5961,3.5514,1.1738.1977,1.2803.1613,2.7694-.3091,3.951-2.3503,5.9036-4.8783,11.7364-7.3442,17.594-1.4015,3.3291-2.8038,6.6579-4.2055,9.9869-.1762.4615-.3525.9229-.5289,1.3842-.5565,1.5191-1.1361,3.0302-1.6648,4.5589-1.0362,2.9963-3.0881,4.6622-6.2198,5.3092-8.0941,1.6723-16.2374,3.1901-24.2188,5.3061-15.9446,4.2271-30.5796,11.4563-44.4257,20.3401-.5228.2998-1.0456.5996-1.5683.8994-1.0796.7252-2.1353,1.4895-3.2437,2.1675-2.2693,1.388-4.6665,1.5524-7.0602.4069-1.6703-.7993-3.255-1.7776-4.878-2.6759Z"/>
  <g>
    <path class="cls-17" d="M52.5431,70.7607c-.3999.3999-.7671.6343-1.1001.6997-1.3999.3345-2.667.2002-3.7998-.3999-1.1343-.6001-1.9673-1.5654-2.5-2.8999-.4673-1.4658-.6328-2.8828-.5-4.25.1328-1.3657.7329-2.6831,1.7998-3.9502,1.6655-1.8657,3.583-3.1997,5.75-4,2.1655-.7998,4.4155-1.2998,6.75-1.5,2.333-.1997,4.7002-.2153,7.1001-.0498,2.3999.167,4.7002.25,6.8999.25,4,0,8.0659.2344,12.2002.6997,4.1328.4673,8.0825,1.3345,11.8501,2.6001,3.7656,1.2671,7.2324,3.0171,10.3999,5.25,3.1655,2.2344,5.8154,5.1172,7.9497,8.6499,1.666,3.4673,2.5156,6.7002,2.5503,9.7002.0327,3-.5674,5.7344-1.8003,8.2002-1.2344,2.4668-3,4.667-5.2998,6.5996-2.2998,1.9346-4.9502,3.5674-7.9502,4.9004-5.2671,2.1343-10.584,3.5342-15.9497,4.1997-5.3672.6675-10.75,1-16.1499,1-.0674,2.6001-.1348,4.9844-.2002,7.1499-.0674,2.1675-.0342,4.0503.1001,5.6504.1328,1.5996.4326,2.8672.8999,3.7998.4658.9346,1.2656,1.4346,2.3999,1.5.1328.1343.25.3174.3501.5498.1001.2344.1826.3848.25.4502.7998.4673,1.1001,1.0674.8999,1.7998-.0669.7329-.5669,1.166-1.5,1.3003-.3345.0654-.6499.1328-.9497.1997-.3003.0659-.6172.1001-.9502.1001-2.5342,0-5.0171.0156-7.4502.0503-2.4341.0327-4.917.0498-7.4497.0498-.7344,0-1.5-.167-2.3003-.5-1.1343-.3999-1.3672-1.1343-.6997-2.2002l.6001-.6997c1.1328-.7329,1.8496-1.6157,2.1499-2.6499.2998-1.0332.4155-2.1504.3501-3.3501v-40.3999c0-4.333-.0176-7.75-.0503-10.25-.0342-2.5-.0498-4.3657-.0498-5.6001,0-1.2329-.0171-2.0156-.0503-2.3501-.0342-.333-.0498-.5654-.0498-.7002-1.0674-.1328-2.2173.0176-3.4502.4502-1.2344.4346-2.334,1.0498-3.2998,1.8501-.9673.7998-1.6343,1.75-2,2.8501-.3672,1.0996-.25,2.25.3501,3.4497.3999.8003.9326,1.2671,1.6001,1.3999.6655.1348,1.3652.1348,2.0996,0,.1328.1348.2002.2676.2002.4004ZM71.0431,100.3603c3.4658.6001,7.1328.5845,11-.0498,3.8657-.6328,7.3657-1.8657,10.5-3.7002,3.1328-1.8325,5.6328-4.25,7.5-7.25,1.8657-3,2.5654-6.5996,2.1001-10.7998-.6675-3.7329-2.0503-6.8154-4.1499-9.25-2.1001-2.4326-4.5674-4.333-7.4004-5.7002-2.834-1.3652-5.8999-2.2998-9.1997-2.7998-3.3003-.5-6.4844-.7158-9.5503-.6499l-.7998,40.1997Z"/>
    <path class="cls-17" d="M122.0431,127.0605c-1.3345-.333-2.0845-.8154-2.25-1.4502-.167-.6328.2827-1.3154,1.3501-2.0498,1.2656-.7998,1.8999-2,1.8999-3.6001,0-2.5327.0327-4.8325.1001-6.8999.0654-2.0654.1157-4.0327.1499-5.8999.0327-1.8657.083-3.7002.1499-5.5.0659-1.8003.1001-3.6655.1001-5.6001-.0674-1.3999-.2998-2.6655-.7002-3.7998-.3999-1.1328-1.1997-2.1328-2.3999-3-.7344-.5332-1.0498-1.1157-.9497-1.75.0996-.6328.6152-1.1157,1.5498-1.4502,1.9326-.8657,3.7827-1.7656,5.5498-2.7002,1.7656-.9326,3.583-1.6655,5.4502-2.1997,1.2656-.2656,2.1001.0669,2.5,1,.3999.9341.4326,1.8672.1001,2.7998-.3999,3-.6343,5.8501-.7002,8.5503-.0669,2.6997-.0845,5.3843-.0498,8.0498.0327,2.667.0825,5.3501.1499,8.0498.0654,2.7002.1001,5.5503.1001,8.5503.1328,1.0669.3657,2.0342.6997,2.8999.333.8672.9658,1.6343,1.9004,2.2998,1.0654.8672,1.3999,1.7002,1,2.5-.4004.8003-1.1348,1.2002-2.2002,1.2002h-13.5ZM119.943,77.8603l4-6.3999c.5327-.8657,1.1001-1.7329,1.7002-2.6001.6001-.8652,1.2329-1.6997,1.8999-2.5.5327-.5996,1.1328-1.0498,1.7998-1.3496.666-.3003,1.4004-.2832,2.2002.0498.7998.3345,1.3657.7998,1.7002,1.3999.3325.6001.5654,1.3003.6997,2.1001.0659.667.0327,1.3999-.1001,2.2002-.1343.7998-.3999,1.584-.7998,2.3496-.3999.7676-.9346,1.4502-1.6001,2.0503-.667.6001-1.4341,1.0342-2.2998,1.2998-1.5347.5347-3.0503.8672-4.5503,1-1.5.1343-3.0498.2671-4.6499.3999Z"/>
    <path class="cls-17" d="M157.1422,90.0605c1.2002-1,2.4155-1.9658,3.6499-2.8999,1.2329-.9331,2.5156-1.75,3.8501-2.4502,1.333-.6997,2.7158-1.1997,4.1499-1.5,1.4331-.2998,2.9502-.3501,4.5503-.1499,2.0654.1343,3.5327.5674,4.3999,1.2998.8657.7344,1.3828,1.6348,1.5498,2.7002.1655,1.0674.083,2.2344-.25,3.5-.3345,1.2671-.667,2.5-1,3.7002-1,2.334-2.2671,3.9668-3.7998,4.8999-1.5347.9341-3.3672,1.3345-5.5,1.1997-1.7344-.0654-2.9346-.9326-3.6001-2.5996-.2002-.666-.2344-1.3003-.1001-1.9004.1328-.5996.3999-1.1152.8003-1.5498.3999-.4326.8828-.7329,1.4497-.8999.5659-.1655,1.1831-.1157,1.8501.1499-.3345.3345-.7173.7002-1.1499,1.1001-.4346.3999-.5171.8345-.25,1.2998.6001.9346,1.3154,1.1846,2.1499.75.833-.4326,1.3828-1.1157,1.6499-2.0498.1328-.6655.1328-1.3501,0-2.0503-.1343-.6997-.4341-1.3154-.8999-1.8496-.4673-.5332-1.1001-.8828-1.8999-1.0503-.8003-.1655-1.7671-.0498-2.8999.3501-1.8672.5342-3.4346,1.5171-4.7002,2.9502-1.2671,1.4341-2.3672,2.8843-3.2998,4.3496-.3345.6675-.5845,1.3672-.75,2.1001-.1675.7344-.25,1.4673-.25,2.2002,0,2.9341.0327,5.8501.0996,8.75.0659,2.8999.1328,5.7842.2002,8.6499,0,.8672.1499,1.6499.4502,2.3501.2998.6997.8154,1.3843,1.5498,2.0498.6001.7344.9658,1.4346,1.1001,2.1001.1328.667-.3003,1.1001-1.3003,1.2998-.7998.2002-1.8672.333-3.1997.4004-1.3345.0654-2.7002.0996-4.1001.0996s-2.75-.0498-4.0498-.1499c-1.3003-.1001-2.3501-.2153-3.1504-.3501-.3999-.1997-.7998-.3828-1.1997-.5498-.3999-.1655-.7002-.3501-.8999-.5498-.2002-.2002-.2676-.4502-.2002-.75.0654-.3003.3999-.6504,1-1.0503.7329-.6001,1.25-1.2998,1.5498-2.1001.3003-.7998.4502-1.6655.4502-2.5996-.0674-4.2002-.0342-8.2158.1001-12.0503.1328-3.8325.1001-7.75-.1001-11.75-.0674-1.1328-.3345-2.2998-.7998-3.5-.4673-1.1997-1.1675-2.2656-2.1001-3.1997-.6001-.7329-.7656-1.4004-.5-2,.2656-.6001.9653-.9658,2.1001-1.1001,1.5327-.2002,3.0654-.3657,4.5996-.5,1.5332-.1328,3.1001-.2002,4.7002-.2002,1.6655.1343,2.6655.7002,3,1.7002.333,1,.6655,2.1343,1,3.3999Z"/>
    <path class="cls-17" d="M210.3419,123.4604c-2.4004,2.3345-4.9502,3.8828-7.6504,4.6499-2.6997.7656-5.3496.8828-7.9497.3501-2.6001-.5342-5.0347-1.6157-7.3003-3.25-2.2671-1.6328-4.1499-3.6499-5.6499-6.0498s-2.4844-5.1328-2.9497-8.2002c-.4658-3.0654-.2329-6.2656.6997-9.6001,2.0659-7.3325,6.3999-12.6328,13-15.8999,3.8003-1.7998,7.833-2.5,12.1001-2.1001,2.0654.2002,4.1001.5503,6.1001,1.0503s3.9326,1.3169,5.7998,2.4497c.2656.1348.5503.2002.8501.2002s.583-.0327.8501-.1001c1.0654-.2656,2.0654-.5498,3-.8501.9326-.2998,1.9326-.4497,3-.4497,1.5327.3345,1.9653,1.1343,1.2998,2.3999-.667,1.3999-1.4844,2.667-2.4497,3.7998-.9673,1.1348-1.5845,2.4673-1.8501,4v22.5c-.0674,1.0674.0498,1.7847.3501,2.1504.2998.3672.6826.5,1.1499.3999.4653-.1001.9653-.333,1.5-.7002.5327-.3657,1-.7153,1.3999-1.0498.2002.1997.4829.5.8501.8999.3657.3999.4155.8999.1499,1.5-.8672,1.5342-2.1846,2.8999-3.9502,4.1001-1.7671,1.1997-3.5669,2-5.3999,2.3999-1.8345.3999-3.4341.2827-4.7998-.3501-1.3672-.6343-2.0845-2.0498-2.1499-4.25ZM213.8419,89.5605c-1.9346-.5327-3.9175-.8828-5.9502-1.0498-2.0342-.166-4-.0332-5.8999.3999-1.8999.4341-3.6846,1.2344-5.3501,2.3999-1.667,1.167-3.1343,2.8174-4.3999,4.9502-1,2.1997-1.6343,4.7168-1.8999,7.5498-.2676,2.8345-.0674,5.5342.5996,8.1001.666,2.5669,1.8657,4.7671,3.6001,6.6001,1.7329,1.834,4.1001,2.8496,7.1001,3.0498,1.6655.3345,3.2329.0171,4.7002-.9502,1.4653-.9653,2.3652-2.3154,2.6997-4.0498.2656-1.2002.1001-2.1001-.5-2.7002-.6001-.5996-1.3501-.8999-2.25-.8999s-1.7842.3003-2.6499.8999c-.8672.6001-1.4346,1.5-1.7002,2.7002-.2671-1.333-.1997-2.3828.2002-3.1499.3999-.7656.8999-1.4829,1.5-2.1499.9326-1.1328,2-1.6157,3.2002-1.4502,1.1997.167,2.3999.5171,3.5996,1.0498l-.1997-14.1997c-.1343-1.5327.0156-2.8828.4497-4.0503.4331-1.1655,1.3501-1.9824,2.75-2.4497l.1001-.1001c.0659-.0654.1001-.1328.1001-.2002,0-.0654.0654-.1655.2002-.2998Z"/>
    <path class="cls-17" d="M236.7413,88.5605c-.3999.0674-.75.0845-1.0498.0498-.3003-.0327-.5674-.0825-.8003-.1499-.2344-.0654-.4668-.1001-.6997-.1001-.2344,0-.5503.0347-.9502.1001-.667.2002-1.3169.4844-1.9497.8501-.6348.3672-1.3501.7173-2.1504,1.0498-.1343-1.0654-.2344-2.0498-.2998-2.9497s0-1.8159.2002-2.75c.1328-.3999.3496-.6499.6499-.75.2998-.1001.6157-.1499.9497-.1499,1.333,0,2.4658-.0503,3.4004-.1504.9326-.0996,1.9653-.1499,3.0996-.1499,0-1.9326-.0669-3.6826-.1997-5.25-.1343-1.5654-.5674-3.1157-1.3003-4.6499-.2671-.8657-.2998-1.5498-.0996-2.0498.1997-.5.7324-.916,1.5996-1.25,1.8657-.666,3.6831-1.333,5.4502-2,1.7656-.666,3.5156-1.333,5.25-2,.333-.1328.6826-.25,1.0498-.3501.3657-.1001.6831.0498.9502.4497.333.6001.333,1.2676,0,2-.7344,1.8672-1.3345,4.1846-1.7998,6.9502-.4673,2.7671-.6348,5.4502-.5,8.0498.7998,0,1.6655-.0156,2.5996-.0498.9331-.0327,1.8657-.1499,2.8003-.3501.9326-.1997,1.7998-.5,2.6001-.8999.7998-.3999,1.5-.9326,2.0996-1.6001.5332.2671.7998.6001.7998,1v1.2002c.1328,1.667-.1338,3.0845-.7998,4.25-.667,1.167-1.7998,1.8501-3.3999,2.0498-.9341.1343-2-.0156-3.1997-.4497-1.2002-.4331-2.2344-.6157-3.1001-.5503-.2002,5.0674-.2173,10.1343-.0503,15.2002.166,5.0669.3159,10.1001.4502,15.1001.1328,1.0669.4658,1.8672,1,2.3999.5327.5342,1.1655.7998,1.8999.7998.7329-.0654,1.4502-.4326,2.1499-1.1001.7002-.6655,1.1157-1.4326,1.25-2.2998.0659-.2656.083-.5156.0503-.75-.0347-.2329-.0503-.4829-.0503-.75-.2671-1.333-.8496-1.833-1.75-1.5-.8999.3345-1.5171,1-1.8496,2-.4004-1-.5347-1.8154-.4004-2.4502.1328-.6328.5-1.2153,1.1001-1.75.6001-.4653,1.3003-.6655,2.1001-.5996.7998.0669,1.5.3672,2.1001.8999.8657.7344,1.5,1.75,1.8999,3.0498.4004,1.3003.5156,2.6172.3496,3.9502-.167,1.3345-.5996,2.5669-1.2998,3.6997-.6997,1.1348-1.7168,1.9346-3.0498,2.4004-.9346.2671-1.9346.4668-3,.5996-1.0674.1348-2.1499.2158-3.25.25-1.1001.0332-2.1499.0332-3.1499,0-1-.0342-1.8999-.1152-2.7002-.25-1-.0654-1.8345-.4653-2.5-1.1997-.667-.7329-1.2173-1.5503-1.6499-2.4502-.4346-.8999-.75-1.8154-.9502-2.75-.1997-.9326-.2998-1.6655-.2998-2.1997l.3999-29.7002Z"/>
    <path class="cls-17" d="M298.2408,107.5605c1.5332-.3999,2.9502-.1499,4.25.75,1.3008.8999,2.1162,2.1499,2.4502,3.75.2656,1.7344.1328,3.4346-.3994,5.1001-.5352,1.667-1.3672,3.1841-2.5,4.5498-1.1348,1.3672-2.5,2.5347-4.1006,3.5-1.5996.9673-3.2998,1.6499-5.0996,2.0503-4.2676,1-8.2344,1.3828-11.9004,1.1499-3.667-.2344-6.917-1-9.75-2.3003-2.834-1.2998-5.167-3.1152-7-5.4497-1.834-2.333-3.0166-5.0659-3.5498-8.2002-.9346-4.0654-1.0996-8.0654-.5-12,.5996-3.9326,1.9326-7.3828,4-10.3501,2.0654-2.9653,4.8652-5.2656,8.4004-6.8999,3.5322-1.6328,7.7324-2.1499,12.5996-1.5498,3.5996.6001,6.7832,1.8672,9.5498,3.7998,2.7656,1.9346,5.1162,4.4673,7.0498,7.6001.6006.9346,1.1162,1.8843,1.5508,2.8501.4326.9673.665,1.8843.6992,2.75.0332.8672-.1836,1.6499-.6494,2.3501-.4678.6997-1.2998,1.2842-2.5,1.75-1.6006.5342-3.1348,1.0996-4.6006,1.6997-1.4668.6001-2.8838,1.1675-4.25,1.7002-1.3672.5342-2.7344,1-4.0996,1.3999-1.3672.3999-2.7842.6343-4.25.7002-2.334.1343-4.5-.083-6.5-.6504-2-.5654-3.8672-1.6499-5.5996-3.25-.4004.9346-.5,2.0674-.3008,3.4004.2002,1.334.6006,2.6841,1.2002,4.0498.6006,1.3672,1.3828,2.6499,2.3506,3.8501.9648,1.1997,2.082,2.1343,3.3496,2.7998,1.1328,1,2.5654,1.7173,4.2998,2.1499,1.7334.4346,3.5332.6172,5.4004.5503,1.8652-.0659,3.7002-.3501,5.5-.8501s3.3496-1.1826,4.6494-2.0498c1.3008-.8657,2.2334-1.916,2.8008-3.1504.5654-1.2324.582-2.6152.0498-4.1499-.335-.6655-.7178-1.25-1.1504-1.75-.4346-.5-.917-1.0498-1.4502-1.6499ZM271.8414,94.5605c.3994-.5327,1-.9829,1.7998-1.3501.7998-.3657,1.6152-.5825,2.4502-.6499.833-.0654,1.5654.0498,2.2002.3501.6328.2998.9824.8843,1.0498,1.75-1.6006.0669-2.9346.3843-4,.9497-1.0674.5674-1.7002,1.5176-1.9004,2.8501-.1338,1.5347.7998,2.6343,2.7998,3.3003,1.4004.4668,2.8008.6499,4.2002.5498,1.4004-.1001,2.7002-.3999,3.9004-.8999s2.2822-1.1328,3.25-1.8999c.9658-.7656,1.75-1.6157,2.3496-2.5503.666-1.0654,1.0654-2.1499,1.2002-3.25.1328-1.1001,0-2.1328-.4004-3.1001-.3994-.9653-1.0342-1.7998-1.8994-2.5-.8672-.6997-1.9346-1.1826-3.2002-1.4497-3.1348-.4658-5.9844.0498-8.5498,1.5498-2.5674,1.5-4.3174,3.6172-5.25,6.3501Z"/>
    <path class="cls-17" d="M323.5397,85.9604c.7334-.3325,1.4004-.6328,2-.8999.6006-.2656,1.2334-.4658,1.9004-.6001,2.4658-.7998,4.75-1.1499,6.8496-1.0498,2.1006.1001,4,.5171,5.7002,1.25,1.7002.7344,3.2002,1.6997,4.5,2.8999s2.416,2.5,3.3496,3.8999c1.2002,1.9346,1.9658,4,2.3008,6.2002.332,2.1997.4648,4.4497.3994,6.75-.0674,2.2998-.2344,4.6343-.5,7-.2666,2.3672-.3994,4.6997-.3994,7s.25,4.5171.75,6.6499,1.4492,4.1001,2.8496,5.8999c.666.6001,1.5,1.1001,2.5,1.5s2,.6328,3,.7002c1,.0654,1.9658-.0347,2.9004-.3003.9326-.2671,1.6992-.7344,2.2998-1.3999.2656-.3999.5-.6001.7002-.6001.1992,0,.332.1001.3994.3003.0654.1997.0654.4653,0,.7998-.0674.333-.167.6328-.2998.8999-1.1348,1.5332-2.5996,2.6001-4.4004,3.2002-1.9336.7329-3.917,1.1499-5.9492,1.25-2.0352.1001-3.9678-.1172-5.8008-.6499-1.834-.5347-3.5-1.4502-5-2.75-1.5-1.3003-2.6836-3.0171-3.5498-5.1499-.8672-2.1328-1.4346-4.416-1.7002-6.8501-.2666-2.4331-.3838-4.9502-.3496-7.5503.0332-2.5996.0996-5.2656.2002-8,.0996-2.7324.1152-5.5.0498-8.2998-.4004-4.5327-1.8174-7.5654-4.25-9.1001-2.4346-1.5327-5.5498-1.3325-9.3496.6001-1,.6001-1.5,1.3672-1.5,2.2998,0,4.4673-.1172,8.9673-.3506,13.5-.2344,4.5347-.3838,9.0674-.4502,13.6001,0,.8672.166,1.6846.5,2.4502.333.7671.8662,1.417,1.6006,1.9497.333.3345.6826.6504,1.0498.9502.3652.2998.4824.75.3496,1.3501-.2666.667-.6494,1.1001-1.1494,1.2998-.5.2002-1.0498.3003-1.6504.3003-1.9346.0654-4,.0825-6.2002.0498-2.1992-.0342-4.2666-.0498-6.1992-.0498-.335-.0674-.6348-.1172-.9004-.1504-.2676-.0342-.5342-.1152-.7998-.25-.6006-.3325-.9678-.8325-1.1006-1.5-.1338-.6655.1006-1.1655.7002-1.5.9326-.6655,1.5156-1.3652,1.75-2.0996.2334-.7329.3506-1.5659.3506-2.5-.1348-4.2002-.1172-8.4829.0498-12.8501.165-4.3657.2158-8.6831.1494-12.9502-.0664-1-.2666-1.9326-.5996-2.7998-.334-.8657-.9346-1.6655-1.7998-2.3999-.9346-.8657-1.2656-1.666-1-2.4004.2656-.7324,1.0322-1.2324,2.2998-1.5,1.4658-.3999,3.0498-.7827,4.75-1.1499,1.7002-.3657,3.2832-.7153,4.75-1.0498l1-.3003c.9326-.1328,1.5996-.0825,2,.1504.4004.2344.7324.8169,1,1.75l.2998,2.1997Z"/>
  </g>
  <g>
    <path class="cls-12" d="M50.5607,163.6528c.0425-.0962.0825-.2056.1196-.3281.0376-.1226.1123-.251.2241-.3838.1123-.1333.272-.2666.48-.4004.208-.1333.5039-.2529.8882-.3599v-9.6162c-.2456-.0103-.4614.022-.6479.0962-.187.0747-.355.208-.5039.3999-.1924.2456-.2324.4644-.1201.6562.1118.1919.2744.3413.4878.4478-.1704.064-.3306.064-.48,0s-.2749-.1626-.376-.2959c-.1016-.1333-.1733-.2881-.2158-.4639-.0425-.1763-.0376-.3384.0161-.4883.1172-.3091.3008-.5542.5518-.7358.2505-.1812.52-.3252.8081-.4321.6719-.2236,1.3652-.3384,2.0801-.3438.7144-.0054,1.4077.0132,2.0796.0562.9067.0854,1.7466.2852,2.52.5996.7734.3149,1.4375.731,1.9922,1.248.5547.5176.9839,1.1338,1.2881,1.8481.3037.7148.4399,1.5039.4077,2.3682-.0107.7466-.1436,1.416-.3999,2.0078-.2559.5918-.6025,1.1118-1.04,1.5601-.4375.4478-.9468.8213-1.5278,1.1201-.5815.2983-1.2026.5356-1.8638.7119-.6616.1758-1.3496.2905-2.0645.3438-.7144.0532-1.4131.0483-2.0957-.0156-.4482-.0537-.8936-.0562-1.3359-.0083-.4429.0479-.8667.1841-1.272.4082ZM54.3844,162.3247c1.3013-.0425,2.3628-.2798,3.1841-.7119s1.4185-1.0962,1.792-1.9922c.2344-.6187.3867-1.2529.4561-1.9038.0693-.6504.0371-1.272-.0962-1.8643-.1333-.5918-.3735-1.1382-.7197-1.6396-.3467-.5015-.8188-.9229-1.416-1.2642-.5122-.2666-1.0376-.4268-1.5762-.48s-1.0854-.0693-1.6401-.0479l.0161,9.9038Z"/>
    <path class="cls-12" d="M62.4484,163.5727c.1064-.2559.2451-.4536.416-.5923.1704-.1382.3516-.2661.5439-.3838,0-.9707.0024-1.8882.0078-2.752.0054-.8643.0132-1.6904.0239-2.48.0107-.7891.0215-1.5522.0322-2.2881.0103-.7358.0161-1.4663.0161-2.1919,0-.1279-.019-.2373-.0562-.3281-.0376-.0903-.1147-.1626-.2319-.2158-.1177-.0532-.2456-.1309-.3843-.2319-.1387-.1016-.2397-.2266-.3037-.376-.0322-.1494.021-.1865.1597-.1123.1709.1387.3545.2295.5522.272.1973.043.4023.0698.6157.0801.5654.0322,1.1177.0161,1.6562-.0479s1.0854-.1333,1.6401-.208c.437-.0532.8638-.104,1.2798-.1523.416-.0479.8159-.0742,1.2002-.0796.3838-.0054.752.0186,1.104.0718.3521.0537.688.1548,1.0078.3042.373.2026.6211.4878.7441.856.1226.3677.1411.7227.0557,1.064s-.2583.6157-.52.8237c-.2612.208-.5894.2539-.9839.1362-.2236-.0747-.4136-.1841-.5679-.3281-.1548-.144-.2749-.3491-.3599-.6157.1382.1172.269.2188.3921.3037.1221.0854.2744.1279.4556.1279.1924-.0103.3174-.0688.376-.1758.0586-.1064.0693-.2241.0322-.3521-.0376-.1279-.1094-.2583-.2158-.3921-.1069-.1333-.2241-.2319-.3521-.2959-.3096-.1387-.688-.2427-1.1362-.312-.4478-.0693-.9121-.1094-1.3921-.1201-.48-.0103-.9575.0059-1.4316.0483-.4751.0425-.8989.1118-1.272.208v4.208c.8213-.0747,1.6343-.1626,2.4399-.2642.8052-.1011,1.6079-.3066,2.4077-.6162.0854.4058.1362.7817.1523,1.1279.0156.3472.04.7124.0718,1.0962-.832-.3198-1.6694-.5332-2.5122-.6401-.8423-.1064-1.7012-.1382-2.5757-.0957v4.752c.2344.0532.4878.0908.7598.1118.272.0215.5469.0376.8242.0479.2773.0112.5493.019.8159.0244s.5225.0078.7681.0078c.3623.0107.7173-.0161,1.064-.0801s.6904-.1704,1.0322-.3198c.2344-.1172.4341-.2588.5996-.4243.1655-.165.2827-.3408.3521-.5278.0693-.1865.0801-.3813.0322-.584-.0483-.2026-.168-.4053-.3604-.6079.2773.0317.5093.1357.6963.312.1865.1758.3438.3838.4722.624.1279.2397.2368.4907.3276.752s.1841.4937.2803.6958c.1382.4697,0,.7788-.416.9282-.1177.0425-.2295.0718-.3359.0879-.1069.0161-.2139.0293-.3203.04-1.8135.0322-3.6055-.0479-5.376-.2397-.832-.0859-1.584-.0991-2.2559-.04-.6719.0581-1.355.1782-2.0479.3599Z"/>
    <path class="cls-12" d="M82.9762,160.6445c.1704-.1704.3623-.2612.5757-.272.2134-.0103.4136.043.6001.1602.1865.1177.3442.2827.4722.4961s.1919.4536.1919.7197c.0107.5015-.1069.9521-.3521,1.3521-.2456.3999-.5654.7173-.96.9521-.3945.2344-.8296.3652-1.3042.3921-.4746.0264-.9414-.083-1.3999-.3281-.5117-.2666-.9761-.624-1.3921-1.0718-.4478-.4805-.853-1.0215-1.2158-1.624s-.6665-1.1602-.9121-1.6724c.0107,0-.0156,0-.0801,0-.064,0-.2451.0059-.5439.0161.0107.3735.0107.7417,0,1.104-.0107.3628.0269.7256.1123,1.0879.0317.1494.085.2881.1597.416s.1865.2349.3364.3203c.0532.0425.0933.0986.1196.168.0269.0693.0347.1387.0239.208s-.0396.1279-.0879.1758c-.0479.0479-.1147.0723-.1997.0723-.1499.021-.3711.0371-.6641.0479-.2935.0103-.5977.0161-.9121.0161-.3149,0-.6133-.0083-.896-.0239-.2827-.0161-.4878-.04-.6162-.0723-.1704-.0425-.2505-.1016-.2397-.1758.0103-.0747.0425-.1709.0962-.2881l.064-.0483c.2021-.1279.3301-.2876.3838-.48.0532-.1919.0747-.3999.064-.624l.0161-8.6235c-.0107-.2026-.064-.3843-.1602-.5444-.0957-.1597-.2134-.2983-.3521-.416-.0532-.0317-.0957-.0771-.1279-.1357-.0317-.0586-.0508-.1118-.0562-.1602-.0054-.0479.0107-.0903.0483-.1279.0371-.0371.0981-.0562.1841-.0562.1172-.0103.2319-.0103.3438,0,.1118.0107.2266.0161.3442.0161.5864.0107,1.1812.0107,1.7837,0,.6025-.0103,1.1948-.0078,1.7759.0083.5815.0156,1.144.0615,1.6885.1357.5439.0747,1.0557.1978,1.5356.3682.4268.1279.8452.3145,1.2563.5601.4102.2451.7729.5356,1.0879.8716.3145.3364.5601.7148.7358,1.1362.1763.4214.2319.8774.168,1.3682-.0854.5547-.2505,1.0293-.4961,1.4238-.2451.3945-.5415.7256-.8877.9922-.3467.2666-.7334.4775-1.1602.6318-.4268.1548-.8667.2749-1.3198.3599-.4536.0854-.9097.144-1.3682.1763-.459.0317-.896.0532-1.312.064.3198.3306.6641.6826,1.0322,1.0557.3677.3735.7544.707,1.1597,1,.4053.2939.8213.52,1.248.6802s.8643.1919,1.312.0962c.1602-.0532.3091-.1333.4482-.2402.1382-.1064.2505-.229.3359-.3677.085-.1387.1382-.2881.1597-.4482s-.0054-.3198-.0796-.48c-.064-.1812-.1709-.2881-.3203-.3198-.1494-.0322-.2988-.0483-.4478-.0483ZM76.608,158.6128c.2559.0425.5493.0669.8799.0718.3306.0059.6665-.0049,1.0083-.0317.3413-.0269.6689-.0723.9839-.1362.3145-.064.584-.144.8081-.2397.4478-.1816.8213-.4243,1.1196-.728.2988-.3042.52-.6401.6641-1.0083.144-.3677.208-.7437.1924-1.1279-.0161-.3838-.1147-.749-.2964-1.0957-.1812-.3467-.4507-.6533-.8076-.9204-.3579-.2661-.8027-.4585-1.3364-.5757-.5757-.1494-1.1255-.2295-1.6479-.2402-.5225-.0103-1.0454,0-1.5679.0322v6Z"/>
  </g>
  <g>
    <path class="cls-12" d="M118.1079,143.3211c-.2668.537-.4902.8639-.672.9819-.1813.118-.4175.059-.7079-.177-.4118-.3011-.7145-.8209-.9078-1.5595-.1941-.7386-.2305-1.5276-.109-2.3669.2664-1.8446.9317-3.0195,1.9973-3.5233.8471-.3687,1.6941-.5948,2.5416-.6796.8471-.0836,1.6941-.1757,2.5421-.2765.9198-.134,1.2948.537,1.1254,2.013-.363,3.0207-.8958,6.066-1.5975,9.1371-.7026,3.0699-1.5133,6.0992-2.433,9.0855-.9202,2.9875-1.9127,5.8817-2.9774,8.6836-1.0656,2.802-2.1427,5.4614-3.2318,7.9782-.1941.4695-.4419.73-.7447.7804s-.551-.1438-.7442-.5788c-.7261-3.2886-1.4104-6.6362-2.0514-10.0428-.6418-3.4054-1.4224-6.7198-2.3422-9.942-1.0895,3.4914-2.1188,6.8464-3.0868,10.0674-.9681,3.2223-1.9969,6.4605-3.0864,9.7159-.2176.671-.5328.9475-.9441.8308-.4118-.118-.7385-.4965-.98-1.1331-.7026-2.1814-1.3076-4.2865-1.8156-6.3179-.5084-2.029-.9752-4.085-1.398-6.1655-.4242-2.0806-.8174-4.2533-1.1804-6.5182-.363-2.2661-.7624-4.74-1.1981-7.4252-.0971-.6046-.1999-1.2498-.3085-1.938-.109-.687-.2487-1.342-.418-1.9626s-.363-1.1749-.5807-1.6615c-.2181-.4867-.4721-.8136-.7628-.9819-.1937-.2347-.3449-.5026-.4539-.8049-.1086-.3023-.1574-.596-.1449-.8811.012-.2851.0909-.5284.2358-.73.1454-.2015.363-.3527.6538-.4535,1.2828,0,2.578-.032,3.8851-.1008,1.3072-.0664,2.5292.0344,3.6675.3023.266.2015.4357.4117.5084.6292.0727.2187.0847.4535.0363.7054-.0488.2507-.1334.4867-.2544.7042-.121.2187-.254.4277-.3994.6292-.2176.2015-.4056.4707-.5625.8049-.1578.3367-.285.714-.3816,1.1331-.0966.4203-.1512.8553-.1631,1.3088-.0124.4535.0182.8639.0909,1.2338.0962,1.4428.2597,3.0195.4902,4.7314.2296,1.7107.508,3.4398.8351,5.1849.3267,1.7451.6897,3.4312,1.0891,5.0583.3994,1.6283.8169,3.0797,1.2531,4.3541.629-1.7783,1.2039-3.5737,1.7247-5.3864.5199-1.8114,1.0221-3.6315,1.5066-5.4614.484-1.8286.9561-3.6573,1.4162-5.4859.4597-1.8286.9441-3.6327,1.4526-5.4122.0966-.2679.2363-.435.4175-.5026.1817-.0676.3568-.0676.5266,0,.1689.0676.3205.1929.4539.3773.133.1843.2114.3945.2358.6292.3635,1.8459.7083,3.5995,1.035,5.2598.3267,1.6615.6777,3.323,1.0532,4.9833.375,1.6615.7806,3.3734,1.2163,5.1345.4357,1.7623.9317,3.6499,1.4889,5.6629.363-.6366.7987-1.5509,1.3072-2.743.5084-1.1908,1.0044-2.491,1.4889-3.9006.484-1.4096.9198-2.8609,1.3072-4.3541.387-1.4931.6409-2.845.7624-4.053.0727-.7374.1512-1.5091.2363-2.3153.0842-.8049.1024-1.5767.0545-2.3153-.0492-.7374-.176-1.3838-.3816-1.938s-.5625-.9647-1.0709-1.2326c-.2181-.134-.4419-.1512-.672-.0504-.2301.0995-.43.2679-.5988.5026-.1698.236-.3032.5211-.3998.8553-.0966.3367-.1449.655-.1449.9573.0239.9401.4477,1.2584,1.2708.9561Z"/>
    <path class="cls-12" d="M133.0319,170.4018c-.8714,1.1761-1.7974,1.9552-2.7779,2.3411s-1.9428.4449-2.8869.1757c-.9441-.2679-1.828-.8123-2.6507-1.6357-.8231-.8222-1.5071-1.8372-2.0518-3.0453-.5443-1.208-.902-2.5832-1.0709-4.128-.1693-1.5423-.0847-3.1534.254-4.8322.75-3.6905,2.324-6.3585,4.7207-8.0028,1.3799-.907,2.8444-1.2584,4.3936-1.0581.75.1008,1.4889.2777,2.215.5297.7265.2507,1.4282.6624,2.1064,1.2326.0962.0676.1995.1008.3085.1008s.2114-.016.3085-.0504c.387-.134.75-.2765,1.0895-.4277.3386-.1512.7017-.2261,1.0895-.2261.5563.1684.7136.5702.4716,1.208-.242.7042-.539,1.342-.8896,1.9122-.3511.5715-.5749,1.2424-.6715,2.013v11.3258c-.0244.5383.0182.8983.1272,1.0827.1086.1856.2478.2519.4175.2015.1689-.0504.3506-.1671.5448-.3527.1933-.1843.363-.3601.508-.5284.0727.1008.1755.2519.3089.4535.1325.2015.1507.4522.0545.7546-.3152.773-.7934,1.46-1.4344,2.0646-.6418.6034-1.2952,1.0065-1.961,1.208-.6662.2003-1.2469.1413-1.7429-.177-.4964-.3195-.7571-1.0311-.7806-2.1396ZM134.3027,153.3381c-.7026-.2679-1.4224-.4449-2.1604-.5284-.7389-.0836-1.4526-.0172-2.1427.2015-.6897.2187-1.3377.6206-1.9423,1.208-.6055.5874-1.1383,1.4182-1.5979,2.491-.363,1.1073-.5935,2.3743-.6897,3.8011-.0971,1.4268-.0244,2.786.2176,4.0776.2416,1.2916.6773,2.3989,1.3072,3.3218.6294.9229,1.4889,1.4342,2.5784,1.5349.6046.1684,1.1737.0086,1.7065-.4781.5319-.4854.859-1.165.9805-2.0388.0962-.6034.0363-1.0569-.1817-1.3592-.2176-.3011-.4902-.4522-.8169-.4522s-.648.1512-.9623.4522c-.3147.3023-.5208.7558-.6175,1.3592-.0971-.671-.0723-1.1994.0727-1.5853.1454-.3859.3267-.746.5448-1.0827.3386-.5702.7261-.8123,1.1618-.73.4357.0848.8719.2605,1.3076.5284l-.0727-7.1475c-.0488-.7718.0058-1.4514.1631-2.0388.1574-.5862.4902-.9979.9987-1.2326l.0363-.0504c.0239-.0332.0363-.0676.0363-.1008s.0239-.0836.0727-.1512Z"/>
    <path class="cls-12" d="M148.6456,154.8989c.1454.4695.1817.8394.109,1.1073-.0727.2691-.207.5026-.4029.7042-.8338.8394-1.7043.789-2.6108-.1512-.0488.1684-.0851.3023-.109.4031-.0244.1008-.0363.2187-.0363.3527v8.7082c0,.8049.1028,1.6197.3085,2.4407.2057.8234.4778,1.5693.8174,2.2403l.1086.3023c.2908.8394.0966,1.3088-.5807,1.4096-1.012-.0676-1.9672-.1094-2.867-.1266s-1.8085-.0246-2.7251-.0246c-.5572-.0664-.7389-.4867-.5448-1.2584l.1454-.3527c.3386-.6034.6409-1.2744.9078-2.013.266-.7374.4113-1.46.4357-2.1641.0727-1.9466.1392-3.7925.1995-5.5376s.1028-3.4484.1272-5.1087c.0239-1.6615.0182-3.3058-.0182-4.9342-.0363-1.6271-.1152-3.296-.2358-5.0079-.0488-.6046-.1999-1.3002-.4539-2.0892-.2544-.7877-.5873-1.3666-.9987-1.7365-.2668-.2679-.3754-.5616-.3267-.8811.0479-.3183.2176-.5616.5084-.73l4.1134-2.3153c.8883-.5039,1.3333-.0836,1.3333,1.2584,0,.537-.0244,1.0655-.0727,1.5853-.0488.5211-.0971,1.0323-.1454,1.5362-.0971,1.4084-.1396,2.7934-.1272,4.1526.012,1.3592.0301,2.743.0545,4.1526.4614-.671,1.0749-1.2154,1.8395-1.6357.7646-.4191,1.5727-.6464,2.4228-.6796.8497-.0332,1.7003.1598,2.5501.5788.8502.4203,1.6028,1.1245,2.2588,2.1138.656.9905,1.1715,2.2907,1.5483,3.9019.3763,1.6099.5155,3.5909.4193,5.9394.0727,1.1749.1144,2.3325.1272,3.473.0115,1.1417.0182,2.2993.0182,3.473,0,.6046.0598,1.1577.1813,1.6615.121.5039.387.9057.7987,1.208.0239,0,.0363.0086.0363.0258s.012.0246.0363.0246c.0966.134.1937.2691.2908.4031.0962.134.0962.3011,0,.5026-.0488.1008-.1272.1856-.2363.2519-.109.0676-.2238.118-.3449.1512-.3152.0664-.7327.1254-1.2526.1757-.5208.0504-1.0594.0762-1.6161.0762-.5572,0-1.1019-.0344-1.6338-.1008-.5328-.0676-.9565-.1512-1.2708-.2519-.1941-.0664-.3089-.1929-.3453-.3773s.0058-.3773.1272-.5788l.1817-.2015c.4113-.3687.6715-.8222.7806-1.3592.109-.5358.1636-1.1073.1636-1.7119,0-.6698.0235-1.5177.0723-2.5414.0483-1.0237.0665-2.1138.0545-3.2714-.0124-1.1589-.0669-2.3325-.1631-3.5246-.0971-1.1908-.285-2.2723-.5629-3.2468-.2788-.9721-.6662-1.7869-1.1622-2.4407-.4964-.655-1.1436-1.0483-1.9423-1.1835-.7753-.1008-1.4162.2015-1.9246.907-.3147.4019-.4663.8885-.4539,1.4587.012.5715.1755,1.0409.4902,1.4096.4113.537.8471.537,1.3072,0l.2903-.553Z"/>
    <path class="cls-12" d="M164.3688,153.5901c.4357-.5039.8768-.9893,1.3253-1.46.4477-.4695.9131-.8811,1.398-1.2338.4836-.3515.9858-.6034,1.5066-.7546.5204-.1512,1.0714-.1757,1.6525-.075.75.0676,1.2828.2851,1.5975.6538.3143.3699.5022.8234.5629,1.3592.0603.537.0301,1.1245-.0909,1.7623-.1215.6378-.242,1.2584-.363,1.8618-.363,1.1749-.8231,1.997-1.3799,2.4665-.5572.4707-1.2225.6722-1.9973.6046-.6294-.0332-1.0656-.4695-1.3072-1.3088-.0727-.3355-.0851-.655-.0363-.9573.0483-.3011.1454-.5604.2908-.7791.1449-.2187.3205-.3699.5261-.4535s.4295-.0578.672.075c-.1215.1684-.2606.3527-.4175.5542-.1578.2015-.1879.4203-.0909.6538.2181.4707.4778.5973.7806.3785s.5022-.5616.5993-1.0323c.0483-.3355.0483-.6796,0-1.0323-.0488-.3515-.1578-.6624-.3267-.9303-.1698-.2691-.3994-.4449-.6902-.5297-.2903-.0823-.6414-.0246-1.0527.177-.6782.2691-1.2473.7632-1.707,1.4845-.4601.7226-.8595,1.4526-1.1981,2.19-.1215.3355-.2123.6882-.2722,1.0569-.0607.3699-.0909.7386-.0909,1.1073,0,1.4772.012,2.9445.0363,4.4045.0239,1.46.0483,2.9113.0727,4.3541,0,.4363.0541.8308.1631,1.1835.109.3515.2961.6968.5629,1.0311.2181.3699.3506.7226.3994,1.0581.0483.3355-.109.553-.4721.6538-.2903.1008-.6777.1671-1.1618.2015-.4845.0332-.9805.0504-1.4889.0504s-.9987-.0258-1.4707-.0762-.8533-.1081-1.1436-.1757c-.1454-.1008-.2908-.1929-.4357-.2765-.1454-.0836-.2544-.177-.3271-.2765-.0723-.1008-.0966-.2274-.0723-.3785.0235-.1512.1449-.3269.363-.5284.266-.3023.4539-.6538.5629-1.0569.1086-.4031.1631-.8381.1631-1.3088-.0244-2.1138-.0124-4.1353.0363-6.066.0483-1.9282.0363-3.9006-.0363-5.9136-.0244-.5702-.1215-1.1577-.2903-1.7623-.1698-.6034-.4238-1.1404-.7624-1.6111-.2181-.3687-.2784-.7042-.1817-1.0065s.3506-.4854.7624-.553c.5567-.1008,1.1135-.1843,1.6706-.2519.5563-.0676,1.1254-.1008,1.7065-.1008.6046.0676.9676.3527,1.0891.8553.121.5039.242,1.0741.3635,1.7119Z"/>
    <path class="cls-12" d="M176.6421,168.2377c.1454-.4695.2301-.9561.2544-1.46.0235-.5026-.1817-.8209-.6175-.9561-.2425-.0664-.4721,0-.6902.2015-.2176.2015-.3511.4707-.3994.8049-.0488.6722.0665,1.2511.3453,1.7365.2779.4879.6228.8652,1.0346,1.1331,2.5421,1.7795,5.0713,1.7795,7.5894,0,.3143-.2347.5926-.5358.8351-.9057.2416-.3687.4113-.7472.5084-1.1331.0962-.3847.0962-.7718,0-1.1577-.0971-.3859-.3395-.73-.7265-1.0323-.6777-.5026-1.3741-.8885-2.0877-1.1577-.7145-.2679-1.4344-.5026-2.1604-.7042-.7265-.2015-1.4468-.3945-2.1609-.5788s-1.4104-.4449-2.0877-.7804c-1.0168-.5039-1.7916-1.1663-2.324-1.9884-.5328-.8222-.8595-1.6947-.9805-2.6176-.1215-.9229-.0607-1.8446.1817-2.7688.2416-.9217.6409-1.7611,1.1981-2.5168.5567-.7546,1.2526-1.3592,2.0882-1.8114.8351-.4535,1.773-.6796,2.8138-.6796.4357-.0332.9317-.0504,1.4889-.0504h4.9747c.4113.1008.7682.2691,1.0714.5026.3023.236.4295.655.3812,1.2584-.0488.6722-.1516,1.3346-.3085,1.9884-.1578.655-.4175,1.2511-.781,1.7869-.2664.4031-.5625.7226-.8896.9573-.3267.2347-.6959.2691-1.1073.1008-.4122-.1008-.7327-.3859-.9623-.8566-.2305-.4695-.2726-.9561-.1272-1.46.1454-.6034.5567-.9217,1.2345-.9561-.3391.4363-.4845.8394-.4357,1.208.0483.3699.1693.6046.3635.7054.1933.1008.3994.0246.617-.2274.2181-.2507.3386-.7963.363-1.6357.0239-.2679-.1875-.5198-.6352-.7546-.4481-.2347-1.0168-.3945-1.7065-.4781-.6902-.0836-1.4224-.1008-2.1972-.0504s-1.465.2003-2.0696.4522c-.6055.2519-1.0656.6132-1.3799,1.0827-.3147.4707-.3391,1.0913-.0727,1.8618.5324.6722,1.1919,1.1503,1.9791,1.4354.7863.2851,1.6276.5112,2.5235.6796.8954.1684,1.785.3613,2.6688.5788.8834.2187,1.6764.596,2.3785,1.1318,2.0093,1.3764,2.7717,3.6081,2.2876,6.6952-.3391,1.8803-.9202,3.3894-1.7429,4.5298-.8231,1.1417-1.7792,1.9884-2.8688,2.5427-1.0891.5542-2.2513.8467-3.4858.8811-1.2345.0332-2.4091-.1352-3.5221-.5039-.6299-.2347-1.2531-.4363-1.8701-.6034-.6175-.1684-1.2526-.2187-1.9064-.1512-.4118-.0344-.7323-.177-.9623-.4277-.2305-.2519-.2965-.612-.1995-1.0827.1933-.8049.387-1.6111.5807-2.4161s.4233-1.5939.6902-2.3657c.363-1.0065.9016-1.6185,1.6157-1.8372.7136-.2187,1.3737.0086,1.9791.6796.5084.5702.6653,1.1822.4721,1.8372-.1941.6538-.5448,1.0987-1.0532,1.3334Z"/>
    <path class="cls-12" d="M200.2087,155.3007c-.2668.4707-.3697.8234-.3089,1.0581.0603.2347.2726.4019.6356.5026.5563.0676,1.0527-.0504,1.4889-.3527.4357-.3011.8586-.6698,1.2708-1.1073.266-.3343.4415-.687.5266-1.0569.0842-.3687.0904-.73.0182-1.0815-.0727-.3527-.2123-.6624-.418-.9315-.2057-.2679-.4663-.4535-.7806-.5542-1.0656-.3023-2.0097-.3097-2.8324-.0246-.8231.2851-1.5248.7718-2.1059,1.46s-1.0594,1.5349-1.4344,2.5414c-.3754,1.0065-.6414,2.0634-.7987,3.1719-.1578,1.1073-.2243,2.2231-.1999,3.3464.0239,1.1257.1454,2.1568.3635,3.0957.3143,1.5104.8351,2.7528,1.5611,3.7249.7265.9745,1.5252,1.6283,2.3967,1.9638s1.7429.3269,2.6143-.0258c.8714-.3515,1.6214-1.0815,2.2513-2.1887.4357-.7718.5448-1.6443.3267-2.6176.5567-.0332,1.0532.134,1.4889.5026.4357.3699.75.8738.9441,1.5104.1454.537.1755,1.0409.0909,1.5104-.0851.4707-.2425.8897-.4721,1.2584-.2305.3699-.4964.6968-.7987.9819-.3032.2839-.5993.494-.8896.6292-1.2593.5702-2.5784.8713-3.9583.9057-1.3799.0332-2.7176-.2015-4.0124-.7042-1.2952-.5039-2.4818-1.2756-3.5585-2.3165-1.0776-1.0397-1.9308-2.3657-2.5598-3.9756-.5811-1.4096-.8958-2.8364-.9441-4.2791-.0488-1.4428.1024-2.8265.4539-4.1526.3506-1.326.8834-2.5586,1.5975-3.7003.7136-1.1404,1.5492-2.1138,2.5057-2.9199.9561-.8049,2.015-1.417,3.1773-1.8372,1.1618-.4191,2.3719-.5616,3.6312-.4277.629.1008,1.2948.3023,1.9969.6046s1.3435.7214,1.9246,1.2584,1.0532,1.1749,1.4162,1.9122c.363.7386.5324,1.5779.5084,2.5168-.0727.8394-.2908,1.5104-.6538,2.0142-.5084.5026-1.0891.9057-1.7429,1.208-.6534.3011-1.3196.4608-1.9969.4781-.6782.0172-1.3258-.1081-1.9428-.3773-.6175-.2691-1.1321-.7386-1.5434-1.4096-.2664-.4695-.3267-.9229-.1813-1.3592.1449-.4363.4592-.6882.9441-.7558Z"/>
    <path class="cls-12" d="M216.9842,154.8989c.1454.4695.1817.8394.109,1.1073-.0727.2691-.207.5026-.4029.7042-.8338.8394-1.7043.789-2.6108-.1512-.0488.1684-.0851.3023-.109.4031-.0244.1008-.0363.2187-.0363.3527v8.7082c0,.8049.1028,1.6197.3085,2.4407.2057.8234.4778,1.5693.8174,2.2403l.1086.3023c.2908.8394.0966,1.3088-.5807,1.4096-1.012-.0676-1.9672-.1094-2.867-.1266s-1.8085-.0246-2.7251-.0246c-.5572-.0664-.7389-.4867-.5448-1.2584l.1454-.3527c.3386-.6034.6409-1.2744.9078-2.013.266-.7374.4113-1.46.4357-2.1641.0727-1.9466.1392-3.7925.1995-5.5376s.1028-3.4484.1272-5.1087c.0239-1.6615.0182-3.3058-.0182-4.9342-.0363-1.6271-.1152-3.296-.2358-5.0079-.0488-.6046-.1999-1.3002-.4539-2.0892-.2544-.7877-.5873-1.3666-.9987-1.7365-.2668-.2679-.3754-.5616-.3267-.8811.0479-.3183.2176-.5616.5084-.73l4.1134-2.3153c.8883-.5039,1.3333-.0836,1.3333,1.2584,0,.537-.0244,1.0655-.0727,1.5853-.0488.5211-.0971,1.0323-.1454,1.5362-.0971,1.4084-.1396,2.7934-.1272,4.1526.012,1.3592.0301,2.743.0545,4.1526.4614-.671,1.0749-1.2154,1.8395-1.6357.7646-.4191,1.5727-.6464,2.4228-.6796.8497-.0332,1.7003.1598,2.5501.5788.8502.4203,1.6028,1.1245,2.2588,2.1138.656.9905,1.172,2.2907,1.5479,3.9019.3768,1.6099.516,3.5909.4193,5.9394.0727,1.1749.1152,2.3325.1277,3.473.0115,1.1417.0177,2.2993.0177,3.473,0,.6046.0603,1.1577.1817,1.6615.1206.5039.3874.9057.7987,1.208.0239,0,.0363.0086.0363.0258s.0124.0246.0363.0246c.0966.134.1933.2691.2908.4031.0966.134.0966.3011,0,.5026-.0488.1008-.1277.1856-.2358.2519-.109.0676-.2243.118-.3457.1512-.3147.0664-.7323.1254-1.2526.1757s-1.0594.0762-1.6152.0762c-.5576,0-1.1019-.0344-1.6347-.1008-.5328-.0676-.9565-.1512-1.2704-.2519-.1941-.0664-.3089-.1929-.3453-.3773s.0058-.3773.1272-.5788l.1817-.2015c.4113-.3687.6711-.8222.7801-1.3592.109-.5358.164-1.1073.164-1.7119,0-.6698.0239-1.5177.0727-2.5414.0479-1.0237.0665-2.1138.0541-3.2714-.0124-1.1589-.0665-2.3325-.1631-3.5246-.0975-1.1908-.2846-2.2723-.5629-3.2468-.2784-.9721-.6662-1.7869-1.1622-2.4407-.4964-.655-1.1436-1.0483-1.9423-1.1835-.7753-.1008-1.4162.2015-1.9246.907-.3147.4019-.4663.8885-.4539,1.4587.012.5715.1755,1.0409.4902,1.4096.4113.537.8471.537,1.3072,0l.2903-.553Z"/>
    <path class="cls-12" d="M241.2764,162.399c.5567-.2015,1.0718-.0762,1.5434.3773.4725.4535.7686,1.0827.8901,1.8876.0957.8725.0479,1.7291-.1454,2.5672-.1941.8394-.4964,1.6025-.9078,2.2907-.4122.6882-.9078,1.2756-1.4893,1.7611-.5807.4867-1.1977.8308-1.851,1.0323-1.5496.5039-2.9902.6956-4.3217.5788-1.3315-.118-2.5115-.5039-3.5398-1.1577-1.0292-.655-1.8767-1.5681-2.5425-2.743s-1.0948-2.55-1.289-4.128c-.3386-2.0462-.3989-4.0604-.1808-6.0402.2172-1.9798.7012-3.7163,1.4521-5.2107.75-1.4919,1.7668-2.6508,3.0505-3.473,1.2828-.8222,2.8076-1.0827,4.5753-.7804,1.3067.3023,2.4627.9401,3.4672,1.9134s1.8581,2.2477,2.5602,3.8257c.2181.4695.4051.9475.5629,1.4342.1569.4867.2411.9487.2544,1.3838.0115.4375-.0674.8308-.2367,1.1835s-.4716.6464-.9078.8811c-.5807.2691-1.1383.553-1.6702.8553-.5328.3023-1.047.5874-1.5434.8553-.4964.2691-.9929.5039-1.4885.7054-.4964.2015-1.0106.3195-1.5434.3527-.8475.0676-1.6338-.0418-2.3599-.3281-.7261-.2839-1.4042-.8308-2.0337-1.6357-.1454.4707-.1817,1.0409-.109,1.7119s.2181,1.3506.4362,2.0388c.2172.6882.5018,1.3334.8528,1.938.3511.6034.7562,1.0741,1.2163,1.4084.4113.5039.9317.8652,1.562,1.0827.6285.2187,1.2828.3109,1.961.2765.6773-.0332,1.3431-.1757,1.9964-.4277.6542-.2519,1.2163-.5948,1.6888-1.0311.4716-.4363.8112-.9647,1.0168-1.5865.2057-.6206.2119-1.3162.0177-2.0892-.1215-.3343-.2597-.6292-.4175-.8799-.1578-.2519-.3324-.5284-.5266-.8308ZM231.6906,155.855c.1454-.2679.3635-.4953.6534-.6796.2908-.1843.5869-.2937.8901-.3269.3023-.0332.5683.0246.7987.1757.2296.1512.3564.4449.3812.8811-.5807.0332-1.0656.1929-1.4521.4781-.3883.2851-.6179.7644-.6906,1.4342-.0488.773.2908,1.326,1.0168,1.6615.5089.2347,1.0168.3269,1.5248.2765.5089-.0504.9805-.2003,1.4166-.4522.4353-.2519.8289-.5702,1.1799-.9561s.6356-.8136.8537-1.2842c.2411-.5358.3865-1.0827.4353-1.6357.0488-.5542,0-1.0741-.1454-1.5607-.1445-.4854-.375-.9057-.6897-1.2584s-.7021-.5948-1.1622-.73c-1.1374-.2347-2.1728.0258-3.1046.7804s-1.5674,1.8213-1.906,3.1964Z"/>
    <path class="cls-12" d="M245.4519,172.2145c-.4849-.1671-.7571-.4105-.8174-.73-.0603-.3183.1028-.6624.4902-1.0323.4601-.4019.6906-1.0065.6906-1.8114,0-1.2756.0115-2.4333.0363-3.473.023-1.0397.0417-2.0302.0541-2.9703.0115-.9389.0301-1.8631.0541-2.7688s.0363-1.8446.0363-2.8192c-.0239-.7042-.1082-1.3408-.2535-1.9122-.1454-.5702-.4362-1.0741-.8714-1.5104-.2668-.2679-.3812-.5616-.3449-.8811.0355-.3183.2234-.5616.562-.73.7021-.435,1.3741-.8885,2.0159-1.3592.6409-.4695,1.3005-.8381,1.9787-1.1073.4592-.1327.7624.0344.9078.5039.1454.4707.1569.9401.0363,1.4096-.1454,1.5104-.2305,2.9445-.2544,4.3037s-.0301,2.7098-.0177,4.0518c.0115,1.3432.0301,2.6938.0541,4.0518.0239,1.3592.0363,2.7946.0363,4.3049.0488.537.133,1.0237.2544,1.4587.1206.4375.3502.8234.6897,1.1577.3874.4375.5089.8566.3635,1.2584-.1454.4031-.4122.6046-.7987.6046h-4.9024ZM244.6895,147.4491l1.4521-3.2223c.1933-.435.3998-.8725.6179-1.3088.2172-.435.4477-.8553.6897-1.2584.1933-.3011.4113-.5284.6534-.6796s.5089-.1426.7987.0258c.2908.1684.4964.4019.6179.7042.1206.3023.2048.655.2535,1.0569.0239.3367.0124.7054-.0363,1.1085-.0488.4019-.1454.7963-.2899,1.1822-.1454.3859-.3395.73-.5816,1.0323s-.5204.5198-.8351.6538c-.5567.2691-1.1073.4363-1.6525.5039-.5443.0676-1.1073.134-1.6879.2015Z"/>
    <path class="cls-12" d="M258.4867,151.5255c.2668-.1671.5089-.3183.7269-.4522.2172-.134.4477-.2347.6897-.3023.8954-.4031,1.7252-.5788,2.4876-.5284s1.4521.2605,2.0691.6292c.6179.3699,1.1622.8553,1.6347,1.46.4716.6034.8768,1.2584,1.2163,1.9626.4353.9745.7136,2.0142.8351,3.1215.1206,1.1073.1693,2.2391.1454,3.398-.0248,1.1577-.0851,2.3325-.1817,3.5233-.0975,1.1908-.1454,2.3657-.1454,3.5233s.0904,2.2735.2722,3.3476c.1817,1.0729.5266,2.0634,1.0354,2.9691.2411.3023.5443.5542.9078.7558.3626.2015.7261.3183,1.0886.3527.3635.032.7145-.0184,1.0532-.1512.3386-.1352.6179-.3699.8351-.7054.0966-.2015.1817-.3023.2544-.3023s.1206.0504.1454.1512c.0239.1008.0239.2347,0,.4031-.0248.1671-.0612.3183-.109.4535-.4122.7718-.9441,1.3088-1.5975,1.6099-.703.3699-1.4229.5788-2.1604.6292-.7394.0504-1.4406-.059-2.1064-.3269-.6658-.2691-1.2713-.73-1.8156-1.3838-.5443-.655-.9752-1.519-1.289-2.593-.3147-1.0729-.5213-2.2219-.617-3.4471-.0975-1.2252-.1401-2.4923-.1277-3.8011s.0363-2.6508.0727-4.0272c.0363-1.3752.0417-2.7688.0186-4.1771-.1454-2.2821-.6605-3.8085-1.5434-4.5814-.8839-.7718-2.015-.671-3.3953.3023-.3635.3023-.5443.6882-.5443,1.1577,0,2.2489-.0426,4.5139-.1277,6.796s-.1392,4.5642-.1631,6.8451c0,.4363.0603.848.1817,1.2338.1206.3859.3138.7128.5807.9807.1206.1684.2482.3281.3812.4793.133.1499.1755.3773.1277.6796-.0975.3355-.2367.553-.4175.6538-.1817.1008-.3821.1512-.5993.1512-.703.0332-1.453.0418-2.2513.0246-.7987-.0172-1.5496-.0246-2.2509-.0246-.1215-.0344-.2305-.059-.3271-.0762s-.1941-.0578-.2908-.1254c-.2172-.1671-.3511-.4191-.3989-.7546-.0488-.3355.0363-.5874.2535-.7558.3395-.3343.5505-.687.6356-1.0569.0851-.3687.1277-.7877.1277-1.2584-.0488-2.1138-.0426-4.2693.0177-6.4679.0603-2.1973.078-4.3713.055-6.5195-.0248-.5026-.0975-.9721-.2181-1.4084-.1215-.4363-.3395-.8394-.6534-1.208-.3395-.4363-.4601-.8394-.3635-1.2093.0966-.3687.375-.6194.8351-.7546.5319-.2015,1.1073-.3945,1.7252-.5788.617-.1843,1.191-.3601,1.7238-.5284l.3635-.1512c.3386-.0664.5807-.0418.7261.0762s.266.4105.3635.8799l.1082,1.1073Z"/>
    <path class="cls-12" d="M275.662,168.54c0,.3699.1028.7214.3094,1.0569.2048.3355.4175.655.6347.9561.3386.4375.43.8148.273,1.1331-.1578.3195-.3945.5284-.7083.6292-.7748.1671-1.6525.2015-2.6329.1008s-1.8457-.2015-2.5957-.3023c-.3883-.0664-.6241-.3023-.7083-.7042-.0851-.4031.0417-.7558.3812-1.0581.6294-.6034.9317-1.4256.9078-2.4665l.0363-22.3493c-.0488-.2679-.1268-.435-.2358-.5026s-.2367-.0836-.3812-.0504c-.1454.0332-.297.059-.4539.075-.1578.0172-.297-.0418-.4175-.1757-.2668-.2691-.3998-.5874-.3998-.9573,0-.3687.133-.687.3998-.9561.6285-.6034,1.2526-1.208,1.8697-1.8114.617-.6046,1.2402-1.1908,1.8697-1.7623.4601-.4695.8652-.5616,1.2172-.2765.3502.2851.5257.7632.5257,1.4342l.109,27.9876Z"/>
    <path class="cls-12" d="M278.7125,172.2145c-.4849-.1671-.7571-.4105-.8174-.73-.0603-.3183.1028-.6624.4902-1.0323.4601-.4019.6906-1.0065.6906-1.8114,0-1.2756.0115-2.4333.0363-3.473.023-1.0397.0417-2.0302.0541-2.9703.0115-.9389.0301-1.8631.0541-2.7688s.0363-1.8446.0363-2.8192c-.0239-.7042-.1082-1.3408-.2535-1.9122-.1454-.5702-.4362-1.0741-.8714-1.5104-.2668-.2679-.3812-.5616-.3449-.8811.0355-.3183.2234-.5616.562-.73.7021-.435,1.3741-.8885,2.0159-1.3592.6409-.4695,1.3005-.8381,1.9787-1.1073.4592-.1327.7624.0344.9078.5039.1454.4707.1569.9401.0363,1.4096-.1454,1.5104-.2305,2.9445-.2544,4.3037s-.0301,2.7098-.0177,4.0518c.0115,1.3432.0301,2.6938.0541,4.0518.0239,1.3592.0363,2.7946.0363,4.3049.0488.537.133,1.0237.2544,1.4587.1206.4375.3502.8234.6897,1.1577.3874.4375.5089.8566.3635,1.2584-.1454.4031-.4122.6046-.7987.6046h-4.9024ZM277.9501,147.4491l1.4521-3.2223c.1933-.435.3998-.8725.6179-1.3088.2172-.435.4477-.8553.6897-1.2584.1933-.3011.4113-.5284.6534-.6796s.5089-.1426.7987.0258c.2908.1684.4964.4019.6179.7042.1206.3023.2048.655.2535,1.0569.0239.3367.0124.7054-.0363,1.1085-.0488.4019-.1454.7963-.2899,1.1822-.1454.3859-.3395.73-.5816,1.0323s-.5204.5198-.8351.6538c-.5567.2691-1.1073.4363-1.6525.5039-.5443.0676-1.1073.134-1.6879.2015Z"/>
    <path class="cls-12" d="M295.3798,155.3007c-.2668.4707-.3697.8234-.3085,1.0581.0594.2347.2722.4019.6347.5026.5567.0676,1.0532-.0504,1.4893-.3527.4353-.3011.859-.6698,1.2704-1.1073.2668-.3343.4415-.687.5266-1.0569.0851-.3687.0913-.73.0186-1.0815-.0727-.3527-.2128-.6624-.4175-.9315-.2066-.2679-.4663-.4535-.781-.5542-1.0656-.3023-2.0097-.3097-2.8324-.0246s-1.5248.7718-2.1055,1.46c-.5816.6882-1.0594,1.5349-1.4344,2.5414-.3759,1.0065-.6418,2.0634-.7996,3.1719-.1569,1.1073-.2234,2.2231-.1995,3.3464.0239,1.1257.1454,2.1568.3635,3.0957.3138,1.5104.8351,2.7528,1.5611,3.7249.7261.9745,1.5248,1.6283,2.3962,1.9638s1.7438.3269,2.6152-.0258c.8714-.3515,1.6214-1.0815,2.2509-2.1887.4362-.7718.5443-1.6443.3271-2.6176.5567-.0332,1.0532.134,1.4885.5026.4362.3699.75.8738.9441,1.5104.1454.537.1755,1.0409.0904,1.5104-.0851.4707-.242.8897-.4716,1.2584-.2305.3699-.4964.6968-.7987.9819-.3032.2839-.5993.494-.8901.6292-1.2588.5702-2.578.8713-3.9574.9057-1.3803.0332-2.718-.2015-4.0124-.7042-1.2961-.5039-2.4822-1.2756-3.5585-2.3165-1.078-1.0397-1.9308-2.3657-2.5602-3.9756-.5816-1.4096-.8963-2.8364-.9441-4.2791-.0488-1.4428.1028-2.8265.4539-4.1526.3502-1.326.883-2.5586,1.5975-3.7003.7136-1.1404,1.5487-2.1138,2.5053-2.9199.9565-.8049,2.0159-1.417,3.1773-1.8372,1.1622-.4191,2.3723-.5616,3.6312-.4277.6294.1008,1.2952.3023,1.9973.6046s1.344.7214,1.9246,1.2584,1.0532,1.1749,1.4158,1.9122c.3635.7386.5328,1.5779.5089,2.5168-.0727.8394-.2908,1.5104-.6534,2.0142-.5089.5026-1.0895.9057-1.7429,1.208-.6542.3011-1.32.4608-1.9973.4781-.6782.0172-1.3253-.1081-1.9432-.3773-.617-.2691-1.1312-.7386-1.5425-1.4096-.2668-.4695-.3271-.9229-.1817-1.3592s.4592-.6882.9441-.7558Z"/>
    <path class="cls-12" d="M312.1553,154.8989c.1454.4695.1817.8394.109,1.1073-.0727.2691-.2074.5026-.4025.7042-.8342.8394-1.7048.789-2.6117-.1512-.0488.1684-.0851.3023-.1082.4031-.0248.1008-.0363.2187-.0363.3527v8.7082c0,.8049.1019,1.6197.3085,2.4407.2048.8234.4778,1.5693.8165,2.2403l.109.3023c.2908.8394.0966,1.3088-.5807,1.4096-1.0115-.0676-1.9672-.1094-2.867-.1266s-1.8085-.0246-2.7251-.0246c-.5567-.0664-.7385-.4867-.5443-1.2584l.1445-.3527c.3395-.6034.6418-1.2744.9078-2.013.2668-.7374.4113-1.46.4362-2.1641.0727-1.9466.1392-3.7925.1995-5.5376s.1028-3.4484.1277-5.1087c.023-1.6615.0177-3.3058-.0186-4.9342-.0363-1.6271-.1152-3.296-.2358-5.0079-.0488-.6046-.1995-1.3002-.4539-2.0892-.2544-.7877-.5878-1.3666-.9991-1.7365-.266-.2679-.375-.5616-.3262-.8811.0479-.3183.2181-.5616.508-.73l4.1134-2.3153c.8892-.5039,1.3333-.0836,1.3333,1.2584,0,.537-.0239,1.0655-.0727,1.5853-.0488.5211-.0966,1.0323-.1445,1.5362-.0975,1.4084-.1401,2.7934-.1277,4.1526s.0301,2.743.055,4.1526c.461-.671,1.0745-1.2154,1.8386-1.6357.7651-.4191,1.5736-.6464,2.4228-.6796.8502-.0332,1.7003.1598,2.5505.5788.8502.4203,1.6028,1.1245,2.2588,2.1138.656.9905,1.172,2.2907,1.5479,3.9019.3768,1.6099.516,3.5909.4193,5.9394.0727,1.1749.1152,2.3325.1277,3.473.0115,1.1417.0177,2.2993.0177,3.473,0,.6046.0603,1.1577.1817,1.6615.1206.5039.3874.9057.7987,1.208.0239,0,.0363.0086.0363.0258s.0124.0246.0363.0246c.0966.134.1933.2691.2908.4031.0966.134.0966.3011,0,.5026-.0488.1008-.1277.1856-.2358.2519-.109.0676-.2243.118-.3457.1512-.3147.0664-.7323.1254-1.2526.1757s-1.0594.0762-1.6152.0762c-.5576,0-1.1019-.0344-1.6347-.1008-.5328-.0676-.9565-.1512-1.2704-.2519-.1941-.0664-.3085-.1929-.3449-.3773s.0053-.3773.1268-.5788l.1817-.2015c.4113-.3687.672-.8222.7801-1.3592.109-.5358.164-1.1073.164-1.7119,0-.6698.0239-1.5177.0727-2.5414.0479-1.0237.0665-2.1138.0541-3.2714-.0124-1.1589-.0665-2.3325-.1631-3.5246-.0975-1.1908-.2846-2.2723-.5629-3.2468-.2784-.9721-.6658-1.7869-1.1622-2.4407-.4964-.655-1.1436-1.0483-1.9423-1.1835-.7748-.1008-1.4166.2015-1.9246.907-.3147.4019-.4663.8885-.4539,1.4587.0115.5715.1755,1.0409.4902,1.4096.4113.537.8466.537,1.3076,0l.2899-.553Z"/>
    <path class="cls-12" d="M327.4423,158.2207c.7021-.134,1.4468-.3847,2.2331-.7546.7863-.3687,1.5257-.8062,2.2154-1.3088.6897-.5039,1.3067-1.0483,1.8519-1.6357.5443-.5874.9255-1.1835,1.1436-1.7881.1693-.4695.1933-.9475.0727-1.4342-.1215-.4854-.3271-.8308-.617-1.0323-.2668-.1671-.6179-.1585-1.0532.0258-.4362.1843-.7385.4781-.9078.8811-.0727.3699-.0612.6538.0363.8553.0966.2015.2181.3441.3626.4277.1454.0848.2961.1266.4539.1266h.3812c-.4353.8049-.8112,1.1245-1.125.9561-.4601-.0332-.7624-.2433-.9078-.6292s-.2004-.8136-.164-1.2842c.0363-.4695.1454-.9389.3271-1.4096.1817-.4695.3812-.8209.5993-1.0569.7261-.7718,1.5009-1.0901,2.3235-.9561.4601.0676.8776.1352,1.2526.2015.375.0676.7269.1094,1.0532.1254.3271.0172.648.0258.9628.0258.3138,0,.6649-.0332,1.0532-.1008.3138-.1008.562-.0578.7438.1254.1817.1856.2908.4461.3271.7804.0363.3355-.0186.7054-.1631,1.1073-.1454.4031-.3998.7558-.7633,1.0569-.4113.4375-.7987.8897-1.1613,1.3592-.3635.4707-.7509.9573-1.1622,1.46-.8475,1.0065-1.7127,1.9466-2.5966,2.8192s-1.8333,1.6283-2.8501,2.2649c1.0647.8062,1.9486,1.8213,2.6507,3.0453.7021,1.2252,1.3076,2.5513,1.8156,3.9768.508,1.4268.9681,2.8868,1.3803,4.3799.4113,1.4919.8714,2.9101,1.3794,4.2533.4113,1.1736.9805,2.0634,1.7065,2.668.3386.2679.7323.3773,1.1799.3269s.8413-.2101,1.1808-.4781c.3386-.2691.5745-.6292.7074-1.0827s.0665-.9647-.1995-1.5349c.3386,0,.5869.134.7447.4019.1569.2691.2597.5801.3085.9315.0479.3527.0417.7214-.0186,1.1073s-.1392.6968-.2358.9315c-.4353.9389-1.023,1.6111-1.7606,2.0142-.7394.4019-1.5434.4695-2.4149.2003-.9441-.2347-1.7615-.6292-2.4512-1.1822-.6897-.5542-1.2837-1.2007-1.7792-1.938-.4964-.7386-.9264-1.5349-1.289-2.3915-.3635-.8553-.6897-1.7033-.9805-2.5414-.4362-1.208-.8475-2.3657-1.2349-3.473-.3874-1.1085-.7934-2.131-1.2163-3.0711-.4238-.9389-.8892-1.8041-1.398-2.5918-.508-.789-1.1259-1.4686-1.8519-2.0388-.0966,1.0397-.1152,2.088-.0541,3.1461.0603,1.0569.0904,2.1064.0904,3.1461,0,.4695.055.9057.1631,1.3088.109.4019.3094.7546.5993,1.0569.1454.134.242.2519.2908.3515.1933.3023.2597.6046.1995.907s-.2243.5198-.4902.6538c-.1215.0676-.2482.1094-.3812.1266s-.2606.0246-.3812.0246l-3.8856.1512h-.2899c-.0975,0-.1817-.0332-.2544-.1008-.3147-.1008-.508-.2851-.5807-.553-.0727-.2691,0-.5542.2172-.8566.4113-.6034.672-1.2498.781-1.938.109-.687.1631-1.417.1631-2.19-.0488-3.6573-.0426-7.1892.0186-10.5958.0603-3.4054.0301-6.8365-.0913-10.2935-.0239-.4695-.0966-.8885-.2172-1.2584-.1215-.3687-.2793-.7374-.4725-1.1073-.2668-.4031-.43-.8381-.4902-1.3088-.0603-.4695.1144-.8381.5266-1.1073.7261-.4031,1.4583-.7804,2.1968-1.1331.7385-.3515,1.4831-.6956,2.2331-1.0311.1215-.0676.2597-.0762.4175-.0258s.2722.1266.3449.2261c.0488.1352.0727.3109.0727.5297,0,.2175-.0363.4105-.109.5788-.4601,1.1404-.7261,2.3153-.7987,3.5233s-.109,2.4333-.109,3.6745c0,1.6443.0124,3.2886.0363,4.9329s.0488,3.2886.0727,4.9329v.4781c0,.1512.0124.3613.0363.6292Z"/>
    <path class="cls-12" d="M352.497,162.399c.5567-.2015,1.0718-.0762,1.5434.3773.4725.4535.7686,1.0827.8901,1.8876.0957.8725.0479,1.7291-.1454,2.5672-.1941.8394-.4964,1.6025-.9078,2.2907-.4122.6882-.9078,1.2756-1.4893,1.7611-.5807.4867-1.1977.8308-1.851,1.0323-1.5496.5039-2.9902.6956-4.3217.5788-1.3315-.118-2.5115-.5039-3.5398-1.1577-1.0292-.655-1.8767-1.5681-2.5425-2.743s-1.0948-2.55-1.289-4.128c-.3386-2.0462-.3989-4.0604-.1808-6.0402.2172-1.9798.7012-3.7163,1.4521-5.2107.75-1.4919,1.7668-2.6508,3.0505-3.473,1.2828-.8222,2.8076-1.0827,4.5753-.7804,1.3067.3023,2.4627.9401,3.4672,1.9134s1.8581,2.2477,2.5602,3.8257c.2181.4695.4051.9475.5629,1.4342.1569.4867.2411.9487.2544,1.3838.0115.4375-.0674.8308-.2367,1.1835s-.4716.6464-.9078.8811c-.5807.2691-1.1383.553-1.6702.8553-.5328.3023-1.047.5874-1.5434.8553-.4964.2691-.9929.5039-1.4885.7054-.4964.2015-1.0106.3195-1.5434.3527-.8475.0676-1.6338-.0418-2.3599-.3281-.7261-.2839-1.4042-.8308-2.0337-1.6357-.1454.4707-.1817,1.0409-.109,1.7119s.2181,1.3506.4362,2.0388c.2172.6882.5018,1.3334.8528,1.938.3511.6034.7562,1.0741,1.2163,1.4084.4113.5039.9317.8652,1.562,1.0827.6285.2187,1.2828.3109,1.961.2765.6773-.0332,1.3431-.1757,1.9964-.4277.6542-.2519,1.2163-.5948,1.6888-1.0311.4716-.4363.8112-.9647,1.0168-1.5865.2057-.6206.2119-1.3162.0177-2.0892-.1215-.3343-.2597-.6292-.4175-.8799-.1578-.2519-.3324-.5284-.5266-.8308ZM342.9111,155.855c.1454-.2679.3635-.4953.6534-.6796.2908-.1843.5869-.2937.8901-.3269.3023-.0332.5683.0246.7987.1757.2296.1512.3564.4449.3812.8811-.5807.0332-1.0656.1929-1.4521.4781-.3883.2851-.6179.7644-.6906,1.4342-.0488.773.2908,1.326,1.0168,1.6615.5089.2347,1.0168.3269,1.5248.2765.5089-.0504.9805-.2003,1.4166-.4522.4353-.2519.8289-.5702,1.1799-.9561s.6356-.8136.8537-1.2842c.2411-.5358.3865-1.0827.4353-1.6357.0488-.5542,0-1.0741-.1454-1.5607-.1445-.4854-.375-.9057-.6897-1.2584s-.7021-.5948-1.1622-.73c-1.1374-.2347-2.1728.0258-3.1046.7804s-1.5674,1.8213-1.906,3.1964Z"/>
    <path class="cls-12" d="M356.6724,172.2145c-.4849-.1671-.7571-.4105-.8174-.73-.0603-.3183.1028-.6624.4902-1.0323.4601-.4019.6906-1.0065.6906-1.8114,0-1.2756.0115-2.4333.0363-3.473.023-1.0397.0417-2.0302.0541-2.9703.0115-.9389.0301-1.8631.0541-2.7688s.0363-1.8446.0363-2.8192c-.0239-.7042-.1082-1.3408-.2535-1.9122-.1454-.5702-.4362-1.0741-.8714-1.5104-.2668-.2679-.3812-.5616-.3449-.8811.0355-.3183.2234-.5616.562-.73.7021-.435,1.3741-.8885,2.0159-1.3592.6409-.4695,1.3005-.8381,1.9787-1.1073.4592-.1327.7624.0344.9078.5039.1454.4707.1569.9401.0363,1.4096-.1454,1.5104-.2305,2.9445-.2544,4.3037s-.0301,2.7098-.0177,4.0518c.0115,1.3432.0301,2.6938.0541,4.0518.0239,1.3592.0363,2.7946.0363,4.3049.0488.537.133,1.0237.2544,1.4587.1206.4375.3502.8234.6897,1.1577.3874.4375.5089.8566.3635,1.2584-.1454.4031-.4122.6046-.7987.6046h-4.9024ZM355.91,147.4491l1.4521-3.2223c.1933-.435.3998-.8725.6179-1.3088.2172-.435.4477-.8553.6897-1.2584.1933-.3011.4113-.5284.6534-.6796s.5089-.1426.7987.0258c.2908.1684.4964.4019.6179.7042.1206.3023.2048.655.2535,1.0569.0239.3367.0124.7054-.0363,1.1085-.0488.4019-.1454.7963-.2899,1.1822-.1454.3859-.3395.73-.5816,1.0323s-.5204.5198-.8351.6538c-.5567.2691-1.1073.4363-1.6525.5039-.5443.0676-1.1073.134-1.6879.2015Z"/>
    <path class="cls-12" d="M365.097,152.8343c-.1454.0344-.2722.043-.3812.0258s-.2066-.0418-.2908-.0762c-.0851-.032-.1693-.0504-.2544-.0504s-.1995.0184-.3449.0504c-.242.1008-.4778.2446-.7074.4289-.2305.1843-.4902.3601-.781.5284-.0488-.537-.0851-1.0323-.109-1.4858-.0239-.4522,0-.9131.0727-1.3838.0479-.2015.1268-.3269.2358-.3773s.2234-.0762.3449-.0762c.484,0,.8954-.0246,1.2349-.075.3386-.0504.7136-.0762,1.1259-.0762,0-.9721-.0248-1.8532-.0727-2.6422-.0488-.7877-.2066-1.5681-.4725-2.3411-.0966-.435-.109-.7791-.0363-1.0311s.266-.4608.5816-.6292c.6773-.3355,1.3369-.671,1.9787-1.0065.6409-.3355,1.2766-.671,1.906-1.0077.1215-.0664.2482-.1254.3812-.1757s.2482.0246.3457.2261c.1206.3023.1206.6378,0,1.0065-.2668.9401-.4849,2.1064-.6542,3.4988-.1693,1.3936-.2305,2.7442-.1808,4.0518.2899,0,.6046-.0074.9432-.0246.3395-.016.6782-.075,1.0168-.1757s.6542-.2519.9441-.4535c.2908-.2015.5452-.4695.7624-.8049.1941.134.2908.3011.2908.5026v.6046c.0488.8394-.0488,1.5521-.2908,2.1396s-.6534.9303-1.234,1.0311c-.3395.0676-.7261-.0074-1.1622-.2261-.4353-.2175-.8112-.3097-1.1259-.2765-.0727,2.55-.0789,5.1013-.0177,7.6513.0603,2.55.1144,5.0841.1631,7.6009.0488.537.1693.9389.3635,1.208.1933.2679.4229.4019.6897.4019.266-.0332.5266-.2175.781-.553.2535-.3355.4051-.7214.4539-1.1577.0239-.134.0301-.2605.0177-.3785-.0124-.1167-.0177-.2421-.0177-.3773-.0975-.671-.3085-.9229-.6356-.7546s-.5514.5026-.672,1.0065c-.1454-.5039-.1941-.9143-.1454-1.2338.0488-.3183.1817-.6108.3998-.8799.2181-.2347.4716-.3355.7624-.3023s.5443.1843.7624.4535c.3147.3687.5452.8799.6897,1.5349.1454.6538.1879,1.3174.1277,1.9884-.0612.671-.2181,1.2916-.4725,1.8618-.2535.5715-.6232.9745-1.1073,1.208-.3395.1352-.7021.236-1.0895.3023-.3874.0676-.7801.1081-1.1799.1254s-.781.0172-1.1436,0c-.3635-.0172-.6897-.0578-.9805-.1254-.3635-.0332-.6667-.2347-.9078-.6034-.242-.3699-.4424-.7804-.5993-1.2338-.1578-.4535-.2722-.9143-.3449-1.3838s-.109-.8394-.109-1.1073l.1454-14.9512Z"/>
    <path class="cls-12" d="M387.4273,162.399c.5567-.2015,1.0718-.0762,1.5434.3773.4725.4535.7686,1.0827.8901,1.8876.0957.8725.0479,1.7291-.1454,2.5672-.1941.8394-.4964,1.6025-.9078,2.2907-.4122.6882-.9078,1.2756-1.4893,1.7611-.5807.4867-1.1977.8308-1.851,1.0323-1.5496.5039-2.9902.6956-4.3217.5788-1.3315-.118-2.5115-.5039-3.5398-1.1577-1.0292-.655-1.8767-1.5681-2.5425-2.743s-1.0948-2.55-1.289-4.128c-.3386-2.0462-.3989-4.0604-.1808-6.0402.2172-1.9798.7012-3.7163,1.4521-5.2107.75-1.4919,1.7668-2.6508,3.0505-3.473,1.2828-.8222,2.8076-1.0827,4.5753-.7804,1.3067.3023,2.4627.9401,3.4672,1.9134s1.8581,2.2477,2.5602,3.8257c.2181.4695.4051.9475.5629,1.4342.1569.4867.2411.9487.2544,1.3838.0115.4375-.0674.8308-.2367,1.1835s-.4716.6464-.9078.8811c-.5807.2691-1.1383.553-1.6702.8553-.5328.3023-1.047.5874-1.5434.8553-.4964.2691-.9929.5039-1.4885.7054-.4964.2015-1.0106.3195-1.5434.3527-.8475.0676-1.6338-.0418-2.3599-.3281-.7261-.2839-1.4042-.8308-2.0337-1.6357-.1454.4707-.1817,1.0409-.109,1.7119s.2181,1.3506.4362,2.0388c.2172.6882.5018,1.3334.8528,1.938.3511.6034.7562,1.0741,1.2163,1.4084.4113.5039.9317.8652,1.562,1.0827.6285.2187,1.2828.3109,1.961.2765.6773-.0332,1.3431-.1757,1.9964-.4277.6542-.2519,1.2163-.5948,1.6888-1.0311.4716-.4363.8112-.9647,1.0168-1.5865.2057-.6206.2119-1.3162.0177-2.0892-.1215-.3343-.2597-.6292-.4175-.8799-.1578-.2519-.3324-.5284-.5266-.8308ZM377.8415,155.855c.1454-.2679.3635-.4953.6534-.6796.2908-.1843.5869-.2937.8901-.3269.3023-.0332.5683.0246.7987.1757.2296.1512.3564.4449.3812.8811-.5807.0332-1.0656.1929-1.4521.4781-.3883.2851-.6179.7644-.6906,1.4342-.0488.773.2908,1.326,1.0168,1.6615.5089.2347,1.0168.3269,1.5248.2765.5089-.0504.9805-.2003,1.4166-.4522.4353-.2519.8289-.5702,1.1799-.9561s.6356-.8136.8537-1.2842c.2411-.5358.3865-1.0827.4353-1.6357.0488-.5542,0-1.0741-.1454-1.5607-.1445-.4854-.375-.9057-.6897-1.2584s-.7021-.5948-1.1622-.73c-1.1374-.2347-2.1728.0258-3.1046.7804s-1.5674,1.8213-1.906,3.1964Z"/>
    <path class="cls-12" d="M396.6134,151.5255c.2668-.1671.5089-.3183.7269-.4522.2172-.134.4477-.2347.6897-.3023.8954-.4031,1.7252-.5788,2.4876-.5284s1.4521.2605,2.0691.6292c.6179.3699,1.1622.8553,1.6347,1.46.4716.6034.8768,1.2584,1.2163,1.9626.4353.9745.7136,2.0142.8351,3.1215.1206,1.1073.1693,2.2391.1454,3.398-.0248,1.1577-.0851,2.3325-.1817,3.5233-.0975,1.1908-.1454,2.3657-.1454,3.5233s.0904,2.2735.2722,3.3476c.1817,1.0729.5266,2.0634,1.0354,2.9691.2411.3023.5443.5542.9078.7558.3626.2015.7261.3183,1.0886.3527.3635.032.7145-.0184,1.0532-.1512.3386-.1352.6179-.3699.8351-.7054.0966-.2015.1817-.3023.2544-.3023s.1206.0504.1454.1512c.0239.1008.0239.2347,0,.4031-.0248.1671-.0612.3183-.109.4535-.4122.7718-.9441,1.3088-1.5975,1.6099-.703.3699-1.4229.5788-2.1604.6292-.7394.0504-1.4406-.059-2.1064-.3269-.6658-.2691-1.2713-.73-1.8156-1.3838-.5443-.655-.9752-1.519-1.289-2.593-.3147-1.0729-.5213-2.2219-.617-3.4471-.0975-1.2252-.1401-2.4923-.1277-3.8011s.0363-2.6508.0727-4.0272c.0363-1.3752.0417-2.7688.0186-4.1771-.1454-2.2821-.6605-3.8085-1.5434-4.5814-.8839-.7718-2.015-.671-3.3953.3023-.3635.3023-.5443.6882-.5443,1.1577,0,2.2489-.0426,4.5139-.1277,6.796s-.1392,4.5642-.1631,6.8451c0,.4363.0603.848.1817,1.2338.1206.3859.3138.7128.5807.9807.1206.1684.2482.3281.3812.4793.133.1499.1755.3773.1277.6796-.0975.3355-.2367.553-.4175.6538-.1817.1008-.3821.1512-.5993.1512-.703.0332-1.453.0418-2.2517.0246s-1.5496-.0246-2.2509-.0246c-.1215-.0344-.2305-.059-.3271-.0762s-.1941-.0578-.2908-.1254c-.2172-.1671-.3511-.4191-.3989-.7546-.0488-.3355.0363-.5874.2535-.7558.3395-.3343.5505-.687.6356-1.0569.0851-.3687.1277-.7877.1277-1.2584-.0488-2.1138-.0426-4.2693.0177-6.4679.0603-2.1973.078-4.3713.055-6.5195-.0248-.5026-.0975-.9721-.2181-1.4084-.1215-.4363-.3395-.8394-.6534-1.208-.3395-.4363-.4601-.8394-.3635-1.2093.0966-.3687.375-.6194.8351-.7546.5319-.2015,1.1073-.3945,1.7252-.5788.617-.1843,1.1915-.3601,1.7243-.5284l.3635-.1512c.3386-.0664.5807-.0418.7261.0762s.266.4105.3635.8799l.1082,1.1073Z"/>
  </g>
  <g>
    <path class="cls-15" d="M31.7262,82.3851c-7.644-3.3457-15.2999-6.6645-22.9237-10.0555-1.9876-.8841-3.9151-1.9251-5.7916-3.0278-.9414-.5532-1.8916-1.2814-2.4903-2.1657-.4473-.6607-.6969-1.88-.3747-2.5164.3174-.6268,1.4373-1.0928,2.2538-1.1815,5.2615-.5714,10.5576-.8588,15.8012-1.5506,6.2632-.8263,9.7198-4.9777,11.5902-10.6787,1.7597-5.3635,2.007-10.9518,2.1884-16.5216.3331-10.2262,3.8565-18.9979,11.804-25.6248C50.1263,3.7738,57.5858.9982,65.8087.2703c.282-.025.5526-.1774.8286-.2703.6518,0,1.3035,0,1.9553,0,1.7518.2666,3.5132.4818,5.2537.8088,6.6696,1.2529,12.3218,4.4379,17.2441,9.0548,3.5543,3.3337,7.0758,6.72,10.8334,9.814,3.2614,2.6855,7.0238,4.5128,11.4132,4.5772,2.5318.0371,4.8618-.6351,6.9753-2.0239,1.859-1.2215,3.6998-2.4707,5.5487-3.7077-.0594.2688-.0698.5609-.1853.8029-3.138,6.5809-6.1305,13.2376-9.4843,19.707-2.5744,4.9658-6.6849,8.4213-12.1786,9.8798-6.5651,1.743-13.2148,3.1731-19.7601,4.9839-9.8088,2.7137-19.2129,6.529-28.2404,11.2197-7.4585,3.8755-14.4496,8.4993-20.9356,13.8547-1.2228,1.0096-2.239,2.2695-3.3505,3.4139ZM69.5253,35.5704c.9509.6493,1.9514.9032,2.8993.0717.9787-.8586.7359-1.9017.3073-2.9454-.1377-.3353-.4191-.8445-.2898-1.0201,1.133-1.5388.2748-2.9665-.2413-4.3471-1.5539-4.1564-5.6318-6.1689-9.64-4.8518-4.2106,1.3836-6.3204,5.2525-5.0748,9.6154.4311,1.5099.8215,3.1653,2.4454,4.0421.4259.23.8783.6368,1.0489,1.0689.418,1.0585.9429,2.1859,2.1661,1.9643.9025-.1635,1.6739-1.0507,2.6759-1.7327,1.5111.8595,2.8976.3152,3.7031-1.8653ZM61.5548,46.4672q.8677-2.3044-1.1786-4.1019c-.1741-.153-.3295-.327-.5001-.4842-.8193-.7552-1.4826-.6543-1.9609.3721-.3862.8288-.761,1.6629-1.131,2.4732-.3038-.0465-.486-.0766-.6688-.1021-2.3996-.334-4.2596,1.0412-4.4302,3.275-.177,2.3176,1.4915,3.9709,3.9307,4.0502.5218.017,1.1226.4213,1.5234.814,1.2553,1.2298,3.1008,1.5289,4.5924.6363,1.456-.8713,2.2153-2.6003,1.5997-4.1908-.365-.9431-1.1095-1.7393-1.7767-2.7418ZM52.9218,24.7473c.0249-.3949.0656-.8074.0744-1.2207.048-2.2316-1.5058-3.9129-3.6199-3.9262-2.0997-.0132-3.6477,1.665-3.7229,3.8787-.0183.5386-.3279,1.1864-.7147,1.5725-1.5609,1.558-1.6505,3.9983-.1087,5.47,1.5673,1.4961,3.9802,1.3548,5.4417-.321.2078-.2383.4043-.4866.6193-.7464.8529.368,1.659.7173,2.4662,1.0639.9736.418,1.4572.087,1.637-.9535.5601-3.2422.5787-3.239-2.0723-4.8173ZM78.8489,40.04c-.0108.1142-.0043.2502-.0383.3751-.4413,1.6212.0507,2.9591,1.3372,3.961,1.2079.9406,2.5884,1.027,3.9336.3262,1.4689-.7652,2.0206-2.0488,1.9582-3.6998-.0156-.4132.3826-.9347.7308-1.253,1.5344-1.4023,1.6623-3.8739.2212-5.3788-1.4535-1.5178-3.9271-1.5259-5.366-.0066-.2753.2907-.5075.6223-.7831.9642-.9211-.4024-1.7561-.8015-2.6169-1.1336-.8401-.324-1.3474.0518-1.5193.8938q-.6775,3.3173,2.1426,4.9514ZM70.0866,18.5294q-.8812,2.1215.9027,3.5885c2.214,1.8206,2.2534,1.8339,3.3528-.8184.3637-.8775.6744-1.2696,1.7841-1.0962,2.028.3169,3.822-1.3772,3.9198-3.4255.1005-2.1045-1.4111-3.8696-3.474-3.8992-.8778-.0126-1.4879-.1281-2.0935-.896-.9427-1.1952-2.8413-1.4343-4.2143-.7759-1.3914.6673-2.3569,2.2356-1.9605,3.7744.2909,1.1294,1.0512,2.1378,1.7829,3.5483ZM66.7589,40.7602c-.3054-.1794-.5665-.4663-.7784-.4337-.8148.1253-1.8595.1147-2.3441.6147-.4183.4315-.4253,1.5658-.1951,2.2479.314.9302,1.3195,1.2541,2.221.9241,2.8255-1.0342,5.6317-2.1288,8.4016-3.3034.9935-.4213,1.1683-1.4274.853-2.3925-.3062-.9373-1.0977-1.5678-2.0352-1.26-.8484.2785-1.55,1.0042-2.49,1.6525-1.6415-.7604-3.0321-.1807-3.6329,1.9505Z"/>
    <path class="cls-16" d="M69.5253,35.5704c-.8055,2.1805-2.192,2.7248-3.7031,1.8653-1.002.682-1.7734,1.5692-2.6759,1.7327-1.2233.2217-1.7481-.9057-2.1661-1.9643-.1706-.4321-.623-.839-1.0489-1.0689-1.6239-.8768-2.0143-2.5321-2.4454-4.0421-1.2456-4.3629.8642-8.2318,5.0748-9.6154,4.0082-1.3171,8.0862.6954,9.64,4.8518.5161,1.3806,1.3743,2.8083.2413,4.3471-.1293.1756.1521.6848.2898,1.0201.4287,1.0437.6714,2.0868-.3073,2.9454-.9479.8315-1.9484.5776-2.8993-.0717ZM64.5404,31.1279c-.029-1.2511-1.0829-2.2923-2.3332-2.3052-1.3081-.0135-2.3467,1.0762-2.3147,2.4286.0305,1.2894,1.0377,2.2942,2.3059,2.3003,1.3075.0063,2.3728-1.0961,2.342-2.4237ZM67.7348,26.6935c-1.2751.0057-2.3096,1.0171-2.3331,2.2812-.0244,1.3078,1.0676,2.4294,2.3605,2.4246,1.2357-.0047,2.3135-1.0638,2.3416-2.3011.0294-1.2928-1.0717-2.4105-2.369-2.4047Z"/>
    <path class="cls-16" d="M61.5548,46.4672c.6672,1.0025,1.4116,1.7987,1.7767,2.7418.6156,1.5906-.1437,3.3195-1.5997,4.1908-1.4916.8927-3.3371.5935-4.5924-.6363-.4009-.3927-1.0017-.797-1.5234-.814-2.4392-.0793-4.1077-1.7327-3.9307-4.0502.1706-2.2337,2.0306-3.6089,4.4302-3.275.1828.0254.3649.0555.6688.1021.37-.8102.7448-1.6444,1.131-2.4732.4783-1.0264,1.1416-1.1274,1.9609-.3721.1706.1572.326.3312.5001.4842q2.0457,1.7982,1.1786,4.1019Z"/>
    <path class="cls-16" d="M52.9218,24.7473c2.651,1.5783,2.6324,1.5751,2.0723,4.8173-.1797,1.0405-.6634,1.3714-1.637.9535-.8072-.3466-1.6133-.6958-2.4662-1.0639-.215.2598-.4114.5081-.6193.7464-1.4615,1.6758-3.8743,1.8171-5.4417.321-1.5418-1.4717-1.4522-3.912.1087-5.47.3868-.3861.6964-1.0339.7147-1.5725.0752-2.2137,1.6232-3.8919,3.7229-3.8787,2.1141.0132,3.6679,1.6945,3.6199,3.9262-.0089.4132-.0496.8258-.0744,1.2207Z"/>
    <path class="cls-16" d="M78.8489,40.04q-2.8161-1.6333-2.1426-4.9514c.172-.8419.6792-1.2178,1.5193-.8938.8609.3321,1.6959.7311,2.6169,1.1336.2756-.3419.5077-.6735.7831-.9642,1.4389-1.5193,3.9125-1.5111,5.366.0066,1.4412,1.5049,1.3133,3.9764-.2212,5.3788-.3483.3183-.7464.8398-.7308,1.253.0624,1.651-.4893,2.9346-1.9582,3.6998-1.3452.7008-2.7258.6144-3.9336-.3262-1.2865-1.0019-1.7786-2.3398-1.3372-3.961.034-.1249.0275-.2609.0383-.3751Z"/>
    <path class="cls-16" d="M70.0866,18.5294c-.7317-1.4104-1.492-2.4189-1.7829-3.5483-.3964-1.5388.5691-3.1071,1.9605-3.7744,1.3729-.6584,3.2716-.4194,4.2143.7759.6057.7679,1.2157.8834,2.0935.896,2.0629.0296,3.5745,1.7947,3.474,3.8992-.0978,2.0483-1.8918,3.7425-3.9198,3.4255-1.1097-.1734-1.4204.2187-1.7841,1.0962-1.0993,2.6524-1.1388,2.639-3.3528.8184q-1.784-1.467-.9027-3.5885Z"/>
    <path class="cls-16" d="M66.7589,40.7602c.6008-2.1312,1.9914-2.7109,3.6329-1.9505.9399-.6482,1.6415-1.374,2.49-1.6525.9375-.3077,1.729.3227,2.0352,1.26.3153.9651.1404,1.9712-.853,2.3925-2.7698,1.1746-5.576,2.2692-8.4016,3.3034-.9016.33-1.907.0061-2.221-.9241-.2303-.6821-.2232-1.8163.1951-2.2479.4846-.4999,1.5293-.4894,2.3441-.6147.2119-.0326.473.2543.7784.4337Z"/>
    <path class="cls-15" d="M64.5404,31.1279c.0308,1.3275-1.0345,2.43-2.342,2.4237-1.2682-.0061-2.2754-1.0109-2.3059-2.3003-.032-1.3524,1.0066-2.442,2.3147-2.4286,1.2503.0129,2.3041,1.0541,2.3332,2.3052Z"/>
    <path class="cls-15" d="M67.7348,26.6935c1.2972-.0058,2.3983,1.1119,2.369,2.4047-.0281,1.2373-1.1059,2.2964-2.3416,2.3011-1.2929.0049-2.3849-1.1168-2.3605-2.4246.0236-1.2641,1.058-2.2755,2.3331-2.2812Z"/>
  </g>
  <g>
    <polygon class="cls-13" points="407.8045 27.581 389.8721 32.1988 386.4235 63.8738 384.6877 81.5893 412.2204 79.8078 410.8165 35.4682 407.8045 27.581"/>
    <path class="cls-21" d="M439.4456,121.8386c-2.1754.832-4.3405,1.6923-6.5299,2.486-1.4394.5218-2.9137.9473-4.3723,1.416-1.4344-.1409-2.1296.3998-1.9725,1.9435.298,2.9293-1.146,4.876-3.7549,5.9137-2.7859,1.1081-5.2697.4924-7.2963-1.7699.9068-.0317,1.8135-.0663,2.7205-.0944,2.8058-.0873,5.7691-1.6828,5.6018-3.837-.2981-3.8413,2.4389-4.0408,4.7184-5.0301,1.1321-.4913,2.3058-.9167,3.3698-1.5297,5.5327-3.1872,9.1366-8.5335,5.9434-15.7812-.4054-.9202-.5035-2.1412-.3057-3.1357,1.5566-7.8279-1.1497-14.6468-5.1085-21.0562-4.7724-7.7266-11.6459-13.3263-19.2933-18.0407-.3152-.4878-.6305-.9756-.9457-1.4635.5573.0924,1.1381.1139,1.6681.289,3.0718,1.0147,6.1317,2.0656,9.1956,3.1042.8251.4941,1.6501.9881,2.4752,1.4822,3.0265,2.7514,6.3286,5.2592,9.0222,8.3051,5.5596,6.2869,7.8365,13.9612,8.3714,22.2245.2965,4.5795.5666,9.1625.9713,13.733.3429,3.8708-.5455,7.1804-3.7021,9.6864-.3462.2749-.5218.7646-.7766,1.1547Z"/>
    <path class="cls-9" d="M415.5198,131.8279c-.3464-.3366-.6927-.6732-1.0246-.9958-.4738,3.3055-1.6866,4.6241-5.0348,5.4465-3.4397.8449-5.6001.1527-7.3759-2.3991-.7736.9392-1.5387,1.8682-2.3039,2.7971-2.6193,1.3323-5.2355,1.3566-7.8484-.0186-.9907-1.6909-1.9814-3.3819-2.9981-5.1176-2.0458,2.385-4.7322,3.2179-7.8591,2.0627-3.4025-1.257-3.8621-4.1472-3.5954-7.2078-3.1166-.8757-6.0323-1.6949-8.9481-2.5141-2.4393-1.5335-4.8785-3.067-7.3178-4.6004-.6908-1.3138-1.3817-2.6275-2.0725-3.9412.3324-3.2989.6648-6.5978.9973-9.8968,2.5314-.8038,3.6145-2.9521,3.8549-5.1958.4983-4.6514-.0475-9.2645-1.8742-13.6487,3.93-12.4242,12.761-19.7139,24.3756-23.741.3005,1.3005.5634,2.4382.9346,4.044-.1476.2094-.8361.877-1.1203,1.6865-.2343.6675.01,1.5031.0423,2.2642.8133-.0799,1.9164.147,2.3861-.2967,1.4682-1.3867,2.6972-3.0267,4.5026-5.1329-.1288,1.2687-.302,1.9761-.2415,2.663.0592.6711.3568,1.3211.5497,1.9804.6055-.2684,1.211-.5368,1.8163-.8055,1.1305.4997,2.2612.9997,3.3919,1.4996-.3673.8004-.8495,1.5704-1.0712,2.4093-.2475.9365-.5387,2.0309-.2541,2.8672.1429.4196,1.692.7932,2.2992.5165.8274-.3771,1.7171-1.3031,1.9401-2.1602.3391-1.3025.1289-2.7482.1516-4.1333,1.2885.1689,2.5773.338,3.8661.5071,1.797,1.0691,1.6823-.598,2.1163-1.4794.9196.3902,2.1722.5299,2.6942,1.2213,1.2695,1.6817,2.6179,1.6027,4.0278.5624,1.4901-1.0993,1.5403-2.5659.5854-4.141-.7073-1.1666-1.3013-2.4019-1.9457-3.6067,7.6474,4.7144,14.521,10.3141,19.2933,18.0407,3.9587,6.4094,6.6651,13.2283,5.1085,21.0562-.1978.9945-.0997,2.2155.3057,3.1357,3.1933,7.2477-.4107,12.594-5.9434,15.7812-1.064.613-2.2377,1.0384-3.3698,1.5297-2.2795.9893-5.0165,1.1888-4.7184,5.0301.1673,2.1542-2.7961,3.7497-5.6018,3.837-.907.0282-1.8136.0628-2.7205.0944ZM403.7626,111.9045c-2.4712-.8706-4.5162-.0502-5.9057,2.3693-1.3059,2.2739-1.0527,3.9172.8631,5.6011,2.8843,1.6951,6.9813,1.1913,8.2291-1.0119,1.3359-2.3587-.1535-5.611-3.1866-6.9584ZM386.9136,95.5234l-.9803-.5396c-5.2065-3.0771-12.9679.758-15.5371,6.4056-2.0869,4.5874-.6334,8.7788,3.9704,11.0759.2155.1141.431.2282.6465.3423.1013.1044.2245.1512.3695.1406,2.3812.4759,4.7544,1.3001,7.1453,1.355,4.929.1131,8.6138-2.7474,9.6066-6.953,1.0286-4.3573-1.2873-9.6022-5.2231-11.8284l.0021.0015ZM428.5711,96.019c-.3183-.2-.6367-.4-.955-.6-2.1991-.476-4.4065-1.3801-6.5955-1.3377-4.3717.0847-8.1069,4.0236-9.143,9.0146-.8921,4.2972.779,7.8939,4.5959,9.8917,3.3622,2.0453,6.9424,1.6657,10.4764.7484,4.3521-1.1296,7.257-4.1436,7.5599-7.5032.3605-3.9978-2.0621-8.1634-5.941-10.2154l.0023.0016Z"/>
    <path class="cls-4" d="M413.1661,63.3229c.6444,1.2047,1.2384,2.4401,1.9457,3.6067.9549,1.5752.9047,3.0417-.5854,4.141-1.41,1.0403-2.7584,1.1193-4.0278-.5624-.5219-.6914-1.7746-.8311-2.6942-1.2213.1434-1.5444.4051-3.0888.4098-4.6341.0352-11.367.019-22.7342.019-34.1012,1.156-.9902,2.312-1.9804,3.4678-2.9707.0052,10.049-.0087,20.0981.0378,30.1469.0065,1.3776.3133,2.7539.4813,4.1312.3154.4882.6307.976.9459,1.4638Z"/>
    <path class="cls-10" d="M411.7012,27.581c-1.1559.9903-2.3118,1.9805-3.4678,2.9707-2.2347,1.6072-3.91,3.3588-3.1176,6.5543.1816.7321-1.1465,1.8386-1.7798,2.7728-.6842-.6589-1.4047-1.2854-2.0369-1.9909-.2997-.3344-.431-.8198-.9613-1.885-.6794,1.1856-1.2026,1.8936-1.4971,2.6866-.1881.5067.1268,1.2054-.0731,1.7015-.4653,1.1553-.9983,2.3226-1.748,3.2971-.1937.2518-1.7703-.0219-1.8838-.3451-.3759-1.07-.5006-2.2753-.4779-3.4239.0189-.9597.6622-1.9534.5312-2.8601-.2772-1.9192-.5393-4.0322-3.2908-4.1173-.6073-.0188-1.2025-.4281-2.0261-.7428,2.061-4.9978,6.6265-6.091,10.8967-7.5983-.1627,1.7516-.3253,3.5032-.519,5.5883,2.7739-1.8703,2.0294-4.3431,2.0374-6.6022.1483-.0311.2975-.0568.4477-.0771.57.0994,1.1379.2142,1.7105.2953,1.897.2684,3.8919.2622,5.65.9057.7809.2858,1.0851,1.8736,1.6057,2.8705Z"/>
    <path class="cls-21" d="M362.119,86.5981c1.8267,4.3843,2.3724,8.9973,1.8742,13.6487-.2404,2.2437-1.3235,4.392-3.8549,5.1958-.1951-6.3714-.3779-12.7416,1.9807-18.8446Z"/>
    <path class="cls-6" d="M402.7349,23.5096c-.1501.0202-.2994.0459-.4475.0773-.4667.0321-.9335.0639-1.4003.0957-3.6449-.9526-4.2526-1.8073-4.0281-4.4274,1.7642-2.3313,2.9531-3.9023,4.4078-5.8246,1.0293,1.7463,1.9223,3.2613,2.8415,4.8207.1568-.0815.4848-.2519.8139-.4229,1.2092,2.6282.7346,3.8499-2.1872,5.6813ZM401.1633,18.0428c-1.1742,1.5347-2.5085,2.7826-1.0681,4.4567.3308.3845,1.8326.4268,2.1082.0801,1.3034-1.6394.2099-2.9689-1.0401-4.5368Z"/>
    <path class="cls-4" d="M405.6882,70.7664c-1.2888-.1691-2.5776-.3383-3.866-.5071-.1717-1.2778-.4485-2.5547-.4644-3.8347-.0064-.5109.4555-1.2213.909-1.4754.2973-.1666,1.2569.1909,1.4117.5394.7631,1.7179,1.3565,3.5112,2.0097,5.2779Z"/>
    <path class="cls-4" d="M398.7564,70.7598c-1.1308-.4999-2.2615-.9999-3.392-1.4996.1622-1.207.2431-2.4331.5188-3.6137.1474-.6313.6306-1.1843.9623-1.7726.5341.4049,1.4633.752,1.5325,1.2248.2728,1.8656.2755,3.7707.3784,5.6611Z"/>
    <path class="cls-15" d="M400.887,23.6826c.4668-.0318.9337-.0637,1.4003-.0957-.0081,2.2588.7364,4.7316-2.0375,6.602.1937-2.0851.3563-3.8367.519-5.5883.0394-.306.0788-.612.1182-.9179Z"/>
    <path class="cls-1" d="M416.4735,112.9876c-3.8168-1.9978-5.488-5.5945-4.5959-9.8917,1.0361-4.991,4.7713-8.9299,9.143-9.0146,2.189-.0424,4.3964.8617,6.5955,1.3378.3183.2.6367.4.955.6,0,0-.0023-.0016-.0024-.0016.3093.5594.5548,1.1672.9376,1.6706,4.6796,6.1525,2.8239,12.4771-4.5831,14.594-2.666.7619-5.6246.5002-8.4497.7056Z"/>
    <path class="cls-1" d="M374.3666,112.4653c-4.6038-2.2972-6.0573-6.4885-3.9704-11.0759,2.5691-5.6476,10.3306-9.4827,15.5371-6.4055.3268.1798.6536.3597.9803.5395l-.0021-.0015c.5797,1.1565,1.1625,2.3115,1.7386,3.4698,3.8454,7.7325-1.4897,13.9154-7.4793,13.9139-1.9294-.0005-3.8588.0277-5.7882.0427-.145.0106-.2682-.0362-.3695-.1406-.2156-.1141-.431-.2282-.6465-.3423Z"/>
    <path class="cls-8" d="M416.4735,112.9876c2.8251-.2054,5.7836.0563,8.4497-.7056,7.407-2.1169,9.2627-8.4415,4.5831-14.594-.3828-.5034-.6283-1.1112-.9376-1.6706,3.879,2.052,6.3016,6.2176,5.9411,10.2154-.3029,3.3596-3.2078,6.3736-7.5599,7.5032-3.534.9173-7.1142,1.2969-10.4764-.7484Z"/>
    <path class="cls-8" d="M375.3827,112.9482c1.9294-.015,3.8588-.0432,5.7882-.0427,5.9896.0015,11.3247-6.1814,7.4793-13.9139-.5761-1.1583-1.1589-2.3133-1.7386-3.4698,3.9358,2.2262,6.2518,7.4712,5.2231,11.8284-.9929,4.2055-4.6777,7.066-9.6066,6.953-2.3909-.0548-4.7641-.8791-7.1453-1.355Z"/>
    <path class="cls-1" d="M398.7201,119.8749c-1.9159-1.6839-2.169-3.3272-.8631-5.6011,1.3894-2.4194,3.4344-3.2398,5.9057-2.3692.2277.6087.4153,1.2362.6899,1.8231,1.3326,2.8486.4457,4.9377-2.5863,5.7777-1.0056.2787-2.0951.255-3.1462.3696Z"/>
    <path class="cls-8" d="M398.7201,119.8749c1.0511-.1146,2.1406-.0909,3.1462-.3696,3.032-.84,3.9189-2.9291,2.5863-5.7777-.2746-.5868-.4622-1.2143-.6899-1.8231,3.0331,1.3474,4.5225,4.5997,3.1865,6.9584-1.2478,2.2033-5.3449,2.707-8.2291,1.0119Z"/>
    <path class="cls-8" d="M428.5711,96.019c-.3183-.2-.6367-.3999-.955-.5999.3183.2.6367.3999.955.5999Z"/>
    <path class="cls-8" d="M386.9136,95.5234c-.3268-.1799-.6536-.3597-.9803-.5395.3268.1798.6536.3597.9803.5395Z"/>
    <path class="cls-8" d="M374.3666,112.4653c.2155.1141.431.2283.6465.3423-.2155-.1141-.431-.2283-.6465-.3423Z"/>
    <path class="cls-5" d="M401.1633,18.0428c1.2501,1.5679,2.3436,2.8974,1.0401,4.5368-.2756.3467-1.7774.3044-2.1082-.0801-1.4405-1.6741-.1061-2.9219,1.0681-4.4567Z"/>
  </g>
  <g>
    <path class="cls-12" d="M412.6766,148.9548c-1.0797-.2598-2.1828-.4481-3.2351-.7917-4.4953-1.4677-7.7638-5.3324-7.8469-10.7068-.0441-2.8537.9306-5.4589,2.6946-7.7379.2212-.2858.4167-.5914.6238-.8878.2702-.2441.5406-.4882.811-.7322,3.663-3.3051,7.895-4.642,12.7795-3.6553,2.096.4234,3.8808,1.4976,5.5481,2.7899.4643.4625.9287.9251,1.393,1.3877.4647.864.9294,1.7279,1.3941,2.5919.2656,1.1973.5312,2.3947.7968,3.592-.3372,1.928-.6744,3.8559-1.0115,5.7839-.3334.6697-.6669,1.3395-1.0003,2.0092-.1929.1607-.4253.2915-.5727.4865-2.0963,2.7734-4.8393,4.5564-8.2053,5.3942-.6573.1636-1.3168.3178-1.9753.4764h-2.194ZM417.46,126.2071s.0144.0093.0144.0093c.0262-.3509.0525-.7019.0796-1.0641-.4105.0189-.8123.0373-1.1896.0547-.0491.3501-.0942.6724-.1393.9946-.244.0008-.4879.0016-.7321.0026v-1.2696h-1.799c-.084.5386-.1569,1.0059-.2298,1.4731-.1993.0051-.4055-.0215-.597.0199-5.1246,1.108-9.6773,6.0527-9.0232,11.934.4845,4.3566,3.9687,7.8228,8.2236,8.3506,5.8218.7221,10.88-2.3128,12.7961-7.6102,1.9865-5.492-1.0096-11.4693-7.2349-12.6978-.0562-.0657-.1125-.1313-.1687-.197Z"/>
    <path class="cls-7" d="M464.9338,103.0802c-.1701.2111-.4279.3969-.4973.6371-1.1369,3.9288-3.6543,6.6735-7.237,8.5196-.2006.1034-.3904.2278-.5925.3466,2.3464,4.5287,2.0716,8.8712-.7543,13.0504-.161.2381-.4777.371-.7218.5531.1232-.2311.2352-.469.3709-.6925,1.9246-3.1698,2.4513-6.5535,1.4183-10.1176-.3163-1.0912-.9008-2.1047-1.2942-2.9988,1.3864-1.2071,2.8085-2.2576,4.0046-3.522,3.5079-3.7082,4.2727-9.462,1.8706-13.8379-2.013-3.6672-5.3071-5.4143-9.3425-5.9542,1.0422.0255,2.1168-.1053,3.121.1033,4.5672.9486,7.743,3.5493,9.2201,8.0675.0789.2414.2864.4408.4341.6597v5.1858Z"/>
    <path class="cls-7" d="M414.8706,148.9548c.6585-.1586,1.3181-.3129,1.9753-.4764,3.3659-.8377,6.109-2.6208,8.2053-5.3942.1474-.195.3798-.3259.5728-.4866.256.2044.5119.4088.7678.6132.0089.0558.0179.1116.027.1673-2.1352,2.6059-4.7815,4.4106-8.0912,5.1913-.1756.0414-.3111.253-.4653.3853h-2.9918Z"/>
    <path class="cls-12" d="M426.4189,143.3782c-.0091-.0558-.0181-.1115-.0269-.1675.3518-.5477.7035-1.0952,1.0552-1.6427.0649-.0021.1298-.0039.1947-.0051,1.0899.5404,2.1267,1.2851,3.2792,1.585,4.4982,1.1705,8.3656.0445,11.7165-3.2585,3.9124-3.8565,4.2163-10.9956-.4246-14.764-.3555-.2887-.4638-.8818-.7823-1.5262-.1181.0602-.4737.2416-.8294.4229l-.0019.0019c-.4071-.1331-.8143-.2662-1.2214-.3993-.1578-.1928-.2921-.5199-.478-.5525-.5079-.0891-1.0376-.054-1.5587-.0681-1.1529.0323-2.3206-.0416-3.456.1169-3.2614.4553-5.8073,2.1756-7.8589,4.6919-.4576-.4606-.9152-.9213-1.3727-1.3819,1.7544-2.379,4.1632-3.8466,6.9029-4.8539-.0497-.3634-.0895-.6548-.1294-.9463.1013-2.3577.7377-4.5577,1.9435-6.5897.4891-.66.9781-1.32,1.4671-1.9801l.1908-.2896c1.2746-.9794,2.5491-1.9588,3.8847-2.9851-1.1334-1.68-1.8411-3.6103-1.9539-5.7384-.1211-2.2271.3751-4.3297,1.2806-6.3498.9818-1.7624,2.2231-3.3124,3.7739-4.6089,3.022-2.2143,6.3875-3.2767,10.1448-3.0252,4.0353.5397,7.3294,2.2869,9.3424,5.9541,2.402,4.3759,1.6372,10.1297-1.8706,13.8379-1.1961,1.2644-2.6182,2.315-4.0046,3.522.3934.894.9779,1.9075,1.2942,2.9988,1.033,3.5641.5063,6.9478-1.4183,10.1176-.1357.2235-.2477.4615-.3709.6926-.0002-.0001.0101.0103.0102.0104-.274.3334-.5482.6667-.8224,1-.2524.2651-.5048.5302-.7572.7953-.0689.0716-.1377.1432-.2066.2147,0,0,.0065-.0064.0065-.0064-.0725.0681-.145.1362-.2175.2043-1.5886.9416-3.1889,1.8646-4.7547,2.8427-.2659.1661-.5559.5758-.5448.8616.2563,6.5458-5.4503,12.799-12.556,13.492-3.2517.3171-6.169-.4615-8.8696-2.2235ZM450.959,108.4598c.8965.6155,1.7752,1.2601,2.7025,1.825.2179.1327.5999-.0039.9064-.0166,3.1235-1.4493,5.0444-3.9114,5.8749-7.2004,1.5674-6.2078-2.9428-11.9132-9.3539-11.9718-3.1638-.0289-5.914.9406-8.2639,3.0531-2.1812,1.9609-3.5526,4.3238-3.6303,7.3273-.2637.004-.5275.0079-.7912.0118-.0106-.0226-.0174-.0486-.0334-.0663-.0084-.0093-.0329-.004-.0501-.0053.0307.0208.0613.0417.092.0625-.0313.6446-.0627,1.2891-.0957,1.9342.29-.0312.58-.0624.87-.0936.4696,1.3477.9145,2.7049,1.4321,4.0339.0906.2327.5121.52.7372.4868,1.4184-.209,2.8246-.5014,4.2347-.7664.2638.1199.5164.2868.7931.352,1.522.3583,3.0498.6918,4.5756,1.0338ZM444.9941,124.8245c.7748,1.3562,1.5364,2.7203,2.3406,4.0589.1044.1738.4286.2155.651.3184.8707-.4659,1.7851-.8659,2.6047-1.4089,3.9975-2.6485,6.2014-8.5521,3.6368-13.2141-.389-.7072-.3698-1.2347.5447-1.6096-.4448-.0783-.7797-.0402-1.115-.0362-.166.002-.3327-.0586-.4991-.0908v-1.4545c-.4494-.0403-.9199-.0826-1.3904-.1248-.2185-.0587-.4666-.0693-.651-.1831-3.2923-2.0319-6.7295-2.1167-10.283-.8051-4.0573,1.4977-7.1979,5.8289-7.2001,9.9452-.0936.5858.1059.8414.7471.8213,1.2768-.0401,2.5559-.0098,3.8341-.0085,2.6162.6268,4.88,1.8837,6.7795,3.7918Z"/>
    <path class="cls-7" d="M454.3187,127.1974c.2742-.3333.5483-.6666.8224-1,.048.5981-.1969.9555-.8224,1Z"/>
    <path class="cls-7" d="M453.1439,128.4053c.0725-.0681.145-.1361.2175-.2043-.0725.068-.145.1361-.2175.2043Z"/>
    <path class="cls-7" d="M453.3549,128.2075c.0689-.0715.1377-.1431.2066-.2147-.0689.0715-.1377.1431-.2066.2147Z"/>
    <path class="cls-2" d="M415.4932,126.204c.244-.0008.4879-.0017.732-.0024.4165.005.8328.0099,1.2492.0149,0,0-.0144-.0093-.0144-.0094.0563.0657.1125.1313.1687.197,6.2253,1.2286,9.2214,7.2058,7.2349,12.6978-1.9161,5.2974-6.9743,8.3323-12.7961,7.6102-4.2549-.5278-7.7391-3.994-8.2236-8.3506-.6541-5.8813,3.8986-10.826,9.0232-11.934.1915-.0414.3977-.0148.5971-.0199.0046.1368.0091.2736.0136.4103-.023.009-.0492.014-.0679.0285-.0109.0086-.0099.0325-.0142.0494.0253-.0281.0505-.0562.0758-.0843.5343-.0068,1.0755.032,1.5989-.047.1653-.025.2832-.3648.4227-.5606ZM424.2916,135.8714c-.0496-.6257-.0358-1.2642-.1592-1.875-.7847-3.8828-4.3653-6.7213-8.4876-6.7548-4.1135-.0335-7.3513,1.7666-9.5072,5.302-2.4264,3.979-1.2613,9.3044,2.5439,11.6844,2.9286,1.8316,6.0331,1.9948,9.2169.7017,3.527-1.4325,6.5748-5.2574,6.3932-9.0582Z"/>
    <path class="cls-20" d="M427.642,141.5627c-.065.0013-.1299.0031-.1949.0053-.2744-.3265-.5486-.653-.8229-.9795.3372-1.928.6744-3.8559,1.0115-5.784.4589-.2116.9178-.4231,1.3769-.6344-.1307,1.6376-.1771,3.2881-.4268,4.9071-.1321.8566-.6178,1.6588-.9438,2.4855Z"/>
    <path class="cls-22" d="M429.0124,134.1698c-.4589.2115-.9178.423-1.3767.6346-.2656-1.1972-.5312-2.3945-.7968-3.592.1203-.5538.0134-1.2341.792-1.4207.4752,1.2729.9504,2.5457,1.4256,3.8185-.0147.1865-.0294.373-.044.5596Z"/>
    <path class="cls-14" d="M413.4779,126.818c-.0045-.1367-.0091-.2735-.0136-.4103.0728-.4673.1457-.9345.2298-1.4731h1.799c0,.3881,0,.8289,0,1.2696-.1395.1957-.2573.5356-.4226.5606-.5234.079-1.0646.0403-1.5989.0471l.0063.0063Z"/>
    <path class="cls-20" d="M427.6309,129.7916c-.7786.1867-.6717.867-.792,1.4208-.4647-.8638-.9294-1.7278-1.3942-2.5919.1951-.205.3902-.4099.5853-.6147.5352.5358,1.0704,1.0716,1.6056,1.6074-.0035.0594-.005.1189-.0047.1784Z"/>
    <path class="cls-22" d="M426.6242,140.5885c.2742.3265.5485.6531.8228.9795-.3516.5474-.7033,1.095-1.0551,1.6427-.256-.2042-.5119-.4086-.7679-.613.3333-.6697.6668-1.3394,1.0002-2.0092Z"/>
    <path class="cls-22" d="M426.03,128.0058c-.1951.2049-.3902.4098-.5853.6148-.4643-.4624-.9287-.925-1.393-1.3876.2007-.2673.4013-.5347.602-.802.4576.4606.9152.9213,1.3729,1.3819.005.0642.0061.1286.0034.1929Z"/>
    <path class="cls-16" d="M417.4744,126.2165c-.4163-.0049-.8327-.0099-1.2492-.0149.045-.3223.0901-.6445.1392-.9946.3773-.0173.779-.0358,1.1896-.0547-.0271.3623-.0533.7132-.0796,1.0641Z"/>
    <path class="cls-16" d="M417.6287,126.4041c-.0562-.0657-.1124-.1313-.1687-.197.0562.0657.1125.1313.1687.197Z"/>
    <path class="cls-11" d="M445.5904,107.0741c-1.4102.2649-2.8164.5573-4.2348.7663-.2251.0332-.6466-.2542-.7372-.4868-.5176-1.329-.9625-2.6863-1.432-4.0341.3745.0278.749.0558,1.0139.0755.0712-.6948.1336-1.3043.196-1.9138.0141-.0263.0281-.0527.0421-.079-.0111.0292-.0221.0585-.0332.0877-.4036-.0046-.8072-.0091-1.2108-.0137.0779-3.0034,1.4492-5.3663,3.6305-7.3272,2.3499-2.1125,5.1002-3.082,8.2639-3.0531,6.4111.0585,10.9213,5.7639,9.3539,11.9718-.8305,3.289-2.7514,5.751-5.875,7.2003-1.194-.7371-2.3878-1.474-3.5817-2.211-.0119-.0607-.0235-.1215-.0346-.1824-.323-.418-.646-.836-1.0677-1.3817.293-1.0518.6443-2.3131,1.0026-3.5992,1.1907.2061,2.3015.3632,3.3911.6125.2608.0597.5724.3899.6527.6579.2886.9636.9069,1.3505,1.8764,1.0654.8581-.2524,1.2213-1.0657.966-1.9635-.0744-.2615.0096-.6814.1871-.881.6952-.7819.7931-1.6512.1618-2.1921-.6286-.5386-1.6666-.3571-2.2984.3685-.1746.2005-.4622.4845-.6573.4556-1.1902-.1765-2.3687-.4322-3.5915-.6693.0774-.3407.1176-.5998.1956-.8471.4128-1.3077.251-2.9111,2.0803-3.4461.5493-.1606.884-.8706.5834-1.6071-.3031-.7429-.9033-.8232-1.5615-.7314-.3423.0477-.6685.211-1.0019.3221.0207-.0853.0414-.1706.0621-.2559-.6095-.2061-1.2837-.6735-1.81-.5432-.5049.125-1.1358.8364-1.197,1.3513-.0612.5144.5152,1.1046.812,1.6616.1065-.0181.2131-.0361.3197-.0541-.4274,1.2357-.8548,2.4714-1.2822,3.7071-1.2312-.22-2.4623-.4399-3.6855-.6585-.0749-.2848-.1098-.5152-.1952-.7249-.3122-.7662-.8462-1.1875-1.7111-.9904-.7715.1759-1.3516.9341-1.1528,1.7254.1685.6707,0,1.0687-.4163,1.5764-.2495.3043-.316.9561-.1653,1.3315.1314.3274.7305.7306,1.0381.67.6798-.134,1.3063-.5389,1.9545-.8333-.0336-.0718-.0672-.1436-.1008-.2154,1.2725.1725,2.545.3449,3.8175.5174-.1942.9648-.3757,1.9324-.5869,2.8934-.1567.7133-.2905,1.4445-1.338,1.3251-.1904-.0217-.4262.356-.6411.5494,0,0-.0015.0031-.0015.0031Z"/>
    <path class="cls-11" d="M426.03,128.0058c.0027-.0644.0016-.1287-.0034-.1929,2.0514-2.5163,4.5973-4.2366,7.8587-4.6919,1.1353-.1585,2.303-.0847,3.4567-.1169.0007.6451.0007,1.2902.0007,1.9035h1.9314c.038-.4697.0709-.8763.1039-1.2829.4071.1331.8143.2662,1.2214.3993.0718.0497.1435.0995.2153.1493.0174-.0255.0347-.051.0521-.0765-.0885-.0249-.1769-.0498-.2654-.0747.3556-.1813.7113-.3627.8294-.4229.3185.6444.4268,1.2376.7823,1.5262,4.641,3.7684,4.337,10.9075.4246,14.764-3.3509,3.303-7.2182,4.429-11.7165,3.2585-1.1525-.2999-2.1893-1.0445-3.2792-1.585.3261-.8269.8118-1.629.9439-2.4856.2497-1.6191.2961-3.2695.4268-4.9071.0145-.1868.0292-.3733.0437-.5599,1.3837.2036,2.7675.4074,4.1514.6111-.2582,1.0224-.5493,2.038-.7612,3.0699-.1131.5508-.3184.8332-.908.983-.9759.2479-1.4821,1.0694-1.2869,1.8295.181.7046.9501.9956,1.9767.8612.3598-.0471.8088.0551,1.1169.2486.8252.5182,1.6106.4574,2.2093-.2767.4874-.5976.3354-1.3554-.2904-2.0245-.2133-.2281-.367-.675-.3038-.9695.2281-1.0621.5602-2.1019.8531-3.1501,1.294.2197,2.5881.4394,3.8387.6518.0649.1223.1219.1794.1214.2361-.0118,1.2175.8755,1.6426,1.7545,1.4861.9379-.167,1.335-.9423,1.1533-2.0427-.0461-.2793.0369-.6544.203-.8811.6718-.9165.7252-1.6342.0824-2.1708-.6347-.5298-1.4227-.3473-2.1772.4051-.2195.2189-.6334.3779-.9392.3508-1.0808-.096-2.1534-.2846-3.229-.4381.2023-1.0341.4081-2.0676.6055-3.1027.1002-.5252.3158-.8458.9189-.979.9657-.2133,1.4797-1.0335,1.2297-1.8218-.3009-.9485-1.0834-.8942-1.8792-.8666-.4056.0141-.8787-.046-1.214-.2494-.8266-.5013-1.6179-.4362-2.2115.3061-.4785.5983-.3301,1.3523.3277,2.0178.2014.2037.4329.5736.378.8016-.2691,1.1163-.6302,2.2105-.9588,3.3124-1.3115-.2251-2.623-.4503-3.902-.6699-.2175-1.618-.855-2.0179-2.2799-1.5252-.5352-.5358-1.0704-1.0716-1.6056-1.6074Z"/>
    <path class="cls-2" d="M453.1579,112.8422c.1664.0322.3331.0928.4991.0908.3353-.0041.6702-.0421,1.115.0362-.9145.3749-.9337.9024-.5447,1.6096,2.5646,4.662.3607,10.5656-3.6368,13.2141-.8196.543-1.734.943-2.6048,1.409-.0757-.3485-.1064-.7146-.2351-1.0423-.4403-1.121-.9151-2.2285-1.3767-3.3412.0536-.1851.0508-.4256.1696-.5466.9927-1.0111,2.0229-1.9857,3.0032-3.0083.1937-.202.2843-.557.3121-.8519.0491-.5209-.1809-1.1718.0557-1.5485.4223-.6722.19-1.0259-.2731-1.4383-1.2346-1.0996-2.4753-2.1928-3.6931-3.3109-.9967-.9151-1.9372-.9552-2.8811-.0262-1.561,1.5363-3.1209,3.075-4.6331,4.6587-.3128.3275-.4151.856-.6145,1.2918l-.0157-.0061c-1.3901.0625-2.7801.125-4.1702.1875.0019-4.116,3.1424-8.4472,7.1998-9.9449,3.5534-1.3117,6.9906-1.2268,10.283.8051.1844.1138.4325.1245.6511.1831-.0257.5088-.0514,1.0175-.074,1.464.5146.0405.9895.0779,1.4643.1153Z"/>
    <path class="cls-22" d="M444.9941,124.8245c-1.8995-1.9082-4.1633-3.1651-6.7796-3.7918-.1369-.3335-.2738-.667-.4106-1.0006,0,0,.0157.0061.0156.0061,1.0824.2743,2.1829.4939,3.2409.8426.6897.2274,1.2064.4217,1.8545-.2106.7647-.7461,1.7228-.4439,1.6077.4632-.1885,1.4865.348,2.5033,1.3972,3.3984.0598.051.0468.1873.0677.2838-.3311.003-.6623.0059-.9934.0089Z"/>
    <path class="cls-20" d="M437.804,120.0321c.1368.3335.2736.667.4106,1.0006-1.2781-.0012-2.5571-.0316-3.834.0085-.6412.0202-.8407-.2354-.747-.8214,1.3902-.0627,2.7803-.1252,4.1703-.1877Z"/>
    <path class="cls-20" d="M444.9941,124.8245c.3311-.003.6623-.006.9934-.0089.1288.0009.2576.0018.3864.0027.4616,1.1127.9364,2.2202,1.3767,3.3412.1287.3277.1594.6939.2351,1.0423-.2223-.103-.5466-.1447-.651-.3185-.8042-1.3385-1.5658-2.7027-2.3406-4.0589Z"/>
    <path class="cls-14" d="M439.378,123.6247c-.0329.4066-.0658.8133-.1039,1.2829h-1.9314c0-.6133,0-1.2584-.0007-1.9035.5204.0141,1.05-.021,1.5579.0681.1859.0326.3202.3597.478.5525Z"/>
    <path class="cls-14" d="M440.3963,101.4813c-.0624.6095-.1248,1.219-.196,1.9138-.265-.0198-.6394-.0477-1.0139-.0755-.2901.0313-.58.0625-.8692.0935.0322-.6448.0635-1.2894.0949-1.9339l-.0085.0092c.2637-.004.5275-.0079.7911-.012.4035.0045.8071.0091,1.2107.0136l-.009-.0087Z"/>
    <path class="cls-20" d="M450.9862,108.0571c1.1939.737,2.3877,1.474,3.5817,2.211-.3064.0128-.6884.1494-.9063.0167-.9273-.5649-1.8061-1.2095-2.7024-1.8249.0091-.1342.018-.2685.027-.4028Z"/>
    <path class="cls-22" d="M450.9862,108.0571c-.009.1343-.0179.2686-.027.4028-1.526-.3421-3.0538-.6755-4.5758-1.0339-.2766-.0652-.5293-.2321-.793-.352,0,0,.0015-.0031.0015-.0031,1.7865.2679,3.5731.5358,5.3597.8037.0112.0609.0227.1217.0346.1824Z"/>
    <path class="cls-14" d="M453.1579,112.8422c-.4749-.0374-.9497-.0748-1.4643-.1153.0226-.4465.0484-.9553.074-1.464.4704.0423.9409.0845,1.3903.1248v1.4545Z"/>
    <path class="cls-14" d="M438.412,101.4791c-.0307-.0208-.0613-.0417-.092-.0625.0172.0013.0417-.0039.0501.0053.0159.0177.0228.0438.0334.0664,0,0,.0085-.0092.0085-.0092Z"/>
    <path class="cls-11" d="M424.2916,135.8714c.1816,3.8007-2.8662,7.6257-6.3932,9.0582-3.1838,1.2931-6.2883,1.13-9.2169-.7017-3.8053-2.3799-4.9704-7.7054-2.5439-11.6844,2.1559-3.5354,5.3937-5.3355,9.5072-5.302,4.1223.0336,7.7029,2.872,8.4876,6.7548.1234.6108.1096,1.2493.1592,1.875ZM419.6929,135.9882c.7823-1.0855.7582-1.2183-.2833-2.1312-1.1181-.9802-2.2423-1.9542-3.3378-2.9593-1.006-.923-1.8846-1.0151-2.8791-.0726-1.5886,1.5055-3.1358,3.0576-4.6462,4.6418-.924.9691-.8801,1.6433.0967,2.5586,1.1817,1.1073,2.4294,2.1439,3.613,3.2492.5691.5315,1.0485,1.0708,1.8128.2671.118-.1241.4833-.0559.7232-.0138,1.1465.2011,1.7113-.2336,2.5374-1.016.6372-.6035.924-1.5569,1.9253-1.8538.7181-.2129,1.031-1.3261.7551-2.0909-.0759-.2104-.2159-.3978-.3172-.579Z"/>
    <path class="cls-14" d="M413.4716,126.8117c-.0253.0281-.0506.0562-.0758.0843.0044-.017.0033-.0409.0142-.0494.0186-.0146.0448-.0195.0679-.0285,0,0-.0063-.0063-.0063-.0063Z"/>
    <path class="cls-3" d="M433.2077,134.2213c-1.3839-.2038-2.7678-.4075-4.1514-.6111-.475-1.2726-.9501-2.5454-1.4254-3.8184-.0004-.0597.0012-.1192.0047-.1786,1.4249-.4926,2.0624-.0927,2.2799,1.5253,1.279.2196,2.5905.4447,3.902.6698-.2033.8043-.4065,1.6086-.6098,2.413Z"/>
    <path class="cls-19" d="M402.8994,113.8505c.0619.0091.1238.0183.1856.0276,0,.0002-.0973.0161-.0973.0161l-.0883-.0437Z"/>
    <path class="cls-12" d="M450.9515,107.8747c-1.7866-.2679-3.5731-.5358-5.3597-.8037.2149-.1933.4507-.5711.6411-.5494,1.0475.1194,1.1812-.6117,1.338-1.3251.2112-.9611.3927-1.9287.5871-2.8937.2058-.7995.4113-1.5988.6168-2.3981.4274-1.2357.8548-2.4714,1.2822-3.7071-.1065.0181-.2131.0361-.3197.0541-.2968-.557-.8732-1.1472-.812-1.6616.0612-.5149.692-1.2264,1.197-1.3513.5263-.1302,1.2005.3372,1.81.5432-.0207.0853-.0414.1706-.0621.2559.3335-.1111.6596-.2743,1.0019-.3221.6582-.0918,1.2584-.0115,1.5615.7314.3005.7365-.0342,1.4465-.5834,1.6071-1.8293.5349-1.6675,2.1384-2.0803,3.4461-.078.2472-.1182.5064-.1956.8471,1.2228.2371,2.4013.4928,3.5915.6693.195.0289.4826-.2551.6573-.4556.6318-.7255,1.6698-.9071,2.2984-.3685.6313.5409.5334,1.4102-.1618,2.1921-.1775.1996-.2615.6195-.1871.881.2553.8978-.1079,1.7111-.966,1.9635-.9694.2851-1.5878-.1018-1.8764-1.0654-.0803-.2681-.3919-.5983-.6527-.6579-1.0897-.2493-2.2004-.4064-3.3911-.6125-.3583,1.2862-.7096,2.5475-1.0026,3.5992.4217.5457.7447.9637,1.0677,1.3817Z"/>
    <path class="cls-3" d="M448.7749,99.9048c-.2055.7993-.4111,1.5986-.6168,2.3981-1.2727-.1722-2.5452-.3447-3.8177-.5172.0336.0718.0672.1436.1008.2154-.6482.2944-1.2746.6992-1.9545.8333-.3076.0606-.9067-.3426-1.0381-.67-.1507-.3754-.0842-1.0272.1653-1.3315.4162-.5077.5848-.9057.4163-1.5764-.1988-.7913.3813-1.5495,1.1528-1.7254.8648-.1972,1.3989.2241,1.7111.9904.0855.2097.1203.44.1952.7249,1.2232.2185,2.4544.4385,3.6855.6585Z"/>
    <path class="cls-14" d="M440.4053,101.49c.0111-.0292.0221-.0585.0332-.0877-.014.0263-.028.0527-.0421.079,0,0,.009.0087.009.0087Z"/>
    <path class="cls-18" d="M433.2077,134.2213c.2033-.8043.4066-1.6087.6098-2.413.3286-1.1019.6897-2.196.9588-3.3124.055-.2281-.1766-.5979-.378-.8016-.6578-.6655-.8062-1.4194-.3277-2.0178.5936-.7423,1.3848-.8074,2.2115-.3061.3354.2034.8085.2634,1.214.2494.7958-.0276,1.5784-.082,1.8792.8666.25.7883-.264,1.6085-1.2297,1.8218-.603.1332-.8187.4538-.9189.979-.1974,1.0351-.4032,2.0685-.6056,3.1028-.2693.801-.5386,1.6019-.8078,2.4028-.2929,1.0482-.625,2.088-.8531,3.1501-.0632.2945.0904.7414.3038.9695.6258.6691.7778,1.4268.2904,2.0245-.5988.7341-1.3842.7949-2.2093.2767-.3081-.1935-.7571-.2957-1.1169-.2486-1.0267.1344-1.7958-.1566-1.9767-.8612-.1951-.7601.311-1.5816,1.2869-1.8295.5896-.1498.7949-.4322.908-.983.2119-1.0319.5031-2.0475.7613-3.0699Z"/>
    <path class="cls-3" d="M435.8134,134.7927c.2692-.8009.5385-1.6018.8078-2.4028,1.0757.1534,2.1483.342,3.2291.438.3058.0272.7197-.1319.9392-.3508.7544-.7524,1.5425-.9349,2.1772-.4051.6428.5366.5894,1.2544-.0824,2.1708-.1661.2267-.2491.6018-.203.8811.1818,1.1004-.2154,1.8757-1.1533,2.0427-.8791.1565-1.7663-.2686-1.7545-1.4861.0006-.0566-.0565-.1138-.1214-.2361-1.2506-.2123-2.5446-.4321-3.8387-.6518Z"/>
    <path class="cls-12" d="M440.6013,124.022c.0885.0249.1769.0498.2654.0747-.0174.0255-.0347.051-.0521.0765-.0718-.0498-.1435-.0995-.2153-.1493,0,0,.0019-.0019.0019-.0019Z"/>
    <path class="cls-18" d="M446.3739,124.8184c-.1288-.0009-.2576-.0018-.3864-.0027-.0209-.0966-.0079-.2329-.0677-.2839-1.0492-.8951-1.5857-1.9119-1.3972-3.3984.115-.9071-.8431-1.2092-1.6077-.4632-.648.6323-1.1647.4379-1.8545.2106-1.058-.3487-2.1585-.5683-3.2409-.8426.1995-.4358.3018-.9642.6146-1.2918,1.5122-1.5836,3.0721-3.1223,4.6331-4.6587.944-.929,1.8844-.889,2.8811.0262,1.2177,1.1181,2.4584,2.2112,3.6931,3.3109.4631.4125.6954.7662.2731,1.4383-.2367.3767-.0066,1.0276-.0557,1.5485-.0278.2949-.1184.6499-.3121.8519-.9804,1.0226-2.0105,1.9972-3.0032,3.0083-.1188.121-.116.3615-.1696.5466ZM446.1942,119.927c.5218-.1139.8849-.0885,1.0798-.2573.4128-.3576.9076-.7699,1.0396-1.2502.0887-.3228-.3116-1.0564-.6277-1.1495-.4806-.1416-1.0868.0785-1.6209.217-.1937.0503-.3873.2803-.4872.4762-.2138.4194-.6151.9825-.4808,1.279.1648.3639.798.5156,1.0972.6848Z"/>
    <path class="cls-18" d="M419.6929,135.9882c.1013.1813.2413.3686.3172.579.2759.7648-.0371,1.8779-.7551,2.0909-1.0013.2969-1.2881,1.2503-1.9253,1.8538-.8261.7824-1.391,1.2171-2.5374,1.016-.2399-.0421-.6052-.1102-.7232.0138-.7643.8037-1.2437.2645-1.8128-.2671-1.1836-1.1053-2.4313-2.142-3.613-3.2492-.9768-.9153-1.0207-1.5895-.0967-2.5586,1.5104-1.5842,3.0576-3.1363,4.6462-4.6418.9945-.9425,1.8731-.8505,2.8791.0726,1.0955,1.0051,2.2197,1.9791,3.3378,2.9593,1.0414.9129,1.0655,1.0458.2833,2.1312ZM413.2604,140.18c.9785.0042,1.6693-.6897,1.5861-1.7212-.0481-.5969-.0959-1.3456-.9282-1.4276-.7353-.0724-2.0125,1.1984-2.0288,1.9268-.016.7175.5459,1.2184,1.3708,1.222ZM416.3452,136.6434c1.0394-.1418,1.8405-.2583,2.0786-1.1443.1568-.5836.0959-1.1827-.59-1.5209-.8592-.4236-1.455-.0278-2.0129.5624-.0228.0241-.0596.043-.0683.071-.1468.4729-.4892,1.0056-.3723,1.4024.0965.3274.7377.4942.9648.6294Z"/>
    <path class="cls-22" d="M446.1942,119.927c-.2992-.1691-.9324-.3209-1.0972-.6848-.1343-.2965.267-.8596.4808-1.279.0998-.1958.2934-.4259.4872-.4762.5341-.1386,1.1403-.3587,1.6209-.217.3161.0931.7164.8267.6277,1.1495-.132.4803-.6268.8926-1.0396,1.2502-.1949.1688-.558.1434-1.0798.2573Z"/>
    <path class="cls-22" d="M413.2604,140.18c-.8249-.0036-1.3869-.5045-1.3708-1.222.0163-.7283,1.2935-1.9992,2.0288-1.9268.8323.082.88.8307.9282,1.4276.0832,1.0315-.6076,1.7254-1.5861,1.7212Z"/>
    <path class="cls-22" d="M416.3452,136.6434c-.2272-.1352-.8683-.302-.9648-.6294-.1169-.3968.2255-.9295.3723-1.4024.0087-.028.0455-.0469.0683-.071.5579-.5902,1.1537-.986,2.0129-.5624.6859.3382.7468.9373.59,1.5209-.2381.886-1.0392,1.0025-2.0786,1.1443Z"/>
  </g>
</svg>