<?xml version="1.0" encoding="utf-8"?>
<!-- Generator: Adobe Illustrator 24.0.1, SVG Export Plug-In . SVG Version: 6.00 Build 0)  -->
<svg version="1.1" id="Layer_1" xmlns="http://www.w3.org/2000/svg" xmlns:xlink="http://www.w3.org/1999/xlink" x="0px" y="0px"
	 viewBox="0 0 500 165" style="enable-background:new 0 0 500 165;" xml:space="preserve">
<style type="text/css">
	.st0{fill:#E2A349;stroke:#A67C52;stroke-width:5;stroke-miterlimit:10;}
	.st1{opacity:0.74;fill:#E2A349;stroke:#A67C52;stroke-width:3;stroke-miterlimit:10;}
	.st2{fill:#A67C52;}
	.st3{opacity:0.35;}
	.st4{opacity:0.51;fill:none;stroke:#F2F2F2;stroke-width:2;stroke-miterlimit:10;}
	.st5{fill:none;}
	.st6{fill:#F2F2F2;}
	.st7{font-family:'CenturySchoolbook-Bold';}
	.st8{font-size:72.5956px;}
	.st9{fill:#FFFFFF;}
</style>
<g>
	<g>
		<polygon class="st0" points="491.9,89 494.5,9.9 302,15.2 302,5.2 109.6,11 109.6,5.2 95.5,5.2 87.3,14.4 11,12.7 6,79.9 
			40.8,80.7 6,89 6,158.2 141.2,145.4 138.8,160.3 322.7,160.3 321.9,150.3 492.4,149.9 491.9,94 446.3,89.8 		"/>
		<line class="st1" x1="495" y1="56.6" x2="8.1" y2="51.4"/>
		<line class="st1" x1="488.8" y1="121.9" x2="8.1" y2="116.7"/>
		<g>
			<path class="st2" d="M422.9,76.8c-6.1-0.1-12.1-0.2-18.2-0.3L386.6,76l-9.1-0.3l-9.1-0.3l-18.2-0.7l-2.4-0.1l1.8-1.6
				c2.8-2.4,5.5-4.9,8.3-7.3l0.7,1.7l-18.9,1.2c-6.3,0.4-12.6,0.8-18.9,1.1l-18.9,1c-6.3,0.3-12.6,0.6-19,0.8
				c6.3-0.6,12.6-1.2,18.9-1.8l18.9-1.6c6.3-0.5,12.6-1,18.9-1.5l18.9-1.4l2.9-0.2l-2.2,1.9c-2.7,2.4-5.5,4.8-8.3,7.2l-0.6-1.7
				l18.1,0.9l9.1,0.4l9.1,0.5l18.1,1C410.8,76,416.9,76.3,422.9,76.8z"/>
		</g>
		<g>
			<path class="st2" d="M57.9,88.2c8.3-0.6,16.6-1.1,24.9-1.7l24.9-1.5l12.4-0.7l12.4-0.7l24.9-1.3l-0.6,1.6
				c-2.3-2.2-4.5-4.4-6.8-6.7l-1.9-1.9l2.6,0.2l15.4,1.3c5.1,0.4,10.3,0.8,15.4,1.4l15.4,1.5c5.1,0.6,10.3,1,15.4,1.7
				c-5.2-0.2-10.3-0.5-15.5-0.7l-15.4-0.9c-5.1-0.3-10.3-0.7-15.4-1l-15.4-1.1l0.8-1.7c2.3,2.2,4.5,4.5,6.7,6.7l1.5,1.5l-2.2,0.1
				l-24.9,1.2L120.1,86l-12.5,0.5l-24.9,1C74.5,87.7,66.2,88,57.9,88.2z"/>
		</g>
		<g class="st3">
			<path class="st4" d="M105,75.2c28.9-3.4,58.4-13.9,110.4-9.2c35.8,3.3,36.3,2.4,67.9,4c37.6,1.8,29.2,9.7,109.9,5.2
				c17.3-1,57.9-9.3,66.9-9.7"/>
			<path class="st4" d="M428.1,25.6c-28.9-3.4-73.4-6.8-125.5-2c-35.8,3.3-34.8,6.6-66.4,8.2c-37.6,1.8-57.2-2.1-137.9-6.6
				c-17.3-1-31.5-1.6-40.4-2"/>
			<path class="st4" d="M413.1,47.2c-28.9-3.4-58.4-13.9-110.4-9.2c-35.8,3.3-36.3,2.4-67.9,4c-37.6,1.8-29.2,9.7-109.9,5.2
				c-17.3-1-57.9-9.3-66.9-9.7"/>
			<path class="st4" d="M43.3,88.9c28.9-3.4,73.4-6.8,125.5-2c35.8,3.3,34.8,6.6,66.4,8.2c37.6,1.8,57.2-2.1,137.9-6.6
				c17.3-1,31.5-1.6,40.4-2"/>
			<path class="st4" d="M72.9,108.4c28.9-3.4,58.4-13.9,110.4-9.2c35.8,3.3,36.3,2.4,67.9,4c37.6,1.8,29.2,9.7,109.9,5.2
				c17.3-1,57.9-9.3,66.9-9.7"/>
			<path class="st4" d="M71.9,137.5c28.9-3.4,58.4-13.9,110.4-9.2c35.8,3.3,36.3,2.4,67.9,4c37.6,1.8,29.2,9.7,109.9,5.2
				c17.3-1,57.9-9.3,66.9-9.7"/>
		</g>
		<circle class="st2" cx="450.9" cy="28.1" r="4.1"/>
		<circle class="st2" cx="63.6" cy="26.5" r="4.7"/>
		<rect x="177.7" y="60.7" class="st5" width="288.3" height="61.7"/>
		<text transform="matrix(1 0 0 1 177.6533 113.9248)" class="st6 st7 st8">EXIT</text>
		<path class="st9" d="M95.9,95.5H74.8c-1.6,0-2.9-1.3-2.9-2.9V81.8c0-1.6,1.3-2.9,2.9-2.9h21.1c1.6,0,2.9,1.3,2.9,2.9v10.7
			C98.8,94.1,97.5,95.5,95.9,95.5z"/>
		<g>
			<path class="st9" d="M93.6,69.3c-2.2-1.6-4.1-0.6-4.1,2.1v32.4c0,2.8,1.8,3.7,4.1,2.1l21.9-15.5c2.2-1.6,2.2-4.2,0-5.8L93.6,69.3
				z"/>
		</g>
		<g>
			<path class="st9" d="M139,48.9c-2.6-1-4.7,0.4-4.7,3.2l-1.1,66.4c0,2.7,2.1,4.5,4.8,4l17.2-3.7c2.7-0.6,4.9-3.3,4.9-6V62.2
				c0-2.8-2.1-5.8-4.7-6.8L139,48.9z"/>
		</g>
		<path class="st9" d="M114.4,73.7V56.1H131v3.1h-12.4v14.5C118.5,73.7,114.4,75,114.4,73.7z"/>
		<path class="st9" d="M114.4,95.5v17.6H131V110h-12.4V95.4C118.5,95.4,114.4,94.2,114.4,95.5z"/>
	</g>
</g>
</svg>
