<?xml version="1.0" encoding="utf-8"?>
<!-- Generator: Adobe Illustrator 24.0.1, SVG Export Plug-In . SVG Version: 6.00 Build 0)  -->
<svg version="1.1" id="Layer_1" xmlns="http://www.w3.org/2000/svg" xmlns:xlink="http://www.w3.org/1999/xlink" x="0px" y="0px"
	 viewBox="0 0 457 153.1" style="enable-background:new 0 0 457 153.1;" xml:space="preserve">
<style type="text/css">
	.st0{fill:#E2A349;stroke:#A67C52;stroke-width:5;stroke-miterlimit:10;}
	.st1{opacity:0.74;fill:#E2A349;stroke:#A67C52;stroke-width:3;stroke-miterlimit:10;}
	.st2{fill:#A67C52;}
	.st3{opacity:0.35;}
	.st4{opacity:0.51;fill:none;stroke:#F2F2F2;stroke-width:2;stroke-miterlimit:10;}
	.st5{fill:none;}
	.st6{fill:#FFFFFF;}
	.st7{font-family:'CenturySchoolbook-Bold';}
	.st8{font-size:66.631px;}
	.st9{fill:#F2F2F2;}
</style>
<g>
	<polygon class="st0" points="5.4,80.8 17.5,13.1 179.6,13.1 179.6,4 356.2,9.3 356.2,4 369.1,4 376.8,12.3 446.8,10.8 451.3,72.5 
		419.4,73.2 451.3,80.8 451.3,132.6 327.3,132.6 328.8,141.7 160.6,146.3 161.4,137.2 5.4,146.3 5.4,85.4 47.2,81.6 	"/>
	<line class="st1" x1="8.2" y1="51.1" x2="449.4" y2="46.3"/>
	<line class="st1" x1="8.2" y1="111.1" x2="449.4" y2="106.3"/>
	<g>
		<path class="st2" d="M68.7,69.7c5.5-0.4,11.1-0.8,16.6-1.2c5.5-0.4,11.1-0.7,16.6-1c11.1-0.6,22.2-1.2,33.3-1.7l-0.6,1.7l-7.6-6.7
			l-2.2-1.9l3,0.2l17.4,1.3l17.4,1.4l17.4,1.5c5.8,0.6,11.6,1,17.3,1.7c-5.8-0.2-11.6-0.5-17.4-0.7l-17.4-0.9l-17.4-1l-17.4-1.1
			l0.7-1.7l7.6,6.7l1.8,1.6l-2.5,0.1c-11.1,0.5-22.2,0.9-33.3,1.2c-5.6,0.2-11.1,0.3-16.7,0.4C79.8,69.5,74.2,69.6,68.7,69.7z"/>
	</g>
	<g>
		<path class="st2" d="M403.7,80.1c-7.6-0.2-15.3-0.5-22.9-0.7L358,78.6l-11.4-0.4l-11.4-0.5l-22.9-1.1l-2.2-0.1l1.5-1.5
			c2.1-2.1,4.1-4.1,6.2-6.2l0.8,1.7l-14.2,1c-4.7,0.3-9.4,0.7-14.2,0.9l-14.2,0.8c-4.7,0.2-9.5,0.5-14.2,0.6c4.7-0.6,9.4-1,14.1-1.6
			l14.1-1.4c4.7-0.5,9.4-0.9,14.1-1.3l14.1-1.2l2.6-0.2l-1.9,1.9c-2,2.1-4.1,4.1-6.2,6.1l-0.6-1.6l22.8,1.2l11.4,0.6l11.4,0.7
			l22.8,1.4C388.5,79.1,396.1,79.5,403.7,80.1z"/>
	</g>
	<g class="st3">
		<path class="st4" d="M360.4,68.2c-26.6-3.2-53.6-12.8-101.4-8.4c-32.8,3-33.3,2.2-62.3,3.6c-34.5,1.7-26.8,8.9-100.9,4.8
			c-15.9-0.9-53.2-8.5-61.4-8.9"/>
		<path class="st4" d="M63.9,22.7c26.6-3.2,67.4-6.2,115.2-1.9c32.8,3,31.9,6.1,60.9,7.5c34.5,1.7,52.5-1.9,126.6-6.1
			c15.9-0.9,28.9-1.5,37.1-1.9"/>
		<path class="st4" d="M77.7,42.5c26.6-3.2,53.6-12.8,101.4-8.4c32.8,3,33.3,2.2,62.3,3.6c34.5,1.7,26.8,8.9,100.9,4.8
			c15.9-0.9,53.2-8.5,61.4-8.9"/>
		<path class="st4" d="M417.1,80.7c-26.6-3.2-67.4-6.2-115.2-1.9c-32.8,3-31.9,6.1-60.9,7.5c-34.5,1.7-52.5-1.9-126.6-6.1
			c-15.9-0.9-28.9-1.5-37.1-1.9"/>
		<path class="st4" d="M389.9,98.7c-26.6-3.2-53.6-12.8-101.4-8.4c-32.8,3-33.3,2.2-62.3,3.6c-34.5,1.7-26.8,8.9-100.9,4.8
			c-15.9-0.9-53.2-8.5-61.4-8.9"/>
		<path class="st4" d="M390.9,125.3c-26.6-3.2-53.6-12.8-101.4-8.4c-32.8,3-33.3,2.2-62.3,3.6c-34.5,1.7-26.8,8.9-100.9,4.8
			c-15.9-0.9-53.2-8.5-61.4-8.9"/>
	</g>
	<circle class="st2" cx="54.4" cy="24.9" r="3.8"/>
	<circle class="st2" cx="410.9" cy="23.5" r="4.3"/>
	<circle class="st2" cx="54.4" cy="122" r="3.8"/>
	<circle class="st2" cx="410.9" cy="120.6" r="4.3"/>
	<rect x="129.6" y="52" class="st5" width="264.6" height="56.6"/>
	<text transform="matrix(1 0 0 1 129.6039 100.8748)" class="st6 st7 st8">START</text>
	<g>
		<path class="st9" d="M72.6,54.6C66.8,51.5,62,54.4,62,61v35c0,6.6,4.8,9.5,10.6,6.4l34.5-18.3c5.8-3.1,5.8-8.1,0-11.2L72.6,54.6z"
			/>
	</g>
</g>
</svg>
