<?xml version="1.0" encoding="utf-8"?>
<!-- Generator: Adobe Illustrator 24.0.1, SVG Export Plug-In . SVG Version: 6.00 Build 0)  -->
<svg version="1.1" id="Layer_1" xmlns="http://www.w3.org/2000/svg" xmlns:xlink="http://www.w3.org/1999/xlink" x="0px" y="0px"
	 viewBox="0 0 500 148" style="enable-background:new 0 0 500 148;" xml:space="preserve">
<style type="text/css">
	.st0{fill:#E2A349;stroke:#A67C52;stroke-width:5;stroke-miterlimit:10;}
	.st1{opacity:0.74;fill:#E2A349;stroke:#A67C52;stroke-width:3;stroke-miterlimit:10;}
	.st2{fill:#A67C52;}
	.st3{opacity:0.35;}
	.st4{opacity:0.51;fill:none;stroke:#F2F2F2;stroke-width:2;stroke-miterlimit:10;}
	.st5{fill:none;}
	.st6{fill:#F2F2F2;}
	.st7{font-family:'CenturySchoolbook-Bold';}
	.st8{font-size:56.8249px;}
	.st9{fill:#EFF0F1;}
</style>
<g>
	<g>
		<polygon class="st0" points="7,80.4 20.3,16.2 98.1,14.4 98.1,5.8 388.6,15.3 488.7,14.1 493.2,56.8 478.8,60.4 482.4,88.3 
			493.6,87.6 493.6,129.5 452.6,129.5 458.9,137.9 396.7,137.9 401.5,129.5 259.1,128.6 260.7,137.2 77.2,141.5 78,132.9 7,135.2 
			7,84.8 52.7,81.2 		"/>
		<line class="st1" x1="10.1" y1="52.2" x2="491.6" y2="47.7"/>
		<line class="st1" x1="10.1" y1="109.1" x2="491.6" y2="104.6"/>
		<g>
			<path class="st2" d="M76.1,69.8c6.1-0.4,12.1-0.8,18.2-1.1l18.2-0.9l9.1-0.5l9.1-0.4l18.2-0.8l-0.5,1.7c-2.8-2.1-5.6-4.2-8.3-6.3
				l-2.5-2l3.2,0.2l19,1.2c6.3,0.4,12.6,0.8,18.9,1.3l18.9,1.4c6.3,0.5,12.6,1,18.9,1.6c-6.3-0.2-12.7-0.4-19-0.7l-19-0.9
				c-6.3-0.3-12.6-0.6-19-1l-19-1l0.7-1.8c2.8,2.1,5.5,4.2,8.3,6.3l2.2,1.6l-2.7,0.1l-18.2,0.6l-9.1,0.3l-9.1,0.2l-18.2,0.4
				C88.2,69.7,82.2,69.8,76.1,69.8z"/>
		</g>
		<g>
			<path class="st2" d="M441.7,79.8c-8.3-0.2-16.6-0.4-25-0.6l-24.9-0.8l-12.5-0.4l-12.5-0.5l-24.9-1l-2.4-0.1l1.8-1.6
				c2.3-1.9,4.5-3.9,6.8-5.8l0.7,1.7l-15.5,1c-5.2,0.3-10.3,0.7-15.5,0.9l-15.5,0.8c-5.2,0.2-10.3,0.4-15.5,0.6
				c5.1-0.6,10.3-1,15.4-1.5l15.4-1.3c5.1-0.5,10.3-0.8,15.4-1.2l15.4-1.1l2.9-0.2l-2.2,1.9c-2.2,2-4.5,3.9-6.8,5.8l-0.6-1.7
				l24.9,1.2l12.5,0.6l12.5,0.7l24.9,1.3C425.1,78.7,433.4,79.2,441.7,79.8z"/>
		</g>
		<g class="st3">
			<path class="st4" d="M394.4,68.5c-29-3-58.5-12.1-110.6-8c-35.8,2.8-36.4,2.1-68,3.5c-37.7,1.6-29.3,8.5-110.1,4.5
				c-17.4-0.8-58-8.1-67-8.4"/>
			<path class="st4" d="M70.9,25.3c29-3,73.5-5.9,125.7-1.8c35.8,2.8,34.8,5.8,66.5,7.1c37.7,1.6,57.3-1.8,138.1-5.8
				c17.4-0.8,31.5-1.4,40.5-1.8"/>
			<path class="st4" d="M86,44.1c29-3,58.5-12.1,110.6-8c35.8,2.8,36.4,2.1,68,3.5c37.7,1.6,29.3,8.5,110.1,4.5
				c17.4-0.8,58-8.1,67-8.4"/>
			<path class="st4" d="M456.2,80.3c-29-3-73.5-5.9-125.7-1.8c-35.8,2.8-34.8,5.8-66.5,7.1c-37.7,1.6-57.3-1.8-138.1-5.8
				c-17.4-0.8-31.5-1.4-40.5-1.8"/>
			<path class="st4" d="M426.6,97.3c-29-3-58.5-12.1-110.6-8c-35.8,2.8-36.4,2.1-68,3.5c-37.7,1.6-29.3,8.5-110.1,4.5
				c-17.4-0.8-58-8.1-67-8.4"/>
			<path class="st4" d="M427.7,122.6c-29-3-58.5-12.1-110.6-8c-35.8,2.8-36.4,2.1-68,3.5c-37.7,1.6-29.3,8.5-110.1,4.5
				c-17.4-0.8-58-8.1-67-8.4"/>
		</g>
		<ellipse class="st2" cx="89.2" cy="27.4" rx="4.2" ry="3.6"/>
		<ellipse class="st2" cx="426.6" cy="26.1" rx="4.7" ry="4.1"/>
		<ellipse class="st2" cx="89.2" cy="128.5" rx="4.2" ry="3.6"/>
		<ellipse class="st2" cx="426.6" cy="127.1" rx="4.7" ry="4.1"/>
		<rect x="134.6" y="54.9" class="st5" width="363.5" height="53.7"/>
		<text transform="matrix(1 0 0 1 134.645 96.5938)" class="st6 st7 st8">SETTINGS</text>
		<g>
			<g>
				<path class="st9" d="M127.5,70.9c-0.4-0.7-4.5,0-4.9-0.4c-0.2-0.2-0.4-3.4-1.5-6.3c-2.6-7-5.4-4.5-0.4-9.9
					c-0.8-0.6-5.3-5.7-5.7-5.7c-0.8-0.1-3,3.2-3.8,3c-0.3-0.1-2.8-2.3-5.8-3.5c-3.2-1.3-6.4-1.5-6.6-1.7c-0.3-0.3,0-4.9-0.6-5.2
					c-0.3-0.1-5.9-0.1-6.2,0c-2.1,0.5-0.2,4.3-1.3,5.2c-0.3,0.2-3.6,0.6-6.4,1.7c-3.4,1.4-5.6,3.7-6,3.7c-0.4,0-3.1-3.4-3.8-3.2
					c-0.4,0.1-5.4,5.3-5.4,5.7c-0.1,0.9,3.1,3,3,3.9c-0.1,0.3-2.1,2.5-3.4,6.1c-0.9,2.4-1.3,6-1.5,6.3c-1.8,1.6-6.2-4.3-5.1,7.3
					c0.8,1.2,4.5,0,5.1,0.9c0.2,0.3,0.2,3.2,1.9,7.1c2.6,6,4.8,3.6,0,8.9c2.7,2.9,2.7,2.9,5.4,5.7c5.7-4.6,3.1-2.2,9.4,0.4
					c3.4,1.4,6.8,1.7,7,1.9c0.4,0.6-0.3,4.6,0.4,5c0.3,0.1,6.7,0.1,7,0c0.8-0.4-0.2-4.7,0.6-5.2c0.3-0.2,3.3-0.2,6.8-1.7
					c6.2-2.6,3.6-5,9.2-0.4c0.7-0.8,5.7-5.5,5.7-5.9c-5.1-4.8-2.1-3.1,0.4-9.7c2.4-6.2-0.9-6.2,6.4-6.7
					C127.4,76.7,127.7,71.2,127.5,70.9z M115.2,91.4C104,105.6,81.1,103.7,72.3,88C62.6,70.7,74,49.6,92,48.1
					C116.5,46,129.2,73.5,115.2,91.4z"/>
				<path class="st9" d="M93.7,54.4c-8.9,0.5-17.3,8.2-18.4,17.2c-2.3,18.1,18,30,31.9,18.7C122,78.1,112.9,53.4,93.7,54.4z
					 M97.3,77.5c-3.5,2.9-6-1.6-6.4-1.7c-1.5-0.5-10.6,0.9-11-0.8c-0.9-3.6,8.9-1.2,11-2.1c0.6-0.3,1.3-2.2,3.2-2.4
					C97.9,70.2,100.4,75,97.3,77.5z"/>
			</g>
		</g>
	</g>
</g>
</svg>
