<?xml version="1.0" encoding="utf-8"?>
<!-- Generator: Adobe Illustrator 24.0.1, SVG Export Plug-In . SVG Version: 6.00 Build 0)  -->
<svg version="1.1" id="Layer_1" xmlns="http://www.w3.org/2000/svg" xmlns:xlink="http://www.w3.org/1999/xlink" x="0px" y="0px"
	 viewBox="0 0 291.8 289.7" style="enable-background:new 0 0 291.8 289.7;" xml:space="preserve">
<style type="text/css">
	.st0{fill:#EF2C1D;}
	.st1{fill:#E5E9EA;}
	.st2{fill:#FEFEFD;}
</style>
<path class="st0" d="M133.3,0.4c129.6-9.1,203.7,135.3,128.2,233.3c-63.9,82.9-195.6,71.8-244.6-20.6
	C-33.3,118.7,35.2,7.3,133.3,0.4z"/>
<g>
	<path class="st1" d="M78.6,177.3c-2.5-0.4-37.5,2.4-39.5-10.6c-0.5-3.5,0.1-55.9,0.8-58.4C44.6,89.9,70.7,96.5,81.1,96
		c27.7-1.6,83.8-36,89-37c6.8-1.3,12.7,2.4,13.8,9.2c1.9,12.6-2.7,126.2,0,152.5c-1.2,6-5.9,10.8-12.3,10.3
		c-6.4-0.5-60.5-32.7-71-39.5"/>
	<path class="st2" d="M172.6,67c1.9-0.2,2.1,0.6,3.3,1.8c-1.5,19.6,2,144.2,0,151.5c-0.6,2.2-3.4,2.6-5.3,2.3
		c-3.1-0.6-45.8-28.3-53-32.5c-23-13.4-34.4-11.7-36.3-30.8c-0.3-3-0.7-35.5-0.5-38c2-20.6,10.8-17.5,15.8-19.3
		C127.3,91.2,168.4,67.4,172.6,67z"/>
	<path class="st1" d="M197.5,182.2L197.5,182.2c-1.9-1.9-1.9-5,0-6.9l67.9-67.9c1.9-1.9,5-1.9,6.9,0v0c1.9,1.9,1.9,5,0,6.9
		l-67.9,67.9C202.5,184.1,199.4,184.1,197.5,182.2z"/>
	<path class="st1" d="M197.5,107.3L197.5,107.3c-1.9,1.9-1.9,5,0,6.9l67.9,67.9c1.9,1.9,5,1.9,6.9,0v0c1.9-1.9,1.9-5,0-6.9
		l-67.9-67.9C202.5,105.4,199.4,105.4,197.5,107.3z"/>
</g>
</svg>
